<?xml version="1.0" encoding="UTF-8"?>
<svg version="1.1" xmlns="http://www.w3.org/2000/svg" width="512" height="512">
<path d="M0 0 C1.01823853 0.00215515 2.03647705 0.0043103 3.08557129 0.00653076 C17.7097884 0.05623391 32.00304638 0.37042012 46.375 3.3125 C47.37160645 3.50585938 48.36821289 3.69921875 49.39501953 3.8984375 C97.79648057 13.46213524 141.99059771 35.87987765 177.375 70.3125 C178.37877686 71.27760498 178.37877686 71.27760498 179.40283203 72.26220703 C188.8806517 81.39778993 197.60906957 90.68060785 205.375 101.3125 C206.23306152 102.46355017 207.09113451 103.61459177 207.94921875 104.765625 C213.98736829 112.95680614 219.34595521 121.47054105 224.375 130.3125 C224.73948242 130.94430176 225.10396484 131.57610352 225.47949219 132.22705078 C244.54650596 165.53963133 256.37622098 205.6225157 256.578125 244.10546875 C256.58513931 245.00600983 256.59215363 245.9065509 256.59938049 246.8343811 C256.61677902 249.72297226 256.6232324 252.61135837 256.625 255.5 C256.62601212 256.98105728 256.62601212 256.98105728 256.62704468 258.49203491 C256.61129657 272.98338264 256.15841075 287.05270251 253.375 301.3125 C253.21402832 302.20952637 253.05305664 303.10655273 252.88720703 304.03076172 C246.51834782 339.22773292 232.43138882 373.05644955 211.9375 402.375 C211.536521 402.95330566 211.13554199 403.53161133 210.72241211 404.12744141 C208.59052639 407.06930863 206.86619884 409.13922826 203.375 410.3125 C199.94911097 410.52224831 197.6427722 410.4017574 194.375 409.3125 C192.50805812 411.40646201 190.65673824 413.51120197 188.8125 415.625 C188.01295898 416.51735352 188.01295898 416.51735352 187.19726562 417.42773438 C185.84386798 418.99069037 184.6005136 420.64737746 183.375 422.3125 C183.705 423.3025 184.035 424.2925 184.375 425.3125 C184.96573995 430.29159384 185.12154547 434.06825756 182.5 438.4375 C178.06579824 441.09802106 174.40612632 440.68063119 169.375 440.3125 C163.48500883 440.3125 160.05613714 443.7462073 155.82421875 447.51171875 C153.20555047 450.01387038 153.20555047 450.01387038 152.95703125 452.76953125 C153.30650753 455.05519126 153.30650753 455.05519126 154.125 457.109375 C154.375 459.3125 154.375 459.3125 152.9140625 462.25 C149.88403324 465.90468145 146.76176434 468.0943541 142.75 470.5625 C142.00145752 471.03284668 141.25291504 471.50319336 140.48168945 471.98779297 C111.02245593 490.29821714 79.61533184 503.16806107 45.375 509.3125 C44.54371582 509.47476074 43.71243164 509.63702148 42.85595703 509.80419922 C15.23848528 515.07944663 -17.07902542 514.87006833 -44.625 509.3125 C-45.52686035 509.13557617 -46.4287207 508.95865234 -47.35791016 508.77636719 C-53.83099895 507.47748713 -60.23388488 505.96592874 -66.625 504.3125 C-67.44500488 504.10286621 -68.26500977 503.89323242 -69.10986328 503.67724609 C-109.44828193 493.12769791 -146.68153189 471.15233743 -176.625 442.3125 C-177.28435547 441.68037598 -177.94371094 441.04825195 -178.62304688 440.39697266 C-187.57047315 431.77375804 -195.98417251 423.0500903 -203.35107422 413.03076172 C-204.64750666 411.28214318 -205.97788718 409.56421197 -207.31640625 407.84765625 C-230.04216568 378.32684615 -244.43532221 342.37851684 -251.875 306.0625 C-252.10159302 304.96723999 -252.10159302 304.96723999 -252.33276367 303.84985352 C-255.36488317 288.1556851 -255.9982107 272.63266136 -255.9375 256.6875 C-255.93534485 255.66926147 -255.9331897 254.65102295 -255.93096924 253.60192871 C-255.88126609 238.9777116 -255.56707988 224.68445362 -252.625 210.3125 C-252.33496094 208.81759033 -252.33496094 208.81759033 -252.0390625 207.29248047 C-244.41040781 168.68418872 -228.69757683 132.53083121 -204.625 101.3125 C-203.66013672 100.05953125 -203.66013672 100.05953125 -202.67578125 98.78125 C-188.57295377 80.82715922 -172.21896589 63.63892592 -153.625 50.3125 C-153.08327148 49.920625 -152.54154297 49.52875 -151.98339844 49.125 C-121.06865283 26.84146078 -86.69401468 11.73961685 -49.375 4.0625 C-48.64442383 3.91127686 -47.91384766 3.76005371 -47.16113281 3.60424805 C-31.46684491 0.57387475 -15.9450952 -0.06071045 0 0 Z " fill="#CAE457" transform="translate(255.625,-0.3125)"/>
<path d="M0 0 C1.01823853 0.00215515 2.03647705 0.0043103 3.08557129 0.00653076 C17.7097884 0.05623391 32.00304638 0.37042012 46.375 3.3125 C47.37160645 3.50585938 48.36821289 3.69921875 49.39501953 3.8984375 C97.79648057 13.46213524 141.99059771 35.87987765 177.375 70.3125 C178.37877686 71.27760498 178.37877686 71.27760498 179.40283203 72.26220703 C188.8806517 81.39778993 197.60906957 90.68060785 205.375 101.3125 C206.23306152 102.46355017 207.09113451 103.61459177 207.94921875 104.765625 C213.98736829 112.95680614 219.34595521 121.47054105 224.375 130.3125 C224.73948242 130.94430176 225.10396484 131.57610352 225.47949219 132.22705078 C244.54650596 165.53963133 256.37622098 205.6225157 256.578125 244.10546875 C256.58513931 245.00600983 256.59215363 245.9065509 256.59938049 246.8343811 C256.61677902 249.72297226 256.6232324 252.61135837 256.625 255.5 C256.62601212 256.98105728 256.62601212 256.98105728 256.62704468 258.49203491 C256.61129657 272.98338264 256.15841075 287.05270251 253.375 301.3125 C253.21402832 302.20952637 253.05305664 303.10655273 252.88720703 304.03076172 C246.51834782 339.22773292 232.43138882 373.05644955 211.9375 402.375 C211.536521 402.95330566 211.13554199 403.53161133 210.72241211 404.12744141 C208.58548 407.07627233 206.85747045 409.10620096 203.375 410.3125 C199.28852215 410.93435533 197.66853861 410.48419239 194.0625 408.375 C191.02726197 405.51299019 190.44865935 402.92772766 190.11401367 398.85229492 C190.63538922 393.77851588 193.81130186 390.00317176 196.6875 385.9375 C197.99497699 383.98406809 199.29699778 382.02697403 200.59375 380.06640625 C201.23957031 379.09590332 201.88539063 378.12540039 202.55078125 377.12548828 C216.35549437 355.83829549 224.10892495 331.70171329 230.375 307.3125 C230.55788574 306.61914551 230.74077148 305.92579102 230.92919922 305.21142578 C234.905336 290.0742033 235.72684555 274.9725091 235.69067383 259.40527344 C235.68751918 256.5796829 235.71105697 253.75514935 235.73632812 250.9296875 C235.77974828 238.47047351 234.63370454 226.560535 232.375 214.3125 C232.18156006 213.24354492 231.98812012 212.17458984 231.78881836 211.07324219 C224.57857979 173.82542772 208.50895573 138.63241584 184.375 109.3125 C183.9325293 108.76851563 183.49005859 108.22453125 183.03417969 107.6640625 C171.4806048 93.52945644 158.7946752 80.38764654 144.06201172 69.55517578 C142.40398451 68.33385039 140.76623502 67.08872084 139.12890625 65.83984375 C122.38207399 53.26415558 103.76639375 44.05106919 84.375 36.3125 C83.22306152 35.85254639 83.22306152 35.85254639 82.04785156 35.38330078 C56.37542792 25.32624172 28.53036061 21.09773471 1.0625 21 C0.35167267 20.99738159 -0.35915466 20.99476318 -1.09152222 20.99206543 C-21.75964635 20.98401362 -42.83867386 23.12870763 -62.625 29.3125 C-63.5025293 29.58046387 -64.38005859 29.84842773 -65.28417969 30.12451172 C-113.22424028 44.91282871 -158.00999098 73.14233901 -187.625 114.3125 C-188.07536621 114.93447266 -188.52573242 115.55644531 -188.98974609 116.19726562 C-214.19356214 151.25884824 -228.3832367 189.49041989 -233.625 232.3125 C-233.72143799 233.0250293 -233.81787598 233.73755859 -233.91723633 234.47167969 C-237.72188299 264.40743918 -233.83471976 296.67363724 -224.625 325.3125 C-224.27961182 326.39337891 -224.27961182 326.39337891 -223.92724609 327.49609375 C-214.93905968 355.28721933 -201.88616945 380.49069823 -183.625 403.3125 C-183.18365723 403.86953613 -182.74231445 404.42657227 -182.28759766 405.00048828 C-171.57867344 418.42185703 -159.31592492 430.93943154 -145.625 441.3125 C-145.09680664 441.72242188 -144.56861328 442.13234375 -144.02441406 442.5546875 C-110.12113878 468.82244004 -71.66965298 483.48615622 -29.625 490.3125 C-28.53823975 490.49586914 -27.45147949 490.67923828 -26.33178711 490.86816406 C-21.80450212 491.41085383 -17.35638758 491.49375954 -12.80078125 491.515625 C-11.38855537 491.52417511 -11.38855537 491.52417511 -9.94779968 491.53289795 C-7.95503855 491.54231547 -5.96226206 491.54886897 -3.96948242 491.55273438 C-0.99172781 491.56232534 1.98530102 491.59333141 4.96289062 491.625 C17.707637 491.69482733 29.84342737 490.59923931 42.375 488.3125 C43.77898978 488.06612861 45.18303965 487.8200993 46.5871582 487.57446289 C78.95132029 481.74752901 111.0818388 467.01828347 137.6953125 447.93359375 C141.27843903 445.76595889 143.24572803 445.90458543 147.25 446.57421875 C151.09926583 447.91155559 152.32332712 449.8048012 154.375 453.3125 C155.08961399 457.12377459 154.67024063 458.77085553 152.81640625 462.171875 C149.86948152 465.96279898 146.80040683 468.0705802 142.75 470.5625 C142.00145752 471.03284668 141.25291504 471.50319336 140.48168945 471.98779297 C111.02245593 490.29821714 79.61533184 503.16806107 45.375 509.3125 C44.54371582 509.47476074 43.71243164 509.63702148 42.85595703 509.80419922 C15.23848528 515.07944663 -17.07902542 514.87006833 -44.625 509.3125 C-45.52686035 509.13557617 -46.4287207 508.95865234 -47.35791016 508.77636719 C-53.83099895 507.47748713 -60.23388488 505.96592874 -66.625 504.3125 C-67.44500488 504.10286621 -68.26500977 503.89323242 -69.10986328 503.67724609 C-109.44828193 493.12769791 -146.68153189 471.15233743 -176.625 442.3125 C-177.28435547 441.68037598 -177.94371094 441.04825195 -178.62304688 440.39697266 C-187.57047315 431.77375804 -195.98417251 423.0500903 -203.35107422 413.03076172 C-204.64750666 411.28214318 -205.97788718 409.56421197 -207.31640625 407.84765625 C-230.04216568 378.32684615 -244.43532221 342.37851684 -251.875 306.0625 C-252.10159302 304.96723999 -252.10159302 304.96723999 -252.33276367 303.84985352 C-255.36488317 288.1556851 -255.9982107 272.63266136 -255.9375 256.6875 C-255.93534485 255.66926147 -255.9331897 254.65102295 -255.93096924 253.60192871 C-255.88126609 238.9777116 -255.56707988 224.68445362 -252.625 210.3125 C-252.33496094 208.81759033 -252.33496094 208.81759033 -252.0390625 207.29248047 C-244.41040781 168.68418872 -228.69757683 132.53083121 -204.625 101.3125 C-203.66013672 100.05953125 -203.66013672 100.05953125 -202.67578125 98.78125 C-188.57295377 80.82715922 -172.21896589 63.63892592 -153.625 50.3125 C-153.08327148 49.920625 -152.54154297 49.52875 -151.98339844 49.125 C-121.06865283 26.84146078 -86.69401468 11.73961685 -49.375 4.0625 C-48.64442383 3.91127686 -47.91384766 3.76005371 -47.16113281 3.60424805 C-31.46684491 0.57387475 -15.9450952 -0.06071045 0 0 Z " fill="#010100" transform="translate(255.625,-0.3125)"/>
<path d="M0 0 C3.81296792 3.22263558 7.57297152 6.44689669 11.09936523 9.98583984 C12.17969276 11.06628067 12.17969276 11.06628067 13.28184509 12.16854858 C14.03317215 12.92503693 14.78449921 13.68152527 15.55859375 14.4609375 C16.74232323 15.6467894 16.74232323 15.6467894 17.94996643 16.8565979 C20.44818661 19.36037626 22.94289044 21.86762475 25.4375 24.375 C27.13974208 26.08226248 28.84221373 27.78929609 30.54492188 29.49609375 C34.69927389 33.66141925 38.85054509 37.82979672 43 42 C38.99888292 46.79567444 34.82026939 51.32200079 30.39407349 55.72618103 C29.75599632 56.36511262 29.11791916 57.00404421 28.46050632 57.66233736 C26.33947875 59.7850012 24.21491703 61.90409063 22.09033203 64.02319336 C20.56215795 65.55108514 19.03420448 67.07919761 17.50645447 68.60751343 C13.37074782 72.74350639 9.23197036 76.87641397 5.09262705 81.00876689 C0.76266664 85.3324661 -3.56445251 89.65900692 -7.89187622 93.98524475 C-16.08138558 102.17164895 -24.27344021 110.35550118 -32.46641648 118.53843552 C-41.7960455 127.85687809 -51.12282722 137.17816829 -60.44937301 146.49969661 C-79.62975289 165.66963057 -98.81369866 184.83599269 -118 204 C-121.84237116 200.75311439 -125.62558022 197.49977763 -129.18260193 193.93765259 C-129.93267014 193.18895905 -130.68273834 192.4402655 -131.45553589 191.66888428 C-132.25323395 190.86759094 -133.05093201 190.06629761 -133.87280273 189.24072266 C-134.73213913 188.38153229 -135.59147552 187.52234192 -136.47685242 186.63711548 C-138.81289178 184.30050229 -141.14670241 181.96170553 -143.4795177 179.62187624 C-145.92538015 177.16972672 -148.37410926 174.72044313 -150.82252502 172.27084351 C-155.44962953 167.64064138 -160.07418085 163.00789799 -164.69780165 158.37421739 C-169.96552311 153.09528586 -175.236113 147.81922216 -180.50693595 142.54338765 C-191.3411336 131.69876118 -202.17175532 120.85057065 -213 110 C-209.77736442 106.18703208 -206.55310331 102.42702848 -203.01416016 98.90063477 C-202.29386627 98.18041641 -201.57357239 97.46019806 -200.83145142 96.71815491 C-200.07496307 95.96682785 -199.31847473 95.21550079 -198.5390625 94.44140625 C-197.74849457 93.65225327 -196.95792664 92.86310028 -196.1434021 92.05003357 C-193.63962374 89.55181339 -191.13237525 87.05710956 -188.625 84.5625 C-186.91773752 82.86025792 -185.21070391 81.15778627 -183.50390625 79.45507812 C-179.33858102 75.30072637 -175.17040781 71.14924919 -171 67 C-165.21766359 71.79819138 -159.92130815 76.96351823 -154.63671875 82.30078125 C-153.32692802 83.61625191 -153.32692802 83.61625191 -151.99067688 84.95829773 C-148.74791357 88.21528647 -145.50978525 91.47685892 -142.27178955 94.73858643 C-139.08365734 97.94953716 -135.89181199 101.15676701 -132.69921875 104.36328125 C-131.85654953 105.21424881 -131.01388031 106.06521637 -130.14567566 106.94197083 C-129.36759048 107.72335922 -128.58950531 108.50474762 -127.7878418 109.30981445 C-127.10280075 110.00009232 -126.4177597 110.69037018 -125.71195984 111.40156555 C-122.97698236 113.95517815 -122.00086012 113.9999521 -118.08717346 114.21791077 C-110.86278531 113.27611424 -106.43166823 107.47881099 -101.60522461 102.51342773 C-100.49233049 101.398275 -99.37766777 100.28488491 -98.26138306 99.17312622 C-95.24590468 96.15993763 -92.25568278 93.12277305 -89.26946712 90.08061862 C-86.14085257 86.90190011 -82.98947703 83.7459113 -79.84046936 80.5874176 C-73.88532299 74.60743374 -67.95085823 68.60735643 -62.02359539 62.59974772 C-55.27275579 55.75940342 -48.49911063 48.94183618 -41.72347629 42.12606514 C-27.79016801 28.10919835 -13.88567524 14.06404503 0 0 Z " fill="#FEFEFE" transform="translate(341,154)"/>
<path d="M0 0 C1.67797852 1.14295959 1.67797852 1.14295959 3.44140625 2.75415039 C4.49183105 3.71334885 4.49183105 3.71334885 5.56347656 4.69192505 C13.87961742 12.56965613 22.03239288 20.61267855 30.17037964 28.67375088 C33.41584012 31.88852575 36.66881747 35.09479516 39.94091797 38.2824707 C43.12553997 41.38518692 46.29012921 44.50706732 49.4414978 47.64354134 C50.64034356 48.83015683 51.84605605 50.00987751 53.05874634 51.18234062 C54.75117681 52.82131525 56.41665551 54.48377921 58.078125 56.15405273 C58.57984726 56.62858383 59.08156952 57.10311493 59.59849548 57.59202576 C62.23410941 60.30031768 63.02565276 62.13307634 63.74511719 65.8653717 C63.51428702 69.45578494 62.31909117 71.16576661 59.9156847 73.78822327 C59.27935726 74.48532852 58.64302982 75.18243378 57.98741972 75.90066344 C54.90551666 79.15611658 51.7792089 82.35864884 48.60392761 85.52305603 C47.89290321 86.23564042 47.18187881 86.94822481 46.44930822 87.68240267 C44.0873001 90.04837127 41.72176768 92.41078296 39.35620117 94.77319336 C37.65379485 96.47695585 35.95160109 98.18093075 34.24960327 99.88510132 C30.12026604 104.018514 25.98860578 108.14959342 21.85577705 112.2795149 C18.49838157 115.63464672 15.14196984 118.99075972 11.78624916 122.3475666 C11.30763754 122.82633146 10.82902592 123.30509631 10.33591092 123.79836919 C9.36352989 124.77106995 8.3911511 125.74377296 7.41877452 126.71647818 C-1.68043134 135.81852983 -10.78268999 144.91752365 -19.886009 154.01546133 C-27.69975442 161.82473092 -35.51086228 169.63663065 -43.32006836 177.45043945 C-52.39604209 186.53176005 -61.47362956 195.61146249 -70.55381411 204.68857294 C-71.5209875 205.65542778 -72.4881588 206.62228471 -73.45532799 207.58914375 C-73.93117273 208.06483422 -74.40701746 208.54052468 -74.89728174 209.03063 C-78.25364565 212.38612974 -81.60884628 215.74278996 -84.96360207 219.09989738 C-89.47150518 223.6108912 -93.98204204 228.11924051 -98.49438858 232.62578964 C-100.1537498 234.28382371 -101.81225157 235.94271841 -103.46985054 237.60251427 C-105.7238873 239.85926394 -107.9809497 242.11294212 -110.23884583 244.36582947 C-110.90137936 245.03059372 -111.56391289 245.69535798 -112.2465232 246.38026661 C-112.84881584 246.9799515 -113.45110848 247.57963639 -114.07165241 248.19749355 C-114.5926314 248.71831019 -115.11361039 249.23912682 -115.65037662 249.77572578 C-117.80181723 251.72734673 -119.20581089 252.03292974 -122.125 252.5 C-131.10230225 251.34163842 -138.45927897 240.6837227 -144.62280273 234.5065918 C-145.66647597 233.46427636 -146.71036121 232.42217317 -147.75444031 231.38026428 C-150.5661906 228.57303985 -153.37480866 225.76270171 -156.18270373 222.95162177 C-159.12754726 220.00423351 -162.07484448 217.05930045 -165.02174377 214.1139679 C-169.96185094 209.17567455 -174.89985767 204.23528828 -179.83666992 199.29370117 C-185.54710446 193.57780742 -191.26115691 187.86554937 -196.97706646 182.15513104 C-201.89114452 177.24558501 -206.80327876 172.33410052 -211.71378094 167.42097789 C-214.6441608 164.48903809 -217.57521448 161.55778049 -220.50802422 158.6282711 C-223.25917188 155.88000405 -226.00787713 153.12931769 -228.75468636 150.37671471 C-229.76447299 149.36560228 -230.77511812 148.35534641 -231.78666687 147.34599686 C-233.16321947 145.97216232 -234.53641159 144.59496306 -235.90940857 143.21757507 C-237.06496073 142.06145737 -237.06496073 142.06145737 -238.24385738 140.88198376 C-241.10405948 137.81682615 -241.44467724 135.31305989 -241.37550545 131.11894226 C-240.6876489 127.23743183 -238.16843043 125.06328587 -235.41967773 122.40039062 C-234.82620041 121.79450104 -234.23272308 121.18861145 -233.6212616 120.56436157 C-231.66148318 118.57456239 -229.67412848 116.61524514 -227.68359375 114.65625 C-226.30906355 113.27886915 -224.93579508 111.90022814 -223.56373596 110.52038574 C-220.68691007 107.63628578 -217.79640099 104.76686464 -214.89526367 101.90722656 C-211.17945685 98.2426196 -207.49818734 94.54545139 -203.82630825 90.83689117 C-200.9969373 87.98610166 -198.1508883 85.15245316 -195.29942513 82.32377625 C-193.93528672 80.96681626 -192.57617624 79.60478215 -191.22225761 78.23762512 C-189.3266999 76.32898155 -187.41007121 74.44437787 -185.48608398 72.56445312 C-184.93150513 71.9972757 -184.37692627 71.43009827 -183.80554199 70.84573364 C-181.00714002 68.15890917 -179.28018388 67.04174265 -175.40711975 66.46472168 C-169.60338642 67.37652193 -166.44361393 70.3059906 -162.39331055 74.37963867 C-161.51277512 75.26032516 -160.63223969 76.14101166 -159.72502136 77.04838562 C-158.77881202 78.00480603 -157.83271371 78.96133629 -156.88671875 79.91796875 C-155.90781253 80.90060891 -154.92846099 81.88280562 -153.94868469 82.86457825 C-151.3813147 85.43955468 -148.82001003 88.020482 -146.25994873 90.60272217 C-143.64245118 93.24074273 -141.01922506 95.87305336 -138.39648438 98.50585938 C-133.25871947 103.66502142 -128.12735279 108.83048769 -123 114 C-116.77471635 108.85793893 -111.10497201 103.23335141 -105.41479492 97.51245117 C-104.36305747 96.45879144 -103.31108982 95.40536145 -102.25891113 94.35214233 C-100.00618317 92.09626955 -97.75501408 89.83885693 -95.50505638 87.58022118 C-91.94879017 84.01037624 -88.38866217 80.4443993 -84.82795715 76.87898254 C-77.27816402 69.31812069 -69.73262647 61.75301838 -62.1875 54.1875 C-54.02378178 46.00175469 -45.85932919 37.81674972 -37.69001085 29.63659269 C-34.14830132 26.08989415 -30.60904553 22.54077031 -27.0716337 18.98978555 C-24.87701957 16.78773309 -22.68035448 14.58773555 -20.48311615 12.38830185 C-19.4623171 11.36562495 -18.44238574 10.34208114 -17.42337227 9.31762505 C-16.03639052 7.92346657 -14.64605879 6.53264318 -13.25553894 5.14201355 C-12.47741946 4.36167346 -11.69929998 3.58133337 -10.89760113 2.77734661 C-7.3911968 -0.50685035 -4.74128331 -0.61177849 0 0 Z M-5.8626709 25.76196957 C-6.6833606 26.59397161 -7.50405029 27.42597364 -8.34960938 28.28318787 C-8.80555512 28.74392372 -9.26150087 29.20465957 -9.73126316 29.67935711 C-11.27107236 31.23636255 -12.80733602 32.79682242 -14.34375 34.35717773 C-15.44231187 35.46910768 -16.54114949 36.58076526 -17.64024353 37.69216919 C-20.01376056 40.09264782 -22.38609618 42.49428618 -24.75778198 44.89657402 C-28.51002991 48.6956272 -32.26973863 52.48723412 -36.03149414 56.27687073 C-36.66570691 56.91582273 -37.29991968 57.55477474 -37.95335102 58.21308893 C-39.90763604 60.18183908 -41.86201863 62.15049233 -43.81640625 64.11914062 C-51.92131121 72.28355527 -60.02066254 80.45323204 -68.09716797 88.64575195 C-73.98085953 94.61385348 -79.87861743 100.56764348 -85.79314995 106.50518757 C-88.92346473 109.64878416 -92.04615174 112.79920183 -95.15185547 115.96713066 C-98.07641358 118.94999995 -101.019239 121.91355267 -103.97696114 124.86352921 C-105.05744676 125.94780406 -106.13111003 127.03892855 -107.19718742 128.13737297 C-116.24933962 137.4514434 -116.24933962 137.4514434 -121.96325684 138.33340454 C-124.59439876 138.315954 -125.89700102 138.04948032 -128.29382324 136.89805603 C-128.84590454 136.32189041 -129.39798584 135.74572479 -129.96679688 135.15209961 C-130.94604126 134.17453201 -130.94604126 134.17453201 -131.94506836 133.17721558 C-132.96225952 132.09949387 -132.96225952 132.09949387 -134 131 C-135.52497882 129.50939366 -137.05175361 128.02062306 -138.58007812 126.53344727 C-140.23303771 124.88033166 -141.88332153 123.22453723 -143.53125 121.56640625 C-144.84603333 120.2495005 -144.84603333 120.2495005 -146.18737793 118.9059906 C-148.96062796 116.12718504 -151.73036282 113.34490603 -154.5 110.5625 C-156.39010805 108.66680135 -158.28101518 106.77190217 -160.171875 104.87695312 C-164.78391004 100.25394811 -169.39307141 95.62809343 -174 91 C-179.47313966 95.56147547 -184.53954809 100.40741321 -189.55859375 105.4609375 C-190.34774673 106.25150543 -191.13689972 107.04207336 -191.94996643 107.8565979 C-194.44818661 110.36037626 -196.94289044 112.86762475 -199.4375 115.375 C-201.13974208 117.08226248 -202.84221373 118.78929609 -204.54492188 120.49609375 C-208.69927389 124.66141925 -212.85054509 128.82979672 -217 133 C-212.34908041 138.5856465 -207.39011637 143.74651353 -202.24072266 148.87280273 C-201.38153229 149.73213913 -200.52234192 150.59147552 -199.63711548 151.47685242 C-197.30050229 153.81289178 -194.96170553 156.14670241 -192.62187624 158.4795177 C-190.16972672 160.92538015 -187.72044313 163.37410926 -185.27084351 165.82252502 C-180.64064138 170.44962953 -176.00789799 175.07418085 -171.37421739 179.69780165 C-166.09528586 184.96552311 -160.81922216 190.236113 -155.54338765 195.50693595 C-144.69876118 206.3411336 -133.85057065 217.17175532 -123 228 C-118.20432556 223.99888292 -113.67799921 219.82026939 -109.27381897 215.39407349 C-108.63488738 214.75599632 -107.99595579 214.11791916 -107.33766264 213.46050632 C-105.2149988 211.33947875 -103.09590937 209.21491703 -100.97680664 207.09033203 C-99.44891486 205.56215795 -97.92080239 204.03420448 -96.39248657 202.50645447 C-92.25649361 198.37074782 -88.12358603 194.23197036 -83.99123311 190.09262705 C-79.6675339 185.76266664 -75.34099308 181.43554749 -71.01475525 177.10812378 C-62.82835105 168.91861442 -54.64449882 160.72655979 -46.46156448 152.53358352 C-37.14312191 143.2039545 -27.82183171 133.87717278 -18.50030339 124.55062699 C0.66963057 105.37024711 19.83599269 86.18630134 39 67 C38.04404883 65.87875956 37.08724957 64.75824215 36.13009357 63.63803005 C35.59736719 63.01396438 35.06464081 62.38989871 34.51577121 61.74692196 C32.75824554 59.72137868 30.92496289 57.79798749 29.0300293 55.90063477 C28.3129631 55.18041641 27.59589691 54.46019806 26.85710144 53.71815491 C26.10375015 52.96682785 25.35039886 52.21550079 24.57421875 51.44140625 C23.78602249 50.65225327 22.99782623 49.86310028 22.18574524 49.05003357 C20.53220354 47.39581525 18.87741391 45.74284351 17.22143555 44.09106445 C14.67445048 41.54947814 12.1328997 39.00254411 9.59179688 36.45507812 C7.98209176 34.84603304 6.37207689 33.23729777 4.76171875 31.62890625 C3.99824631 30.86340958 3.23477386 30.0979129 2.44816589 29.30921936 C1.7468605 28.61106613 1.04555511 27.9129129 0.32299805 27.19360352 C-0.60582939 26.26596947 -0.60582939 26.26596947 -1.55342102 25.31959534 C-3.73900736 23.3258642 -3.63660285 23.65624914 -5.8626709 25.76196957 Z " fill="#010101" transform="translate(345,130)"/>
<path d="M0 0 C3.77666377 0.08165759 6.41259926 0.90762942 9.23828125 3.6171875 C11.49777888 7.31454726 11.18290408 11.25913577 10.3125 15.375 C8.4375 18.5 8.4375 18.5 5.3125 20.375 C1.19663577 21.24540408 -2.74795274 21.56027888 -6.4453125 19.30078125 C-9.00420498 16.63222194 -10.0398582 13.90455572 -10.3125 10.3125 C-9.57360658 5.65747148 -8.29753331 4.28063656 -4.6875 1.375 C-3.6875 0.375 -3.6875 0.375 0 0 Z " fill="#030401" transform="translate(429.6875,419.625)"/>
</svg>
