<?xml version="1.0" encoding="UTF-8"?>
<svg version="1.1" xmlns="http://www.w3.org/2000/svg" width="256" height="256">
<path d="M0 0 C1.29862774 -0.00807831 1.29862774 -0.00807831 2.62349039 -0.01631981 C5.52384226 -0.0306248 8.42373936 -0.02348938 11.32411194 -0.01637268 C13.40376147 -0.02207491 15.48340787 -0.0290386 17.56304932 -0.03717041 C23.21178131 -0.05513304 28.86035822 -0.05392759 34.50911021 -0.04822803 C39.22347465 -0.0451407 43.93780911 -0.05122354 48.65216929 -0.05726677 C59.77298537 -0.07132056 70.89372464 -0.06974356 82.01454163 -0.05836487 C93.49067091 -0.04688217 104.96656655 -0.06096005 116.44266504 -0.08776134 C126.29332563 -0.109906 136.14391282 -0.11655851 145.99459654 -0.11068493 C151.87901215 -0.10731129 157.76327796 -0.10975759 163.64767265 -0.12693596 C169.18072761 -0.14238327 174.71343597 -0.13847394 180.24647713 -0.11963081 C182.2773952 -0.11593884 184.30833883 -0.11907104 186.3392334 -0.1295166 C189.11140395 -0.14268644 191.88242031 -0.13121455 194.65454102 -0.11352539 C195.45853441 -0.1231304 196.2625278 -0.1327354 197.09088463 -0.14263147 C202.31015716 -0.07409068 205.22087601 0.98585853 209.39076233 4.38768005 C213.5587298 8.97244428 212.6663559 14.55938641 212.39076233 20.38768005 C213.54834045 20.3412738 214.70591858 20.29486755 215.89857483 20.24705505 C217.43761139 20.20951758 218.97667603 20.17311954 220.51576233 20.13768005 C221.2763092 20.10416443 222.03685608 20.0706488 222.82044983 20.03611755 C228.16643905 19.94394533 231.21437769 20.74418722 235.39076233 24.38768005 C237.98969277 28.02435677 238.76719438 30.51128105 238.77844238 34.95980835 C238.79329933 36.6231144 238.79329933 36.6231144 238.80845642 38.32002258 C238.80395477 39.52691742 238.79945313 40.73381226 238.79481506 41.97727966 C238.80510994 43.8951252 238.80510994 43.8951252 238.81561279 45.85171509 C238.83353482 49.35178316 238.83237768 52.85160039 238.82667041 56.35170054 C238.82357705 59.27663554 238.82967265 62.20152245 238.83570915 65.1264506 C238.8497497 72.02826514 238.84819714 78.92995588 238.83680725 85.83177185 C238.82532698 92.94542929 238.83940094 100.05870969 238.86620373 107.17231745 C238.88837518 113.28628882 238.89499486 119.40014196 238.88912731 125.51415068 C238.88575988 129.16294705 238.88815825 132.81150175 238.90537834 136.46026421 C238.92374733 140.52998023 238.9096457 144.59896472 238.89247131 148.66868591 C238.90213928 149.87355652 238.91180725 151.07842712 238.92176819 152.31980896 C238.86761792 158.44117432 238.82905287 162.73260658 234.39076233 167.38768005 C229.88886155 170.88818759 226.0176041 170.81494456 220.55374146 170.77536011 C219.66348831 170.78074565 218.77323517 170.78613118 217.85600466 170.79167992 C214.87273967 170.80598809 211.88991662 170.79884868 208.90663147 170.79173279 C206.76786949 170.79743485 204.62911056 170.80439847 202.49035645 170.81253052 C196.68047382 170.83049498 190.87074196 170.82928735 185.06083989 170.82358813 C180.21226804 170.82050108 175.36372535 170.82658334 170.51515764 170.83262688 C159.07791598 170.84668127 147.64074901 170.84510316 136.20350647 170.83372498 C124.40019018 170.82224217 112.59710107 170.83632022 100.79381472 170.86312145 C90.66290213 170.88526489 80.53206092 170.89191889 70.40112585 170.88604504 C64.34903776 170.88267111 58.29709531 170.88511958 52.24502754 170.90229607 C46.55438694 170.91774145 40.86408336 170.91383617 35.17345619 170.89499092 C33.08448604 170.89129842 30.99549104 170.89443268 28.90654373 170.90487671 C26.05556094 170.91804282 23.20570109 170.90657777 20.35476685 170.8888855 C19.52742776 170.8984905 18.70008868 170.90809551 17.84767872 170.91799158 C12.56376871 170.85048973 9.60790551 169.84720928 5.39076233 166.38768005 C1.22279485 161.80291583 2.11516876 156.2159737 2.39076233 150.38768005 C1.6663092 150.4340863 0.94185608 150.48049255 0.19544983 150.52830505 C-5.9377963 150.75727958 -9.8815504 150.76079078 -14.60923767 146.38768005 C-17.19895561 142.74391344 -17.98566326 140.2666354 -17.99691772 135.81555176 C-18.00682236 134.70668106 -18.01672699 133.59781036 -18.02693176 132.45533752 C-18.02243011 131.24844269 -18.01792847 130.04154785 -18.01329041 128.79808044 C-18.02015366 127.51951675 -18.02701691 126.24095306 -18.03408813 124.92364502 C-18.05201016 121.42357695 -18.05085303 117.92375971 -18.04514575 114.42365956 C-18.04205239 111.49872457 -18.04814799 108.57383766 -18.0541845 105.64890951 C-18.06822505 98.74709497 -18.06667248 91.84540422 -18.05528259 84.94358826 C-18.04380232 77.82993081 -18.05787628 70.71665042 -18.08467907 63.60304266 C-18.10685052 57.48907129 -18.1134702 51.37521814 -18.10760266 45.26120943 C-18.10423522 41.61241306 -18.10663359 37.96385836 -18.12385368 34.3150959 C-18.14222267 30.24537988 -18.12812104 26.17639539 -18.11094666 22.10667419 C-18.12061462 20.90180359 -18.13028259 19.69693298 -18.14024353 18.45555115 C-18.08609326 12.33418579 -18.04752821 8.04275352 -13.60923767 3.38768005 C-9.27475227 0.04014795 -5.27767259 -0.03934272 0 0 Z " fill="#84E173" transform="translate(17.609237670898438,42.61231994628906)"/>
<path d="M0 0 C1.29862774 -0.00807831 1.29862774 -0.00807831 2.62349039 -0.01631981 C5.52384226 -0.0306248 8.42373936 -0.02348938 11.32411194 -0.01637268 C13.40376147 -0.02207491 15.48340787 -0.0290386 17.56304932 -0.03717041 C23.21178131 -0.05513304 28.86035822 -0.05392759 34.50911021 -0.04822803 C39.22347465 -0.0451407 43.93780911 -0.05122354 48.65216929 -0.05726677 C59.77298537 -0.07132056 70.89372464 -0.06974356 82.01454163 -0.05836487 C93.49067091 -0.04688217 104.96656655 -0.06096005 116.44266504 -0.08776134 C126.29332563 -0.109906 136.14391282 -0.11655851 145.99459654 -0.11068493 C151.87901215 -0.10731129 157.76327796 -0.10975759 163.64767265 -0.12693596 C169.18072761 -0.14238327 174.71343597 -0.13847394 180.24647713 -0.11963081 C182.2773952 -0.11593884 184.30833883 -0.11907104 186.3392334 -0.1295166 C189.11140395 -0.14268644 191.88242031 -0.13121455 194.65454102 -0.11352539 C195.45853441 -0.1231304 196.2625278 -0.1327354 197.09088463 -0.14263147 C202.31015716 -0.07409068 205.22087601 0.98585853 209.39076233 4.38768005 C213.5587298 8.97244428 212.6663559 14.55938641 212.39076233 20.38768005 C213.54834045 20.3412738 214.70591858 20.29486755 215.89857483 20.24705505 C217.43761139 20.20951758 218.97667603 20.17311954 220.51576233 20.13768005 C221.2763092 20.10416443 222.03685608 20.0706488 222.82044983 20.03611755 C228.16643905 19.94394533 231.21437769 20.74418722 235.39076233 24.38768005 C237.98969277 28.02435677 238.76719438 30.51128105 238.77844238 34.95980835 C238.79329933 36.6231144 238.79329933 36.6231144 238.80845642 38.32002258 C238.80395477 39.52691742 238.79945313 40.73381226 238.79481506 41.97727966 C238.80510994 43.8951252 238.80510994 43.8951252 238.81561279 45.85171509 C238.83353482 49.35178316 238.83237768 52.85160039 238.82667041 56.35170054 C238.82357705 59.27663554 238.82967265 62.20152245 238.83570915 65.1264506 C238.8497497 72.02826514 238.84819714 78.92995588 238.83680725 85.83177185 C238.82532698 92.94542929 238.83940094 100.05870969 238.86620373 107.17231745 C238.88837518 113.28628882 238.89499486 119.40014196 238.88912731 125.51415068 C238.88575988 129.16294705 238.88815825 132.81150175 238.90537834 136.46026421 C238.92374733 140.52998023 238.9096457 144.59896472 238.89247131 148.66868591 C238.90213928 149.87355652 238.91180725 151.07842712 238.92176819 152.31980896 C238.86761792 158.44117432 238.82905287 162.73260658 234.39076233 167.38768005 C229.88886155 170.88818759 226.0176041 170.81494456 220.55374146 170.77536011 C219.66348831 170.78074565 218.77323517 170.78613118 217.85600466 170.79167992 C214.87273967 170.80598809 211.88991662 170.79884868 208.90663147 170.79173279 C206.76786949 170.79743485 204.62911056 170.80439847 202.49035645 170.81253052 C196.68047382 170.83049498 190.87074196 170.82928735 185.06083989 170.82358813 C180.21226804 170.82050108 175.36372535 170.82658334 170.51515764 170.83262688 C159.07791598 170.84668127 147.64074901 170.84510316 136.20350647 170.83372498 C124.40019018 170.82224217 112.59710107 170.83632022 100.79381472 170.86312145 C90.66290213 170.88526489 80.53206092 170.89191889 70.40112585 170.88604504 C64.34903776 170.88267111 58.29709531 170.88511958 52.24502754 170.90229607 C46.55438694 170.91774145 40.86408336 170.91383617 35.17345619 170.89499092 C33.08448604 170.89129842 30.99549104 170.89443268 28.90654373 170.90487671 C26.05556094 170.91804282 23.20570109 170.90657777 20.35476685 170.8888855 C19.52742776 170.8984905 18.70008868 170.90809551 17.84767872 170.91799158 C12.56376871 170.85048973 9.60790551 169.84720928 5.39076233 166.38768005 C1.22279485 161.80291583 2.11516876 156.2159737 2.39076233 150.38768005 C1.6663092 150.4340863 0.94185608 150.48049255 0.19544983 150.52830505 C-5.9377963 150.75727958 -9.8815504 150.76079078 -14.60923767 146.38768005 C-17.19895561 142.74391344 -17.98566326 140.2666354 -17.99691772 135.81555176 C-18.00682236 134.70668106 -18.01672699 133.59781036 -18.02693176 132.45533752 C-18.02243011 131.24844269 -18.01792847 130.04154785 -18.01329041 128.79808044 C-18.02015366 127.51951675 -18.02701691 126.24095306 -18.03408813 124.92364502 C-18.05201016 121.42357695 -18.05085303 117.92375971 -18.04514575 114.42365956 C-18.04205239 111.49872457 -18.04814799 108.57383766 -18.0541845 105.64890951 C-18.06822505 98.74709497 -18.06667248 91.84540422 -18.05528259 84.94358826 C-18.04380232 77.82993081 -18.05787628 70.71665042 -18.08467907 63.60304266 C-18.10685052 57.48907129 -18.1134702 51.37521814 -18.10760266 45.26120943 C-18.10423522 41.61241306 -18.10663359 37.96385836 -18.12385368 34.3150959 C-18.14222267 30.24537988 -18.12812104 26.17639539 -18.11094666 22.10667419 C-18.12061462 20.90180359 -18.13028259 19.69693298 -18.14024353 18.45555115 C-18.08609326 12.33418579 -18.04752821 8.04275352 -13.60923767 3.38768005 C-9.27475227 0.04014795 -5.27767259 -0.03934272 0 0 Z M30.39076233 10.38768005 C27.75076233 15.66768005 25.11076233 20.94768005 22.39076233 26.38768005 C13.98652019 37.07307363 4.82034677 43.12900971 -7.60923767 48.38768005 C-7.60923767 55.64768005 -7.60923767 62.90768005 -7.60923767 70.38768005 C-1.33923767 70.71768005 4.93076233 71.04768005 11.39076233 71.38768005 C11.39076233 74.02768005 11.39076233 76.66768005 11.39076233 79.38768005 C1.98576233 79.88268005 1.98576233 79.88268005 -7.60923767 80.38768005 C-7.60923767 87.64768005 -7.60923767 94.90768005 -7.60923767 102.38768005 C-5.17548767 103.52205505 -2.74173767 104.65643005 -0.23423767 105.82518005 C15.57424384 113.5605644 23.11948847 124.39087756 30.39076233 140.38768005 C74.61076233 140.38768005 118.83076233 140.38768005 164.39076233 140.38768005 C167.03076233 135.10768005 169.67076233 129.82768005 172.39076233 124.38768005 C180.79500447 113.70228648 189.96117789 107.64635039 202.39076233 102.38768005 C202.39076233 95.12768005 202.39076233 87.86768005 202.39076233 80.38768005 C196.12076233 80.05768005 189.85076233 79.72768005 183.39076233 79.38768005 C183.39076233 76.74768005 183.39076233 74.10768005 183.39076233 71.38768005 C189.66076233 71.05768005 195.93076233 70.72768005 202.39076233 70.38768005 C202.39076233 63.12768005 202.39076233 55.86768005 202.39076233 48.38768005 C199.95701233 47.25330505 197.52326233 46.11893005 195.01576233 44.95018005 C179.20728082 37.21479571 171.66203619 26.38448254 164.39076233 10.38768005 C120.17076233 10.38768005 75.95076233 10.38768005 30.39076233 10.38768005 Z " fill="#000000" transform="translate(17.609237670898438,42.61231994628906)"/>
<path d="M0 0 C13.1407013 9.16105862 22.08137303 21.86234687 25.0625 37.75 C26.86399623 52.61050566 23.61125735 66.93530398 14.99609375 79.29296875 C5.42309046 91.45745172 -6.5768954 99.06268926 -21.9375 101.75 C-37.45560936 103.423378 -51.13697926 99.88571412 -63.9375 90.75 C-75.68695575 81.03734102 -83.50966223 67.99108638 -85.16064453 52.68066406 C-86.31382493 36.82533728 -82.10069864 22.64151291 -71.87109375 10.24609375 C-63.73483106 1.64407005 -54.22566694 -3.8470842 -42.9375 -7.25 C-42.33292969 -7.44078125 -41.72835937 -7.6315625 -41.10546875 -7.828125 C-26.84852629 -10.60244894 -12.34485175 -7.36570431 0 0 Z " fill="#3ACA90" transform="translate(144.9375,71.25)"/>
<path d="M0 0 C2.10353495 -0.0810206 4.20795952 -0.13919907 6.3125 -0.1875 C7.48425781 -0.22230469 8.65601563 -0.25710937 9.86328125 -0.29296875 C13 0 13 0 14.67223549 1.20280457 C16.43994425 3.59548647 16.37726039 5.08622086 16.38095093 8.0480957 C16.3894104 9.09123932 16.39786987 10.13438293 16.40658569 11.20913696 C16.39747665 12.92512589 16.39747665 12.92512589 16.38818359 14.67578125 C16.39606903 16.48337418 16.39606903 16.48337418 16.40411377 18.32748413 C16.41506612 21.63338545 16.41248391 24.93872458 16.40297651 28.24459457 C16.39538639 31.7025402 16.40242372 35.16046164 16.40713501 38.6184082 C16.41259447 44.42566242 16.40539603 50.23280221 16.39111328 56.04003906 C16.3747863 62.75603944 16.38007468 69.4717666 16.3965925 76.18776035 C16.41020202 81.9517504 16.41212967 87.71565816 16.40427649 93.47965908 C16.39959699 96.92322201 16.39898259 100.36665648 16.40888596 103.81021118 C16.4191528 107.64832193 16.40492688 111.48612611 16.38818359 115.32421875 C16.39425629 116.46821136 16.40032898 117.61220398 16.40658569 118.79086304 C16.39389648 120.35557846 16.39389648 120.35557846 16.38095093 121.9519043 C16.37981985 122.8596611 16.37868877 123.76741791 16.37752342 124.7026825 C16 127 16 127 14.99575233 128.79169655 C11.76929751 130.74511353 8.34913085 130.41134541 4.68701172 130.38095093 C3.82901915 130.3856309 2.97102657 130.39031087 2.08703423 130.39513266 C-0.79890349 130.40713506 -3.68437094 130.397605 -6.5703125 130.38818359 C-8.63482949 130.39224696 -10.69934431 130.39758752 -12.76385498 130.40411377 C-18.37945612 130.41782104 -23.9948924 130.41247463 -29.61049652 130.40297651 C-35.47877965 130.39539757 -41.34704837 130.4024206 -47.21533203 130.40713501 C-57.07131493 130.41259772 -66.92723045 130.40538743 -76.78320312 130.39111328 C-88.18888053 130.37478582 -99.59439707 130.38007396 -111.00007057 130.3965925 C-120.78100273 130.41019268 -130.56188638 130.41213421 -140.34282494 130.40427649 C-146.1896974 130.3995919 -152.03649417 130.39899668 -157.88336182 130.40888596 C-163.37940272 130.417532 -168.87523561 130.41157698 -174.37125397 130.39420319 C-176.39213973 130.39022569 -178.41304291 130.39139384 -180.43392181 130.39799118 C-183.18519068 130.40614697 -185.93578616 130.39595765 -188.68701172 130.38095093 C-189.49332598 130.38764309 -190.29964024 130.39433526 -191.13038826 130.40123022 C-194.05108934 130.37016955 -196.41509123 130.31461871 -199.01956177 128.91369057 C-200.52877599 125.96789661 -200.18358288 123.24329763 -200 120 C-198.55632632 119.99641747 -198.55632632 119.99641747 -197.08348751 119.99276257 C-173.66432518 119.93396644 -150.24526571 119.85808286 -126.8262167 119.76428509 C-115.50093453 119.71932071 -104.17568385 119.67990747 -92.8503418 119.65356445 C-82.97910668 119.63058964 -73.10797117 119.59719729 -63.23681504 119.55129844 C-58.01017628 119.52735936 -52.78363622 119.50863503 -47.55694389 119.50238609 C-42.63625564 119.49633841 -37.71581992 119.47634975 -32.79522514 119.44572449 C-30.99050653 119.43693924 -29.18575491 119.43322269 -27.38101578 119.43499184 C-24.91338233 119.43664687 -22.44651664 119.41992616 -19.97898865 119.39872742 C-19.26788026 119.40357499 -18.55677187 119.40842257 -17.82411474 119.41341704 C-12.78089946 119.34210985 -9.39358576 118.3189123 -5 116 C-0.48480675 110.34052856 -0.41839783 105.25497063 -0.45410156 98.19946289 C-0.43859505 96.60322083 -0.43859505 96.60322083 -0.42277527 94.97473145 C-0.39338899 91.47388449 -0.39184892 87.97361675 -0.390625 84.47265625 C-0.37564062 82.03884277 -0.35891293 79.60503946 -0.34051514 77.17124939 C-0.29685891 70.77785775 -0.27684612 64.38460329 -0.26177979 57.99108887 C-0.24220269 51.46207575 -0.20023324 44.93321064 -0.16015625 38.40429688 C-0.08487265 25.60291477 -0.03380895 12.8015554 0 0 Z " fill="#3ACC91" transform="translate(230,73)"/>
<path d="M0 0 C13.1407013 9.16105862 22.08137303 21.86234687 25.0625 37.75 C26.86399623 52.61050566 23.61125735 66.93530398 14.99609375 79.29296875 C5.42309046 91.45745172 -6.5768954 99.06268926 -21.9375 101.75 C-37.45560936 103.423378 -51.13697926 99.88571412 -63.9375 90.75 C-75.68695575 81.03734102 -83.50966223 67.99108638 -85.16064453 52.68066406 C-86.31382493 36.82533728 -82.10069864 22.64151291 -71.87109375 10.24609375 C-63.73483106 1.64407005 -54.22566694 -3.8470842 -42.9375 -7.25 C-42.33292969 -7.44078125 -41.72835937 -7.6315625 -41.10546875 -7.828125 C-26.84852629 -10.60244894 -12.34485175 -7.36570431 0 0 Z M-64.8125 17.625 C-73.17721611 27.85522834 -75.76034094 38.79025514 -74.9375 51.75 C-73.32043144 64.44398823 -66.88266549 75.00528152 -57.140625 83.1484375 C-46.6898981 90.74559712 -35.65478559 92.85585092 -22.9375 91.75 C-12.11705481 89.43883695 -0.57004955 83.89216289 6.0625 74.75 C13.43316673 62.22940346 17.18640365 51.06042669 14.4140625 36.296875 C11.01607805 24.0408969 3.81858012 14.34226211 -6.9375 7.47265625 C-8.90435346 6.4218172 -10.86020845 5.55979162 -12.9375 4.75 C-13.67355469 4.45222656 -14.40960938 4.15445313 -15.16796875 3.84765625 C-33.63834115 -2.69079532 -51.80300195 3.77437061 -64.8125 17.625 Z " fill="#020503" transform="translate(144.9375,71.25)"/>
<path d="M0 0 C1.60725635 3.21451269 1.05748185 6.43612536 1 10 C1.7425 10.2475 2.485 10.495 3.25 10.75 C6.30198066 12.13726393 7.9994481 13.30694937 10 16 C9.83849795 19.39154295 9.41703243 20.58296757 7 23 C3.19090105 22.67582137 1.21627837 22.14418558 -2 20 C-5.12521833 19.83300768 -5.12521833 19.83300768 -8 20 C-8 22.64 -8 25.28 -8 28 C-7.02160156 28.14695312 -7.02160156 28.14695312 -6.0234375 28.296875 C-0.51346698 29.23958382 3.68537751 30.21155098 8 34 C10.92578285 38.38867428 11.63073449 41.77391419 11 47 C9.58252294 51.13049768 8.33193359 54.3023205 4.375 56.375 C1.33705636 58.45359302 1.38488603 59.65110986 0.6875 63.1875 C0.43782865 64.78860345 0.2021062 66.39219991 0 68 C-5.37313433 69.31343284 -5.37313433 69.31343284 -7.875 68.0625 C-9.67836628 64.75632849 -9.18323695 61.72581793 -9 58 C-9.721875 57.773125 -10.44375 57.54625 -11.1875 57.3125 C-14.6332855 55.70446677 -16.60259499 53.9453833 -19 51 C-19.4375 48.3125 -19.4375 48.3125 -19 46 C-17 44 -17 44 -14.1875 43.625 C-10.29355637 44.08311101 -9.00862483 45.59310014 -6 48 C-2.79019864 48.33513594 -2.79019864 48.33513594 0 48 C0 45.36 0 42.72 0 40 C-0.97839844 39.85304688 -0.97839844 39.85304688 -1.9765625 39.703125 C-7.47066087 38.76313177 -11.74504599 37.83983654 -16 34 C-18.77635272 29.18765528 -20.15006481 24.48161731 -19 19 C-17.12282648 15.0602531 -15.08720004 12.55568002 -11.1875 10.5625 C-10.1046875 10.2840625 -10.1046875 10.2840625 -9 10 C-9.061875 8.741875 -9.12375 7.48375 -9.1875 6.1875 C-9.17351956 3.55917819 -9.14785536 2.27106816 -7.875 -0.0625 C-5.009198 -1.495401 -3.00451848 -0.84910305 0 0 Z " fill="#010403" transform="translate(119,84)"/>
<path d="M0 0 C9.94085002 2.4852125 17.00028856 8.80868412 23 17 C27 23.71005917 27 23.71005917 27 27 C23.06263877 27.08696177 19.12552372 27.14037835 15.1875 27.1875 C14.06794922 27.21263672 12.94839844 27.23777344 11.79492188 27.26367188 C10.72177734 27.27333984 9.64863281 27.28300781 8.54296875 27.29296875 C7.55321045 27.3086792 6.56345215 27.32438965 5.54370117 27.34057617 C3 27 3 27 1.171875 25.828125 C-0.45788033 23.28570668 -0.34067893 21.46277286 -0.29296875 18.45703125 C-0.28330078 17.38388672 -0.27363281 16.31074219 -0.26367188 15.20507812 C-0.23853516 14.08552734 -0.21339844 12.96597656 -0.1875 11.8125 C-0.16719727 10.11577148 -0.16719727 10.11577148 -0.14648438 8.38476562 C-0.11109958 5.58936683 -0.06172948 2.79492108 0 0 Z " fill="#3ACA90" transform="translate(10,156)"/>
<path d="M0 0 C0.08696177 3.93736123 0.14037835 7.87447628 0.1875 11.8125 C0.21263672 12.93205078 0.23777344 14.05160156 0.26367188 15.20507812 C0.27333984 16.27822266 0.28300781 17.35136719 0.29296875 18.45703125 C0.3086792 19.44678955 0.32438965 20.43654785 0.34057617 21.45629883 C0 24 0 24 -1.171875 25.828125 C-3.71429332 27.45788033 -5.53722714 27.34067893 -8.54296875 27.29296875 C-10.15268555 27.2784668 -10.15268555 27.2784668 -11.79492188 27.26367188 C-12.91447266 27.23853516 -14.03402344 27.21339844 -15.1875 27.1875 C-16.31865234 27.17396484 -17.44980469 27.16042969 -18.61523438 27.14648438 C-21.41063317 27.11109958 -24.20507892 27.06172948 -27 27 C-24.5147875 17.05914998 -18.19131588 9.99971144 -10 4 C-3.28994083 0 -3.28994083 0 0 0 Z " fill="#3ACA90" transform="translate(220,156)"/>
<path d="M0 0 C3.93736123 -0.08696177 7.87447628 -0.14037835 11.8125 -0.1875 C13.49182617 -0.22520508 13.49182617 -0.22520508 15.20507812 -0.26367188 C16.27822266 -0.27333984 17.35136719 -0.28300781 18.45703125 -0.29296875 C19.9416687 -0.31653442 19.9416687 -0.31653442 21.45629883 -0.34057617 C24 0 24 0 25.828125 1.171875 C27.45788033 3.71429332 27.34067893 5.53722714 27.29296875 8.54296875 C27.28330078 9.61611328 27.27363281 10.68925781 27.26367188 11.79492188 C27.23853516 12.91447266 27.21339844 14.03402344 27.1875 15.1875 C27.16719727 16.88422852 27.16719727 16.88422852 27.14648438 18.61523438 C27.11109958 21.41063317 27.06172948 24.20507892 27 27 C16.49682484 23.76478129 8.33481084 17.14327983 2.61328125 7.71484375 C0 2.6625 0 2.6625 0 0 Z " fill="#3ACA90" transform="translate(193,53)"/>
<path d="M0 0 C1.6097168 0.01450195 1.6097168 0.01450195 3.25195312 0.02929688 C4.37150391 0.05443359 5.49105469 0.07957031 6.64453125 0.10546875 C7.77568359 0.11900391 8.90683594 0.13253906 10.07226562 0.14648438 C12.86766442 0.18186917 15.66211017 0.23123927 18.45703125 0.29296875 C15.22181254 10.79614391 8.60031108 18.95815791 -0.828125 24.6796875 C-5.88046875 27.29296875 -5.88046875 27.29296875 -8.54296875 27.29296875 C-8.62993052 23.35560752 -8.6833471 19.41849247 -8.73046875 15.48046875 C-8.75560547 14.36091797 -8.78074219 13.24136719 -8.80664062 12.08789062 C-8.81630859 11.01474609 -8.82597656 9.94160156 -8.8359375 8.8359375 C-8.85164795 7.8461792 -8.8673584 6.8564209 -8.88354492 5.83666992 C-8.54296875 3.29296875 -8.54296875 3.29296875 -7.37109375 1.46484375 C-4.82867543 -0.16491158 -3.00574161 -0.04771018 0 0 Z " fill="#3ACA90" transform="translate(18.54296875,52.70703125)"/>
<path d="M0 0 C1.32278481 5.41139241 1.32278481 5.41139241 -0.0625 7.9375 C-2.91093248 9.49954362 -4.93504903 8.74921024 -8 8 C-9.32278481 2.58860759 -9.32278481 2.58860759 -7.9375 0.0625 C-5.08906752 -1.49954362 -3.06495097 -0.74921024 0 0 Z " fill="#070C06" transform="translate(189,114)"/>
<path d="M0 0 C1.32278481 5.41139241 1.32278481 5.41139241 -0.0625 7.9375 C-2.91093248 9.49954362 -4.93504903 8.74921024 -8 8 C-9.32278481 2.58860759 -9.32278481 2.58860759 -7.9375 0.0625 C-5.08906752 -1.49954362 -3.06495097 -0.74921024 0 0 Z " fill="#070C06" transform="translate(49,114)"/>
</svg>
