<?xml version="1.0" encoding="UTF-8"?>
<svg version="1.1" xmlns="http://www.w3.org/2000/svg" width="256" height="256">
<path d="M0 0 C1.53709373 -0.01485695 1.53709373 -0.01485695 3.10523987 -0.03001404 C4.21862732 -0.02551239 5.33201477 -0.02101074 6.47914124 -0.01637268 C7.66016922 -0.02323593 8.8411972 -0.03009918 10.05801392 -0.03717041 C13.28953652 -0.05231862 16.52069688 -0.05393703 19.75223994 -0.04822803 C22.45349689 -0.04513335 25.15470183 -0.05123173 27.85595137 -0.05726677 C34.23039216 -0.07130444 40.60469891 -0.06975721 46.97914124 -0.05836487 C53.54749475 -0.04688512 60.1154399 -0.06095822 66.6837396 -0.08776134 C72.33062577 -0.10993866 77.97738394 -0.11655116 83.62431055 -0.11068493 C86.99365779 -0.10731885 90.36274329 -0.10970672 93.73205376 -0.12693596 C97.49050696 -0.14180471 101.24806004 -0.13119756 105.00648499 -0.11402893 C106.11784821 -0.1236969 107.22921143 -0.13336487 108.37425232 -0.14332581 C117.3311004 -0.05760447 121.46881946 2.80993487 127.77137756 9.07688904 C128.70544434 10.0014238 129.63951111 10.92595856 130.60188293 11.87850952 C131.6030468 12.87993476 132.60387296 13.88169771 133.60438538 14.8837738 C134.64455258 15.92004891 135.6849412 16.95610181 136.72554016 17.99194336 C138.89738909 20.15635839 141.0653585 22.32457145 143.23085022 24.49534607 C146.00200363 27.27230902 148.78439347 30.03770331 151.57000351 32.80015469 C153.71824754 34.93365308 155.85951002 37.07405298 157.9988327 39.21649361 C159.02192375 40.23907248 160.04737012 41.25930063 161.07523346 42.27708244 C162.51106931 43.70054785 163.93638117 45.13460489 165.36122131 46.56907654 C166.17363281 47.38085861 166.98604431 48.19264069 167.82307434 49.02902222 C171.76992001 53.72015779 172.10053122 58.20538595 172.07493591 64.15498352 C172.07946703 64.93019163 172.08399814 65.70539974 172.08866656 66.50409901 C172.10131245 69.09800327 172.09969008 71.69169762 172.09803772 74.28562927 C172.10402282 76.14690928 172.11082833 78.0081868 172.11839294 79.86946106 C172.13606129 84.92320609 172.14074866 89.9768834 172.14202452 95.03065634 C172.14344612 98.1884707 172.14771588 101.34626783 172.15301895 104.50407791 C172.17152149 115.52176761 172.17968922 126.53940892 172.17811584 137.55711365 C172.17691416 147.82557549 172.19802132 158.09382723 172.22960317 168.3622359 C172.25575714 177.18021759 172.26648352 185.99813061 172.26520503 194.81615078 C172.26469516 200.08189919 172.27039188 205.34746086 172.29156113 210.61317062 C172.3109288 215.56593748 172.31107798 220.51833917 172.29652786 225.47111893 C172.29443689 227.28715295 172.29915781 229.10320974 172.31124878 230.91920471 C172.3267068 233.40203459 172.31739027 235.88360614 172.30198669 238.3664093 C172.31227382 239.08188899 172.32256095 239.79736868 172.3331598 240.53452957 C172.25841817 246.00102806 170.92345567 249.03636783 167.80751038 253.38768005 C163.93970317 256.58374962 160.79446509 256.76408699 155.86195374 256.76863098 C155.17517264 256.77331095 154.48839155 256.77799093 153.78079891 256.78281271 C151.4861192 256.79475134 149.19203797 256.78531033 146.89735413 256.77586365 C145.2495743 256.77992987 143.6017972 256.78527203 141.95402527 256.79179382 C137.4829858 256.80546728 133.01215408 256.80016866 128.54111099 256.79065657 C123.86159455 256.78306014 119.18209587 256.79010554 114.50257874 256.79481506 C106.6442292 256.80027266 98.78596426 256.79308089 90.92762756 256.77879333 C81.84293431 256.76246681 72.75844305 256.76775532 63.67375469 256.78427255 C55.87319809 256.7978873 48.07270229 256.79980713 40.27213764 256.79195654 C35.61347455 256.78727997 30.95490638 256.78665477 26.29624939 256.79656601 C21.91641156 256.80523322 17.5368341 256.79921829 13.15702438 256.78188324 C11.54979255 256.77791708 9.94253881 256.77905467 8.3353157 256.78567123 C6.14093718 256.79387197 3.94739245 256.7835839 1.75306702 256.76863098 C-0.08861305 256.76693437 -0.08861305 256.76693437 -1.96749878 256.76520348 C-5.64195104 256.33506527 -7.34354798 255.74183454 -10.19248962 253.38768005 C-14.32045025 247.81701899 -14.7684226 243.43954626 -14.70042419 236.63352966 C-14.70666416 235.66876929 -14.71290412 234.70400892 -14.71933317 233.71001339 C-14.73525176 230.48643283 -14.722663 227.2636096 -14.71006775 224.0400238 C-14.71548935 221.72525085 -14.72261222 219.41048135 -14.73130798 217.09571838 C-14.74953953 210.81478537 -14.74247429 204.53411524 -14.72979164 198.25317764 C-14.71966322 191.67943362 -14.72905689 185.10571207 -14.7353363 178.53196716 C-14.74387867 166.78555627 -14.7306501 155.03925594 -14.71029896 143.2928642 C-14.69242863 132.64895454 -14.69553296 122.00521938 -14.713974 111.36131287 C-14.73539449 98.99197171 -14.74334047 86.62274178 -14.73152494 74.25338459 C-14.72528944 67.70890424 -14.72445611 61.16454404 -14.7376709 54.62007141 C-14.74922697 48.46729952 -14.74120758 42.31485713 -14.71809387 36.16212082 C-14.71280556 33.90425539 -14.71432261 31.64636223 -14.72314453 29.38850784 C-14.73407831 26.30590788 -14.72036167 23.22436321 -14.70042419 20.14183044 C-14.70934708 19.24873137 -14.71826997 18.35563231 -14.72746325 17.43546963 C-14.65427733 11.60008298 -13.69635851 8.11613262 -10.19248962 3.38768005 C-6.78913887 0.70303316 -4.29040374 0.01174981 0 0 Z " fill="#ECF0F0" transform="translate(49.19248962402344,-0.3876800537109375)"/>
<path d="M0 0 C1.53709373 -0.01485695 1.53709373 -0.01485695 3.10523987 -0.03001404 C4.21862732 -0.02551239 5.33201477 -0.02101074 6.47914124 -0.01637268 C7.66016922 -0.02323593 8.8411972 -0.03009918 10.05801392 -0.03717041 C13.28953652 -0.05231862 16.52069688 -0.05393703 19.75223994 -0.04822803 C22.45349689 -0.04513335 25.15470183 -0.05123173 27.85595137 -0.05726677 C34.23039216 -0.07130444 40.60469891 -0.06975721 46.97914124 -0.05836487 C53.54749475 -0.04688512 60.1154399 -0.06095822 66.6837396 -0.08776134 C72.33062577 -0.10993866 77.97738394 -0.11655116 83.62431055 -0.11068493 C86.99365779 -0.10731885 90.36274329 -0.10970672 93.73205376 -0.12693596 C97.49050696 -0.14180471 101.24806004 -0.13119756 105.00648499 -0.11402893 C106.11784821 -0.1236969 107.22921143 -0.13336487 108.37425232 -0.14332581 C117.3311004 -0.05760447 121.46881946 2.80993487 127.77137756 9.07688904 C128.70544434 10.0014238 129.63951111 10.92595856 130.60188293 11.87850952 C131.6030468 12.87993476 132.60387296 13.88169771 133.60438538 14.8837738 C134.64455258 15.92004891 135.6849412 16.95610181 136.72554016 17.99194336 C138.89738909 20.15635839 141.0653585 22.32457145 143.23085022 24.49534607 C146.00200363 27.27230902 148.78439347 30.03770331 151.57000351 32.80015469 C153.71824754 34.93365308 155.85951002 37.07405298 157.9988327 39.21649361 C159.02192375 40.23907248 160.04737012 41.25930063 161.07523346 42.27708244 C162.51106931 43.70054785 163.93638117 45.13460489 165.36122131 46.56907654 C166.17363281 47.38085861 166.98604431 48.19264069 167.82307434 49.02902222 C171.76992001 53.72015779 172.10053122 58.20538595 172.07493591 64.15498352 C172.07946703 64.93019163 172.08399814 65.70539974 172.08866656 66.50409901 C172.10131245 69.09800327 172.09969008 71.69169762 172.09803772 74.28562927 C172.10402282 76.14690928 172.11082833 78.0081868 172.11839294 79.86946106 C172.13606129 84.92320609 172.14074866 89.9768834 172.14202452 95.03065634 C172.14344612 98.1884707 172.14771588 101.34626783 172.15301895 104.50407791 C172.17152149 115.52176761 172.17968922 126.53940892 172.17811584 137.55711365 C172.17691416 147.82557549 172.19802132 158.09382723 172.22960317 168.3622359 C172.25575714 177.18021759 172.26648352 185.99813061 172.26520503 194.81615078 C172.26469516 200.08189919 172.27039188 205.34746086 172.29156113 210.61317062 C172.3109288 215.56593748 172.31107798 220.51833917 172.29652786 225.47111893 C172.29443689 227.28715295 172.29915781 229.10320974 172.31124878 230.91920471 C172.3267068 233.40203459 172.31739027 235.88360614 172.30198669 238.3664093 C172.31227382 239.08188899 172.32256095 239.79736868 172.3331598 240.53452957 C172.25841817 246.00102806 170.92345567 249.03636783 167.80751038 253.38768005 C163.93970317 256.58374962 160.79446509 256.76408699 155.86195374 256.76863098 C155.17517264 256.77331095 154.48839155 256.77799093 153.78079891 256.78281271 C151.4861192 256.79475134 149.19203797 256.78531033 146.89735413 256.77586365 C145.2495743 256.77992987 143.6017972 256.78527203 141.95402527 256.79179382 C137.4829858 256.80546728 133.01215408 256.80016866 128.54111099 256.79065657 C123.86159455 256.78306014 119.18209587 256.79010554 114.50257874 256.79481506 C106.6442292 256.80027266 98.78596426 256.79308089 90.92762756 256.77879333 C81.84293431 256.76246681 72.75844305 256.76775532 63.67375469 256.78427255 C55.87319809 256.7978873 48.07270229 256.79980713 40.27213764 256.79195654 C35.61347455 256.78727997 30.95490638 256.78665477 26.29624939 256.79656601 C21.91641156 256.80523322 17.5368341 256.79921829 13.15702438 256.78188324 C11.54979255 256.77791708 9.94253881 256.77905467 8.3353157 256.78567123 C6.14093718 256.79387197 3.94739245 256.7835839 1.75306702 256.76863098 C-0.08861305 256.76693437 -0.08861305 256.76693437 -1.96749878 256.76520348 C-5.64195104 256.33506527 -7.34354798 255.74183454 -10.19248962 253.38768005 C-14.32045025 247.81701899 -14.7684226 243.43954626 -14.70042419 236.63352966 C-14.70666416 235.66876929 -14.71290412 234.70400892 -14.71933317 233.71001339 C-14.73525176 230.48643283 -14.722663 227.2636096 -14.71006775 224.0400238 C-14.71548935 221.72525085 -14.72261222 219.41048135 -14.73130798 217.09571838 C-14.74953953 210.81478537 -14.74247429 204.53411524 -14.72979164 198.25317764 C-14.71966322 191.67943362 -14.72905689 185.10571207 -14.7353363 178.53196716 C-14.74387867 166.78555627 -14.7306501 155.03925594 -14.71029896 143.2928642 C-14.69242863 132.64895454 -14.69553296 122.00521938 -14.713974 111.36131287 C-14.73539449 98.99197171 -14.74334047 86.62274178 -14.73152494 74.25338459 C-14.72528944 67.70890424 -14.72445611 61.16454404 -14.7376709 54.62007141 C-14.74922697 48.46729952 -14.74120758 42.31485713 -14.71809387 36.16212082 C-14.71280556 33.90425539 -14.71432261 31.64636223 -14.72314453 29.38850784 C-14.73407831 26.30590788 -14.72036167 23.22436321 -14.70042419 20.14183044 C-14.70934708 19.24873137 -14.71826997 18.35563231 -14.72746325 17.43546963 C-14.65427733 11.60008298 -13.69635851 8.11613262 -10.19248962 3.38768005 C-6.78913887 0.70303316 -4.29040374 0.01174981 0 0 Z M-4.19248962 13.38768005 C-4.48768757 16.47847183 -4.59684554 19.36780382 -4.57344055 22.45994568 C-4.57812052 23.3996093 -4.5828005 24.33927292 -4.58762228 25.30741119 C-4.59962973 28.46972589 -4.59009256 31.63161181 -4.58067322 34.79393005 C-4.58473636 37.05548863 -4.59007678 39.31704522 -4.59660339 41.57859802 C-4.61031336 47.73136739 -4.60496313 53.88398633 -4.59546614 60.03675842 C-4.58788859 66.46558549 -4.59490984 72.89439938 -4.59962463 79.32322693 C-4.60543802 90.8130663 -4.59609535 102.30282211 -4.58084662 113.79264736 C-4.56744295 124.21498394 -4.5697709 134.63722028 -4.58360291 145.05955505 C-4.59964959 157.15633907 -4.60563771 169.25304735 -4.59676611 181.34984589 C-4.59208088 187.75562956 -4.59148806 194.16134414 -4.60137558 200.56712341 C-4.61001992 206.58845416 -4.60406969 212.60959499 -4.58669281 218.63090515 C-4.58271441 220.8452981 -4.58388499 223.05970693 -4.5904808 225.27409363 C-4.59863293 228.28808553 -4.58845147 231.30146213 -4.57344055 234.31541443 C-4.58013272 235.19954765 -4.58682488 236.08368088 -4.59371984 236.99460602 C-4.69025023 241.34125939 -4.69025023 241.34125939 -2.84761584 245.11113226 C-0.26549929 247.1026391 2.00441463 246.76552872 5.2223053 246.76863098 C5.87612025 246.77331095 6.52993521 246.77799093 7.20356274 246.78281271 C9.39857338 246.79479709 11.59296364 246.78529259 13.78797913 246.77586365 C15.35989243 246.77992784 16.93180287 246.78526886 18.50370789 246.79179382 C22.77639368 246.80549143 27.0488626 246.80015876 31.32155228 246.79065657 C35.78847599 246.7830726 40.25538087 246.79010206 44.7223053 246.79481506 C52.22437379 246.80027631 59.72635375 246.79307135 67.22840881 246.77879333 C75.90752476 246.7624661 84.5864293 246.76775435 93.26554012 246.78427255 C100.71103954 246.79787694 108.15647524 246.79981222 115.60198307 246.79195654 C120.05158009 246.78727425 124.50107767 246.7866704 128.95066833 246.79656601 C133.13349196 246.8052182 137.31604246 246.79924597 141.49883652 246.78188324 C143.03595399 246.77790901 144.57309436 246.7790684 146.11020279 246.78567123 C148.2046863 246.7938403 150.29828847 246.78362278 152.39271545 246.76863098 C153.56594864 246.7674999 154.73918182 246.76636883 155.94796753 246.76520348 C158.74689322 246.57837551 158.74689322 246.57837551 160.68588734 245.31825733 C162.40139568 242.36546365 162.20974065 239.43640676 162.16827393 236.11749268 C162.1708372 235.37172287 162.17340047 234.62595307 162.17604142 233.85758418 C162.18099406 231.35152902 162.16446245 228.84607255 162.14808655 226.34007263 C162.14724059 224.54654962 162.1477148 222.75302558 162.14941406 220.95950317 C162.15027668 216.08371272 162.13260789 211.20814257 162.11169219 206.33240342 C162.0929697 201.23948669 162.09117845 196.14656522 162.08761597 191.05361938 C162.07828247 181.40636096 162.05365104 171.75920423 162.0235675 162.11199063 C161.99006407 151.13028216 161.97354769 140.14856891 161.95848119 129.16682208 C161.92710262 106.5737183 161.87431678 83.98070487 161.80751038 61.38768005 C161.25485001 61.38625504 160.70218964 61.38483002 160.13278198 61.38336182 C154.37338316 61.36365418 148.61504267 61.30935865 142.85609436 61.23509216 C140.70773414 61.21191483 138.55926033 61.19751708 136.41078186 61.19212341 C133.31964864 61.18283215 130.23030125 61.14183654 127.13954163 61.0947113 C126.18102798 61.09864395 125.22251434 61.1025766 124.23495483 61.10662842 C119.62544402 61.00608492 117.48020548 60.90185583 113.72425842 58.0309906 C111.29800109 54.68503618 110.68686464 52.21981857 110.60218811 48.19163513 C110.57227028 46.93066765 110.57227028 46.93066765 110.54174805 45.64422607 C110.52503555 44.7410112 110.50832306 43.83779633 110.49110413 42.9072113 C110.47032303 41.97922226 110.44954193 41.05123322 110.4281311 40.09512329 C110.36273714 37.13021765 110.30379775 34.16522333 110.24501038 31.20018005 C110.20181551 29.19040525 110.1582009 27.18063942 110.114151 25.17088318 C110.00706611 20.24323973 109.90576993 15.31550706 109.80751038 10.38768005 C95.38675597 10.317631 80.96602791 10.26491144 66.54513836 10.23224354 C59.84941195 10.21656703 53.15380322 10.19566499 46.45814514 10.16136169 C40.00020026 10.12883928 33.54236529 10.110842 27.08434486 10.10304832 C24.61669496 10.09749202 22.14905128 10.0866424 19.68144798 10.07048988 C16.23334481 10.04881057 12.78569968 10.04570919 9.33753967 10.04710388 C8.31039352 10.03631805 7.28324738 10.02553223 6.22497559 10.01441956 C5.28688049 10.01854355 4.3487854 10.02266754 3.38226318 10.0269165 C2.56647639 10.02415112 1.7506896 10.02138575 0.910182 10.01853657 C-1.76054195 10.4874069 -2.5050946 11.29812832 -4.19248962 13.38768005 Z " fill="#000000" transform="translate(49.19248962402344,-0.3876800537109375)"/>
<path d="M0 0 C1.09289589 -0.00503792 1.09289589 -0.00503792 2.20787048 -0.01017761 C4.6223215 -0.01969625 7.03670325 -0.02163105 9.45117188 -0.02270508 C11.12504099 -0.02591657 12.79890981 -0.02928056 14.47277832 -0.03279114 C17.98332368 -0.03878437 21.49384441 -0.04063079 25.00439453 -0.04003906 C29.51063662 -0.03993733 34.01672154 -0.05360053 38.52292633 -0.07081127 C41.98008963 -0.08190871 45.43721463 -0.08395898 48.89439392 -0.08342934 C50.55623416 -0.08461244 52.21807529 -0.08905262 53.87989807 -0.0967617 C56.19999333 -0.10651807 58.51974338 -0.10370123 60.83984375 -0.09765625 C61.5308165 -0.10327576 62.22178925 -0.10889526 62.93370056 -0.11468506 C67.69160466 -0.08305354 67.69160466 -0.08305354 69.91992188 2.14526367 C70.26747416 4.85617147 70.36758579 6.46507592 68.84326172 8.78115845 C65.90617994 10.86424772 63.40153696 10.52689171 59.83398438 10.53344727 C58.75790924 10.5413327 58.75790924 10.5413327 57.66009521 10.54937744 C55.28814945 10.56258413 52.91687449 10.55383744 50.54492188 10.54370117 C48.89729687 10.54572173 47.24967273 10.54863301 45.60205078 10.55239868 C42.14867642 10.55682292 38.69553481 10.55038789 35.2421875 10.53637695 C30.81329827 10.51928485 26.38495442 10.52912552 21.95608521 10.54709435 C18.55375044 10.55792957 15.15154519 10.55448708 11.74920654 10.54671097 C10.11610856 10.54470823 8.48299885 10.54717083 6.84991455 10.55414963 C4.5682455 10.56176001 2.28746236 10.55016676 0.00585938 10.53344727 C-1.94247803 10.5298671 -1.94247803 10.5298671 -3.93017578 10.5262146 C-7.08007812 10.14526367 -7.08007812 10.14526367 -9.03466797 8.8163147 C-10.08007812 7.14526367 -10.08007812 7.14526367 -9.89257812 4.02026367 C-9.62445313 3.07151367 -9.35632813 2.12276367 -9.08007812 1.14526367 C-6.15299883 -0.31827598 -3.20842934 -0.0021043 0 0 Z " fill="#050505" transform="translate(116.080078125,199.854736328125)"/>
<path d="M0 0 C1.09289589 -0.00503792 1.09289589 -0.00503792 2.20787048 -0.01017761 C4.6223215 -0.01969625 7.03670325 -0.02163105 9.45117188 -0.02270508 C11.12504099 -0.02591657 12.79890981 -0.02928056 14.47277832 -0.03279114 C17.98332368 -0.03878437 21.49384441 -0.04063079 25.00439453 -0.04003906 C29.51063662 -0.03993733 34.01672154 -0.05360053 38.52292633 -0.07081127 C41.98008963 -0.08190871 45.43721463 -0.08395898 48.89439392 -0.08342934 C50.55623416 -0.08461244 52.21807529 -0.08905262 53.87989807 -0.0967617 C56.19999333 -0.10651807 58.51974338 -0.10370123 60.83984375 -0.09765625 C61.5308165 -0.10327576 62.22178925 -0.10889526 62.93370056 -0.11468506 C67.69160466 -0.08305354 67.69160466 -0.08305354 69.91992188 2.14526367 C70.26747416 4.85617147 70.36758579 6.46507592 68.84326172 8.78115845 C65.90617994 10.86424772 63.40153696 10.52689171 59.83398438 10.53344727 C58.75790924 10.5413327 58.75790924 10.5413327 57.66009521 10.54937744 C55.28814945 10.56258413 52.91687449 10.55383744 50.54492188 10.54370117 C48.89729687 10.54572173 47.24967273 10.54863301 45.60205078 10.55239868 C42.14867642 10.55682292 38.69553481 10.55038789 35.2421875 10.53637695 C30.81329827 10.51928485 26.38495442 10.52912552 21.95608521 10.54709435 C18.55375044 10.55792957 15.15154519 10.55448708 11.74920654 10.54671097 C10.11610856 10.54470823 8.48299885 10.54717083 6.84991455 10.55414963 C4.5682455 10.56176001 2.28746236 10.55016676 0.00585938 10.53344727 C-1.94247803 10.5298671 -1.94247803 10.5298671 -3.93017578 10.5262146 C-7.08007812 10.14526367 -7.08007812 10.14526367 -9.03466797 8.8163147 C-10.08007812 7.14526367 -10.08007812 7.14526367 -9.89257812 4.02026367 C-9.62445313 3.07151367 -9.35632813 2.12276367 -9.08007812 1.14526367 C-6.15299883 -0.31827598 -3.20842934 -0.0021043 0 0 Z " fill="#050505" transform="translate(116.080078125,179.854736328125)"/>
<path d="M0 0 C1.07585609 -0.00525696 1.07585609 -0.00525696 2.17344666 -0.01062012 C4.55070601 -0.01944171 6.92766911 -0.01358628 9.30493164 -0.00683594 C10.95398516 -0.00818262 12.6030383 -0.01012317 14.25209045 -0.01263428 C17.71139295 -0.01558624 21.17059229 -0.01128618 24.62988281 -0.00195312 C29.06654304 0.00943257 33.50296108 0.00288806 37.93961239 -0.00909805 C41.34621508 -0.01632235 44.75276029 -0.01402595 48.1593647 -0.00884247 C49.79525341 -0.00750709 51.43114731 -0.00914981 53.06702995 -0.01380157 C55.35342111 -0.0188752 57.63941938 -0.01114463 59.92578125 0 C61.22768906 0.00159119 62.52959686 0.00318237 63.87095642 0.00482178 C67.02758789 0.25878906 67.02758789 0.25878906 70.02758789 2.25878906 C69.77197466 4.60191036 69.43488017 6.93722309 69.02758789 9.25878906 C66.05747199 10.74384701 63.36932631 10.40252981 60.05517578 10.41992188 C58.97931969 10.42736923 58.97931969 10.42736923 57.88172913 10.43496704 C55.50455778 10.4495951 53.12745313 10.45639118 50.75024414 10.46191406 C49.10119118 10.46766433 47.45213824 10.47342208 45.80308533 10.47918701 C42.34381803 10.48969838 38.88457399 10.49554037 35.42529297 10.49902344 C30.98858235 10.50451303 26.55217788 10.52855021 22.11556339 10.55699539 C18.70897009 10.57559977 15.30245091 10.58082616 11.89581108 10.58235931 C10.25990561 10.58539061 8.62400158 10.59343518 6.98814583 10.60654449 C4.70165678 10.62356196 2.41592086 10.62173588 0.12939453 10.61523438 C-1.17251328 10.61888 -2.47442108 10.62252563 -3.81578064 10.62628174 C-6.97241211 10.25878906 -6.97241211 10.25878906 -8.92799377 8.89666748 C-9.97241211 7.25878906 -9.97241211 7.25878906 -9.78491211 4.69628906 C-8.01009256 -0.62816958 -5.07482877 0.00620623 0 0 Z " fill="#020202" transform="translate(115.972412109375,79.7412109375)"/>
<path d="M0 0 C1.07585609 -0.00525696 1.07585609 -0.00525696 2.17344666 -0.01062012 C4.55070601 -0.01944171 6.92766911 -0.01358628 9.30493164 -0.00683594 C10.95398516 -0.00818262 12.6030383 -0.01012317 14.25209045 -0.01263428 C17.71139295 -0.01558624 21.17059229 -0.01128618 24.62988281 -0.00195312 C29.06654304 0.00943257 33.50296108 0.00288806 37.93961239 -0.00909805 C41.34621508 -0.01632235 44.75276029 -0.01402595 48.1593647 -0.00884247 C49.79525341 -0.00750709 51.43114731 -0.00914981 53.06702995 -0.01380157 C55.35342111 -0.0188752 57.63941938 -0.01114463 59.92578125 0 C61.22768906 0.00159119 62.52959686 0.00318237 63.87095642 0.00482178 C67.02758789 0.25878906 67.02758789 0.25878906 70.02758789 2.25878906 C70.44868235 4.99590304 70.49232791 6.55520826 68.94702148 8.89468384 C66.01323179 10.9796728 63.50719276 10.64042079 59.94165039 10.64697266 C58.86557526 10.65485809 58.86557526 10.65485809 57.76776123 10.66290283 C55.39581547 10.67610952 53.02454051 10.66736283 50.65258789 10.65722656 C49.00496288 10.65924712 47.35733874 10.6621584 45.7097168 10.66592407 C42.25634244 10.67034831 38.80320083 10.66391328 35.34985352 10.64990234 C30.92096429 10.63281024 26.49262043 10.64265091 22.06375122 10.66061974 C18.66141645 10.67145496 15.2592112 10.66801247 11.85687256 10.66023636 C10.22377457 10.65823362 8.59066487 10.66069622 6.95758057 10.66767502 C4.67591151 10.6752854 2.39512837 10.66369215 0.11352539 10.64697266 C-1.83481201 10.64339249 -1.83481201 10.64339249 -3.82250977 10.63973999 C-6.97241211 10.25878906 -6.97241211 10.25878906 -8.92700195 8.89468384 C-9.97241211 7.25878906 -9.97241211 7.25878906 -9.78491211 4.69628906 C-8.01009256 -0.62816958 -5.07482877 0.00620623 0 0 Z " fill="#050505" transform="translate(115.972412109375,149.7412109375)"/>
<path d="M0 0 C1.07585609 -0.0076664 1.07585609 -0.0076664 2.17344666 -0.01548767 C4.55069258 -0.02941809 6.92764969 -0.02842432 9.30493164 -0.02612305 C10.95398568 -0.03000819 12.60303872 -0.03434248 14.25209045 -0.03910828 C17.71138754 -0.04657797 21.17058259 -0.04627389 24.62988281 -0.04101562 C29.06662151 -0.03522102 33.50294274 -0.05214791 37.93961239 -0.0753603 C41.34622141 -0.09008076 44.75272951 -0.09097164 48.1593647 -0.08785057 C49.79526153 -0.08836467 51.43116388 -0.093619 53.06702995 -0.10366249 C55.3535575 -0.11597682 57.63926714 -0.10926601 59.92578125 -0.09765625 C61.87864296 -0.09860039 61.87864296 -0.09860039 63.87095642 -0.0995636 C67.02758789 0.2746582 67.02758789 0.2746582 68.98316956 1.63777161 C70.02758789 3.2746582 70.02758789 3.2746582 69.84008789 5.8371582 C69.02758789 8.2746582 69.02758789 8.2746582 67.02758789 10.2746582 C63.99794006 10.53535461 63.99794006 10.53535461 60.05517578 10.54931641 C58.97931969 10.5569828 58.97931969 10.5569828 57.88172913 10.56480408 C55.50448321 10.57873449 53.12752609 10.57774073 50.75024414 10.57543945 C49.1011901 10.5793246 47.45213706 10.58365889 45.80308533 10.58842468 C42.34378824 10.59589438 38.88459319 10.5955903 35.42529297 10.59033203 C30.98855428 10.58453742 26.55223304 10.60146432 22.11556339 10.6246767 C18.70895437 10.63939717 15.30244627 10.64028805 11.89581108 10.63716698 C10.25991425 10.63768108 8.62401191 10.64293541 6.98814583 10.6529789 C4.70161828 10.66529322 2.41590864 10.65858242 0.12939453 10.64697266 C-1.17251328 10.64760208 -2.47442108 10.64823151 -3.81578064 10.64888 C-6.97241211 10.2746582 -6.97241211 10.2746582 -8.92799377 8.9115448 C-9.97241211 7.2746582 -9.97241211 7.2746582 -9.78491211 4.7121582 C-8.01122682 -0.60889768 -5.07312224 0.01796452 0 0 Z " fill="#040404" transform="translate(115.972412109375,129.725341796875)"/>
<path d="M0 0 C3.51520834 2.3707219 5.79390381 5.02530762 7.6875 8.8125 C8.2216019 13.6807075 8.19137512 17.67878097 6.1875 22.1875 C2.48245814 26.07779395 -1.14949772 28.491852 -6.5859375 29.04296875 C-11.87458994 28.79929364 -15.16831794 27.09117626 -18.9375 23.41796875 C-21.67315207 20.22378409 -22.20706107 17.61082333 -22.75 13.5 C-22.062347 7.70406758 -19.39352733 3.66230207 -15.0625 -0.1875 C-9.87259902 -2.07473672 -5.16765289 -1.85255481 0 0 Z " fill="#060606" transform="translate(88.3125,181.1875)"/>
<path d="M0 0 C3.5677811 2.35149209 5.84221079 4.99692157 7.75 8.8125 C8.41854136 14.19370998 8.11118251 18.72260183 5.07421875 23.3046875 C2.20169492 26.57546684 -0.99235423 28.38891849 -5.26953125 29.19140625 C-10.42507562 29.49699301 -13.37866467 28.06794108 -17.25 24.8125 C-20.58997264 21.11144924 -22.08029663 18.57741504 -22.5625 13.5625 C-22.13505686 8.43318227 -20.65418262 4.88192302 -16.70703125 1.484375 C-11.2362129 -2.07103097 -6.15468566 -2.24882745 0 0 Z " fill="#060606" transform="translate(88.25,131.1875)"/>
<path d="M0 0 C3.5677811 2.35149209 5.84221079 4.99692157 7.75 8.8125 C8.41215061 14.14226964 8.14188026 18.75041163 5.14453125 23.3046875 C1.55754827 27.18305005 -2.75345511 28.60608002 -7.875 29.3125 C-13.14155748 28.53226926 -16.05195881 26.14005916 -19.5625 22.25 C-22.42791216 18.11107133 -22.66238314 14.76109763 -22.25 9.8125 C-20.55516283 4.92197586 -17.80460621 1.76829474 -13.17578125 -0.53125 C-8.56339171 -2.10301763 -4.58443247 -1.67508109 0 0 Z " fill="#050606" transform="translate(88.25,81.1875)"/>
<path d="M0 0 C4.71957756 4.04535219 9.21897458 8.07020493 13.58984375 12.45703125 C14.17923233 13.0454631 14.76862091 13.63389496 15.37586975 14.24015808 C16.60638107 15.46999481 17.83565434 16.70107144 19.0637207 17.93334961 C20.95344748 19.8284932 22.84853271 21.71816277 24.74414062 23.60742188 C25.94302962 24.80697065 27.14160892 26.00682903 28.33984375 27.20703125 C28.90847641 27.77363968 29.47710907 28.34024811 30.06297302 28.92402649 C34 32.88501282 34 32.88501282 34 34 C22.78 34 11.56 34 0 34 C0 22.78 0 11.56 0 0 Z " fill="#C4ECF2" transform="translate(169,17)"/>
<path d="M0 0 C0.97118271 -0.00630432 1.94236542 -0.01260864 2.94297791 -0.019104 C4.52110008 -0.01303131 4.52110008 -0.01303131 6.13110352 -0.00683594 C7.74759544 -0.00970612 7.74759544 -0.00970612 9.39674377 -0.01263428 C11.679049 -0.01399713 13.96136195 -0.01029377 16.24365234 -0.00195312 C19.74212033 0.00873441 23.24007357 -0.00183991 26.73852539 -0.01464844 C28.95271924 -0.01332666 31.16691276 -0.01076388 33.38110352 -0.00683594 C34.43116074 -0.0108844 35.48121796 -0.01493286 36.56309509 -0.019104 C38.0245974 -0.00964752 38.0245974 -0.00964752 39.515625 0 C40.80230324 0.00238678 40.80230324 0.00238678 42.11497498 0.00482178 C44.32250977 0.25878906 44.32250977 0.25878906 47.32250977 2.25878906 C47.06689653 4.60191036 46.72980204 6.93722309 46.32250977 9.25878906 C43.9048266 10.46763065 42.34617385 10.39840063 39.64501953 10.41992188 C38.67383682 10.42952942 37.70265411 10.43913696 36.70204163 10.44903564 C35.12391945 10.45541046 35.12391945 10.45541046 33.51391602 10.46191406 C31.89742409 10.47046417 31.89742409 10.47046417 30.24827576 10.47918701 C27.96598292 10.4886443 25.68367638 10.49517388 23.40136719 10.49902344 C19.90283537 10.50873956 16.40488824 10.5397609 12.90649414 10.57128906 C10.69230493 10.57781785 8.47811151 10.58306881 6.26391602 10.58691406 C4.68883018 10.60543427 4.68883018 10.60543427 3.08192444 10.62432861 C2.10758957 10.62132751 1.1332547 10.61832642 0.12939453 10.61523438 C-0.72839096 10.61888 -1.58617645 10.62252563 -2.46995544 10.62628174 C-5.1678937 10.17715063 -6.08462073 9.45513077 -7.67749023 7.25878906 C-7.26884868 1.6740211 -5.45436459 0.0101272 0 0 Z " fill="#040404" transform="translate(113.677490234375,99.7412109375)"/>
<path d="M0 0 C0.66 0.66 1.32 1.32 2 2 C1.625 5.625 1.625 5.625 1 9 C-4.41139241 10.32278481 -4.41139241 10.32278481 -6.9375 8.9375 C-8.52666796 6.03960549 -7.87523205 4.09697496 -7 1 C-4.48718205 -0.25640898 -2.78302919 -0.20872719 0 0 Z " fill="#8EDBE9" transform="translate(84,190)"/>
<path d="M0 0 C2.5 0.25 2.5 0.25 4.5 2.25 C4.125 5.875 4.125 5.875 3.5 9.25 C-1.93440487 10.57841008 -1.93440487 10.57841008 -4.4375 9.125 C-5.5 7.25 -5.5 7.25 -5.3125 4.6875 C-4.22827241 1.43481722 -3.47807945 0.34780795 0 0 Z " fill="#8FDCEA" transform="translate(81.5,139.75)"/>
<path d="M0 0 C2.5 0.25 2.5 0.25 4.5 2.25 C4.125 5.875 4.125 5.875 3.5 9.25 C-1.93440487 10.57841008 -1.93440487 10.57841008 -4.4375 9.125 C-5.5 7.25 -5.5 7.25 -5.3125 4.6875 C-4.22827241 1.43481722 -3.47807945 0.34780795 0 0 Z " fill="#90DDEB" transform="translate(81.5,89.75)"/>
<path d="M0 0 C1.32841008 5.43440487 1.32841008 5.43440487 -0.125 7.9375 C-2 9 -2 9 -4.5625 8.8125 C-7 8 -7 8 -9 6 C-8.75 2.9375 -8.75 2.9375 -8 0 C-5.13822943 -1.43088528 -3.06624227 -0.59991697 0 0 Z " fill="#0A0A0A" transform="translate(185,101)"/>
</svg>
