<?xml version="1.0" encoding="UTF-8"?>
<svg version="1.1" xmlns="http://www.w3.org/2000/svg" width="256" height="256">
<path d="M0 0 C4.38719346 1.21866485 5.07337619 3.15338924 7.375 6.9375 C7.93896484 6.79127197 8.50292969 6.64504395 9.08398438 6.49438477 C11.67969702 5.82446343 14.27730556 5.16219318 16.875 4.5 C17.761875 4.26990234 18.64875 4.03980469 19.5625 3.80273438 C46.7464398 -3.09319153 76.79297038 -0.25166212 102.375 10.9375 C103.53128906 11.43894531 104.68757812 11.94039062 105.87890625 12.45703125 C127.81245967 22.71265179 146.68874936 39.31535688 159.375 59.9375 C159.89835938 60.70320313 160.42171875 61.46890625 160.9609375 62.2578125 C178.22708751 88.47678104 183.00724339 125.4925415 176.75 155.9375 C174.79913022 164.56819049 171.9171138 172.83908664 168.375 180.9375 C167.87355469 182.09378906 167.37210938 183.25007812 166.85546875 184.44140625 C156.59984821 206.37495967 139.99714312 225.25124936 119.375 237.9375 C118.60929688 238.46085938 117.84359375 238.98421875 117.0546875 239.5234375 C90.83571896 256.78958751 53.8199585 261.56974339 23.375 255.3125 C14.74430951 253.36163022 6.47341336 250.4796138 -1.625 246.9375 C-2.78128906 246.43605469 -3.93757813 245.93460938 -5.12890625 245.41796875 C-27.06245967 235.16234821 -45.93874936 218.55964312 -58.625 197.9375 C-59.14835937 197.17179688 -59.67171875 196.40609375 -60.2109375 195.6171875 C-68.94712426 182.35112613 -73.65614861 166.40236431 -76.625 150.9375 C-76.91503906 149.51824219 -76.91503906 149.51824219 -77.2109375 148.0703125 C-77.77954925 143.76817451 -77.809201 139.5223888 -77.8125 135.1875 C-77.82474609 134.32511719 -77.83699219 133.46273437 -77.84960938 132.57421875 C-77.85250977 131.33865234 -77.85250977 131.33865234 -77.85546875 130.078125 C-77.85957764 129.33079102 -77.86368652 128.58345703 -77.86791992 127.81347656 C-77.625 125.9375 -77.625 125.9375 -75.625 123.9375 C-71.33243921 123.42497371 -67.00716283 123.52071229 -62.6875 123.5 C-61.48158203 123.46712891 -60.27566406 123.43425781 -59.03320312 123.40039062 C-57.30166992 123.38975586 -57.30166992 123.38975586 -55.53515625 123.37890625 C-53.94392944 123.35872437 -53.94392944 123.35872437 -52.32055664 123.33813477 C-49.625 123.9375 -49.625 123.9375 -47.7902832 126.21948242 C-46.73768132 128.67467136 -46.21458319 130.35159515 -46.0703125 132.984375 C-46.01593018 133.73823486 -45.96154785 134.49209473 -45.90551758 135.26879883 C-45.85419678 136.06697021 -45.80287598 136.8651416 -45.75 137.6875 C-43.56096776 162.90388798 -31.79985955 186.27150057 -12.625 202.9375 C-9.39163215 205.44360578 -6.06050131 207.71957237 -2.625 209.9375 C-2.00496094 210.37578125 -1.38492188 210.8140625 -0.74609375 211.265625 C18.87311283 224.65583942 45.23916216 227.90837418 68.22265625 224.27734375 C72.37821437 223.4647284 76.37200874 222.3093391 80.375 220.9375 C81.08446777 220.69612305 81.79393555 220.45474609 82.52490234 220.20605469 C106.24778271 211.85551677 125.94300822 194.64644334 137.29492188 172.11132812 C139.29646452 167.8170253 140.90535123 163.43369608 142.375 158.9375 C142.58527832 158.31101563 142.79555664 157.68453125 143.01220703 157.0390625 C148.93365944 138.66052453 148.62703336 117.18077281 142.375 98.9375 C142.13362305 98.22803223 141.89224609 97.51856445 141.64355469 96.78759766 C133.29301677 73.06471729 116.08394334 53.36949178 93.54882812 42.01757812 C89.25428665 40.01592424 84.870308 38.41019878 80.375 36.9375 C78.50521484 36.31681641 78.50521484 36.31681641 76.59765625 35.68359375 C67.6554895 33.03084019 58.86231622 32.55963047 49.5625 32.5 C48.44198242 32.48984863 47.32146484 32.47969727 46.16699219 32.46923828 C38.5323728 32.54916426 31.68904022 33.76881644 24.375 35.9375 C24.560625 36.865625 24.74625 37.79375 24.9375 38.75 C25.375 41.9375 25.375 41.9375 24.375 44.9375 C25.01179688 44.7209375 25.64859375 44.504375 26.3046875 44.28125 C48.75294315 37.85044997 72.81966433 41.51088046 93.375 51.9375 C95.375 53.9375 95.375 53.9375 95.4375 56.6875 C96.73290333 61.17823155 99.13420093 62.43459643 103.015625 64.8203125 C105.93320047 66.20181347 108.18802449 66.24842444 111.375 65.9375 C112.035 66.5975 112.695 67.2575 113.375 67.9375 C113.313125 69.01 113.25125 70.0825 113.1875 71.1875 C113.43125554 76.06261078 114.81118927 77.68358586 118.375 80.9375 C119.344375 81.02 120.31375 81.1025 121.3125 81.1875 C124.99626745 82.08964713 125.35912164 82.77486331 127.375 85.875 C137.77816133 104.84224138 141.19385315 129.55036909 135.8125 150.5625 C128.43621258 175.06415403 113.86448653 194.48887761 91.375 206.9375 C87.45473 208.93345992 83.54079814 210.52817526 79.375 211.9375 C78.25609375 212.329375 77.1371875 212.72125 75.984375 213.125 C58.53442284 218.38188935 38.55757697 217.97408847 21.375 211.9375 C20.30378906 211.56367188 19.23257813 211.18984375 18.12890625 210.8046875 C6.509022 206.3343626 -2.682972 199.4793684 -11.625 190.9375 C-12.23988281 190.39738281 -12.85476562 189.85726562 -13.48828125 189.30078125 C-22.47192385 181.10191663 -28.7687429 169.3361423 -32.625 157.9375 C-33.016875 156.81859375 -33.40875 155.6996875 -33.8125 154.546875 C-39.06938935 137.09692284 -38.66158847 117.12007697 -32.625 99.9375 C-32.25117187 98.86628906 -31.87734375 97.79507813 -31.4921875 96.69140625 C-27.0218626 85.071522 -20.1668684 75.879528 -11.625 66.9375 C-10.81482422 66.01517578 -10.81482422 66.01517578 -9.98828125 65.07421875 C-6.37458597 61.1146282 -2.22813055 58.1633174 2.25 55.25 C2.81485107 54.88124756 3.37970215 54.51249512 3.96166992 54.13256836 C7.23941108 52.0686674 10.55579022 50.35879555 14.10595703 48.80541992 C14.90792511 48.45323898 15.70989319 48.10105804 16.53616333 47.73820496 C17.14297943 47.47397232 17.74979553 47.20973969 18.375 46.9375 C16.5355481 46.92348145 16.5355481 46.92348145 14.65893555 46.90917969 C10.11315457 46.86933536 5.56805438 46.80359244 1.02270508 46.72998047 C-0.94530498 46.70173851 -2.91342915 46.68054006 -4.8815918 46.66650391 C-7.7094173 46.64511879 -10.53586615 46.5984926 -13.36328125 46.546875 C-14.24462234 46.54564636 -15.12596344 46.54441772 -16.03401184 46.54315186 C-22.05289294 46.39852528 -22.05289294 46.39852528 -24.76635742 44.21191406 C-25.8882678 41.2401435 -25.6377373 39.94527674 -24.625 36.9375 C-23.63536687 34.8782319 -22.57087332 32.85419697 -21.45703125 30.859375 C-21.13973557 30.28850159 -20.82243988 29.71762817 -20.49552917 29.12945557 C-19.82373878 27.92417702 -19.14864583 26.72073399 -18.47045898 25.51904297 C-17.45079096 23.71106625 -16.44235318 21.89719515 -15.43554688 20.08203125 C-4.95505485 1.2814797 -4.95505485 1.2814797 0 0 Z " fill="#000201" transform="translate(77.625,-0.9375)"/>
<path d="M0 0 C3.37822416 0.14375422 5.77390955 0.07536348 9 -1 C11.05078125 0.21484375 11.05078125 0.21484375 13.3125 1.9375 C17.11547239 4.63178826 19.25911928 5.46252495 24 5 C24.99 5.99 24.99 5.99 26 7 C25.938125 8.0725 25.87625 9.145 25.8125 10.25 C25.61567753 14.17391845 25.61567753 14.17391845 28.5625 16.875 C31 20 31 20 30.8984375 21.91796875 C30.74632812 22.62566406 30.59421875 23.33335938 30.4375 24.0625 C29.62509741 28.56832549 30.66857298 31.05216455 32.6875 35.125 C40.60118187 51.09993822 43.25974924 69.91135999 37.9765625 87.2421875 C37.49316406 88.60730469 37.49316406 88.60730469 37 90 C36.63648438 91.07507813 36.27296875 92.15015625 35.8984375 93.2578125 C31.6526906 105.06372808 25.78550218 114.06758307 17 123 C16.31164062 123.70125 15.62328125 124.4025 14.9140625 125.125 C-0.62574934 139.91381721 -20.68970166 145.75618129 -41.75390625 145.25 C-62.36688608 144.31833989 -81.43864014 134.13735183 -95.3125 119.16015625 C-109.62099174 102.83574353 -115.11539707 82.39300384 -114.15234375 61.08544922 C-112.65750675 40.62247222 -101.85306541 21.68999672 -86.59570312 8.30908203 C-78.72425582 1.85150853 -69.55893797 -2.63973419 -60 -6 C-59.10410156 -6.3196875 -58.20820312 -6.639375 -57.28515625 -6.96875 C-38.34351419 -12.70703147 -17.36122689 -8.68061345 0 0 Z " fill="#ACE3FD" transform="translate(165,60)"/>
<path d="M0 0 C22.70973804 19.12582126 39.18879155 47.74756101 41.91210938 77.61035156 C43.88737616 112.62123957 34.46117072 143.74709058 11.35644531 170.40527344 C-7.84916957 191.78259082 -37.17094241 207.18209265 -66.06494141 208.77441406 C-99.16160065 209.96941906 -129.34234013 201.24539401 -154.40039062 179.04785156 C-155.96895427 177.57511657 -157.53189269 176.09635651 -159.08789062 174.61035156 C-159.75046875 174.02253906 -160.41304687 173.43472656 -161.09570312 172.82910156 C-180.54732548 154.87375785 -190.96181623 127.38675447 -194.08789062 101.61035156 C-194.12824115 99.61075865 -194.14376942 97.6095708 -194.08789062 95.61035156 C-190.78789062 95.61035156 -187.48789063 95.61035156 -184.08789062 95.61035156 C-183.85714844 97.10824219 -183.62640625 98.60613281 -183.38867188 100.14941406 C-178.70272095 129.48860551 -166.92230697 157.12610856 -142.39257812 175.42675781 C-117.99908743 193.0028407 -89.00857242 201.60557095 -58.95507812 196.73925781 C-37.84561587 192.72106079 -19.22208943 183.93830118 -3.08789062 169.61035156 C-2.32863281 168.94648438 -1.569375 168.28261719 -0.78710938 167.59863281 C13.70179678 154.08766348 23.01207205 135.59799621 27.91210938 116.61035156 C28.21117187 115.52109375 28.51023438 114.43183594 28.81835938 113.30957031 C34.96703449 87.71855675 30.47888816 59.08109584 17.03710938 36.45410156 C0.79165704 11.32441749 -20.95595101 -5.88964968 -50.08789062 -13.38964844 C-51.20035156 -13.68871094 -52.3128125 -13.98777344 -53.45898438 -14.29589844 C-73.88738736 -19.12890506 -95.64172917 -17.11938687 -115.08789062 -9.38964844 C-115.41789062 -7.07964844 -115.74789062 -4.76964844 -116.08789062 -2.38964844 C-123.34789063 -2.38964844 -130.60789063 -2.38964844 -138.08789062 -2.38964844 C-134.60667113 -8.86633586 -131.0577842 -15.20128493 -127.08789062 -21.38964844 C-126.09789063 -20.72964844 -125.10789062 -20.06964844 -124.08789062 -19.38964844 C-119.93852507 -19.7684287 -116.20751671 -20.93504355 -112.27539062 -22.26464844 C-73.0390261 -34.35774617 -31.71010073 -25.90336461 0 0 Z " fill="#34CB8A" transform="translate(204.087890625,37.3896484375)"/>
<path d="M0 0 C5.13460781 1.64140628 7.68525116 5.24751363 11.16723633 9.23242188 C12.71686973 10.91367081 14.26971714 12.5919619 15.82543945 14.26757812 C18.25084921 16.90146535 20.65241755 19.54565441 23.00195312 22.24755859 C33.04188687 34.05550351 33.04188687 34.05550351 47.06713867 39.34960938 C52.42566954 39.65777878 57.70474818 39.47671344 63.04338074 38.93737793 C65.36645508 39.07617188 65.36645508 39.07617188 67.19502258 40.40734863 C68.36645508 42.07617188 68.36645508 42.07617188 68.17895508 44.63867188 C67.36645508 47.07617188 67.36645508 47.07617188 65.36645508 49.07617188 C61.34418252 49.56855719 57.31487967 49.57562272 53.26489258 49.61157227 C51.2694027 49.63829758 49.27474949 49.71334462 47.28051758 49.7890625 C45.37012695 49.80936523 45.37012695 49.80936523 43.42114258 49.83007812 C42.2608252 49.85400635 41.10050781 49.87793457 39.9050293 49.90258789 C34.76328561 48.7017598 32.04951765 45.72488456 28.36645508 42.07617188 C27.719104 41.46152573 27.07175293 40.84687958 26.40478516 40.21360779 C22.11642672 36.13040601 17.92240325 31.94865741 13.71875 27.77856445 C12.18498076 26.26147551 10.64584993 24.74978907 9.1015625 23.2434082 C6.8560387 21.05253158 4.62730687 18.84576117 2.40161133 16.63476562 C1.71003433 15.965858 1.01845734 15.29695038 0.30592346 14.60777283 C-2.6393998 11.64922581 -4.42193915 9.78102808 -5.63964844 5.72485352 C-5.63354492 3.07617188 -5.63354492 3.07617188 -4.57104492 1.13867188 C-2.63354492 0.07617188 -2.63354492 0.07617188 0 0 Z " fill="#07090A" transform="translate(89.633544921875,83.923828125)"/>
<path d="M0 0 C3.5625 0.25 3.5625 0.25 7 1 C8.50934217 4.01868434 8.17510672 6.67297229 8 10 C7.01 11.485 7.01 11.485 6 13 C3 13.3125 3 13.3125 0 13 C-2 11 -2 11 -2.265625 8.90625 C-2.25789063 7.71515625 -2.25789063 7.71515625 -2.25 6.5 C-2.25515625 5.7059375 -2.2603125 4.911875 -2.265625 4.09375 C-2 2 -2 2 0 0 Z " fill="#060809" transform="translate(125,183)"/>
<path d="M0 0 C0.99 0.66 1.98 1.32 3 2 C3.3125 5 3.3125 5 3 8 C1 10 1 10 -1.09375 10.265625 C-1.8878125 10.26046875 -2.681875 10.2553125 -3.5 10.25 C-4.2940625 10.25515625 -5.088125 10.2603125 -5.90625 10.265625 C-8 10 -8 10 -10 8 C-9.75 4.4375 -9.75 4.4375 -9 1 C-5.98131566 -0.50934217 -3.32702771 -0.17510672 0 0 Z " fill="#060809" transform="translate(193,123)"/>
<path d="M0 0 C1.97265625 0.265625 1.97265625 0.265625 4.97265625 2.265625 C4.71704302 4.6087463 4.37994853 6.94405903 3.97265625 9.265625 C1.7437463 10.38007998 0.44210519 10.43042786 -2.02734375 10.453125 C-3.07921875 10.47439453 -3.07921875 10.47439453 -4.15234375 10.49609375 C-6.02734375 10.265625 -6.02734375 10.265625 -8.02734375 8.265625 C-8.27734375 5.265625 -8.27734375 5.265625 -8.02734375 2.265625 C-5.42029477 -0.34142398 -3.55396134 0.02657167 0 0 Z " fill="#060809" transform="translate(68.02734375,122.734375)"/>
<path d="M0 0 C3 0.25 3 0.25 5 2.25 C5.46376812 9.55434783 5.46376812 9.55434783 3 13.25 C0.6568787 12.99438677 -1.67843403 12.65729228 -4 12.25 C-5.11445498 10.02109005 -5.16480286 8.71944894 -5.1875 6.25 C-5.20167969 5.54875 -5.21585937 4.8475 -5.23046875 4.125 C-4.80271725 0.64498783 -3.27487943 0.27290662 0 0 Z " fill="#060809" transform="translate(128,59.75)"/>
<path d="M0 0 C3 -0.3125 3 -0.3125 6 0 C8 2 8 2 8.3125 5 C8.1578125 6.485 8.1578125 6.485 8 8 C5 10 5 10 1.8125 9.625 C0.4203125 9.315625 0.4203125 9.315625 -1 9 C-1.625 6.1875 -1.625 6.1875 -2 3 C-1.34 2.01 -0.68 1.02 0 0 Z " fill="#040606" transform="translate(183,65)"/>
</svg>
