<?xml version="1.0" encoding="UTF-8"?>
<svg version="1.1" xmlns="http://www.w3.org/2000/svg" width="256" height="256">
<path d="M0 0 C1.09175537 0.31348389 1.09175537 0.31348389 2.20556641 0.63330078 C18.85179985 5.59041023 33.81428592 13.72929366 47 25 C47.51401367 25.43570312 48.02802734 25.87140625 48.55761719 26.3203125 C70.44541761 45.06953665 85.0309459 69.78836535 91 98 C91.33644531 99.58167969 91.33644531 99.58167969 91.6796875 101.1953125 C97.21761959 132.67807713 90.73507265 167.81336752 72.80078125 194.49609375 C69.69576087 198.81348651 66.44944298 202.95224656 63 207 C62.19949219 207.94746094 61.39898437 208.89492187 60.57421875 209.87109375 C43.2966405 229.55473475 21.24021305 242.24232282 -4 249 C-5.08539063 249.30164063 -6.17078125 249.60328125 -7.2890625 249.9140625 C-39.18747495 257.35007586 -74.38026533 251.17459936 -102.28125 234.38671875 C-108.1921607 230.67553752 -113.64207571 226.46258694 -119 222 C-119.9178125 221.23558594 -120.835625 220.47117188 -121.78125 219.68359375 C-129.8195784 212.7226919 -137.13262578 205.70593517 -138.37109375 194.703125 C-138.54887495 185.45850254 -137.31305045 179.04942492 -131.23828125 171.9375 C-125.51096681 166.36121008 -119.25886847 164.44830194 -111.4375 163.625 C-101.775802 164.67900342 -95.14600591 168.70649216 -88.5 175.6875 C-74.00451363 190.42204237 -54.54349858 197.7532986 -34 198 C-12.05216261 196.99219114 6.27299721 187.79325793 21.19140625 171.625 C34.68775903 155.64449879 39.58632579 135.55895101 38 115 C35.27983751 95.92108253 25.74079684 77.68107039 10.44091797 65.78808594 C-7.23110332 52.77327397 -26.86543097 48.2945238 -48.53515625 51.21875 C-54.27285979 52.12914698 -59.62214634 53.7887468 -65 56 C-65.17087153 59.01779912 -65.17087153 59.01779912 -64 61.75 C-61.89221126 68.60031339 -63.01385015 74.63330316 -66 81 C-71.83004417 90.24452487 -81.42658673 92.66894389 -91.48046875 95.234375 C-92.5703157 95.51726379 -93.66016266 95.80015259 -94.78303528 96.09161377 C-97.08045833 96.68446402 -99.37913009 97.27249396 -101.67895508 97.85595703 C-105.16396262 98.74400224 -108.64139447 99.65820635 -112.11914062 100.57421875 C-114.36417016 101.15005077 -116.60960119 101.72432016 -118.85546875 102.296875 C-119.87883835 102.56868591 -120.90220795 102.84049683 -121.95658875 103.12054443 C-130.94040108 105.35561201 -141.84227138 107.40302854 -150.21875 102.3984375 C-155.37045151 98.35389991 -159.79056725 93.5846894 -161 87 C-161.49688763 80.24457119 -160.37129205 74.35892199 -158.5625 67.875 C-158.17022217 66.42661743 -158.17022217 66.42661743 -157.77001953 64.94897461 C-156.86223436 61.62814559 -155.932444 58.31398721 -155 55 C-154.63204433 53.67895162 -154.26437897 52.35782236 -153.89697266 51.03662109 C-152.92901911 47.56230646 -151.94924979 44.09150127 -150.96115112 40.62286377 C-150.57416929 39.26259451 -150.18929906 37.90172254 -149.80667114 36.54022217 C-144.26033143 16.871435 -144.26033143 16.871435 -138.0625 12.625 C-137.41410156 12.16351562 -136.76570313 11.70203125 -136.09765625 11.2265625 C-130.16600728 7.75814951 -124.77255833 7.08552354 -118 8 C-113.73874891 9.60094489 -109.78374035 11.70971241 -106.09375 14.37890625 C-103.83773904 15.30064311 -103.83773904 15.30064311 -101.21484375 13.69140625 C-100.13332031 12.98886719 -99.05179688 12.28632813 -97.9375 11.5625 C-69.48466984 -5.81986814 -31.77052902 -9.22780778 0 0 Z " fill="#010202" transform="translate(162,4)"/>
<path d="M0 0 C2.04648895 1.78686431 4.05515964 3.6059049 6.0625 5.4375 C6.78824219 6.08074219 7.51398438 6.72398438 8.26171875 7.38671875 C28.46778304 26.28123323 41.36725425 55.85157576 42.3984375 83.33984375 C42.69016445 102.87272641 40.34670434 120.64410873 32.0625 138.4375 C31.36833984 139.98630859 31.36833984 139.98630859 30.66015625 141.56640625 C18.34106244 167.74021498 -4.18384854 188.64556813 -30.9375 199.4375 C-32.04609375 199.88867188 -33.1546875 200.33984375 -34.296875 200.8046875 C-48.22056884 206.12845279 -60.88625137 207.69303261 -75.6875 207.75 C-77.51680054 207.75833862 -77.51680054 207.75833862 -79.38305664 207.7668457 C-110.25798525 207.52195609 -138.95727128 193.67773185 -160.50390625 171.8359375 C-165.64421003 166.18987933 -167.30815348 162.61893008 -167.21875 154.94140625 C-166.66495653 150.01110603 -163.92126992 147.32529237 -160.375 144.125 C-156.23671352 141.26003244 -152.88752698 140.9506121 -147.9375 141.4375 C-143.02444163 143.48877692 -139.49008328 146.79965859 -135.875 150.625 C-122.02588358 164.90243961 -102.12020551 174.1675293 -82.21875 174.8359375 C-79.95833336 174.84375901 -77.69780895 174.83590941 -75.4375 174.8125 C-73.75720703 174.82990234 -73.75720703 174.82990234 -72.04296875 174.84765625 C-49.72153041 174.77041944 -30.23058245 165.17850927 -14.125 150.1875 C3.04560312 132.02934828 9.96828579 109.29601248 9.33984375 84.7421875 C8.38911194 62.54792543 -1.58732536 42.57669193 -17.67578125 27.38671875 C-34.16862333 13.17268041 -53.59164335 6.26155843 -75.125 6.25 C-76.30642578 6.23775391 -77.48785156 6.22550781 -78.70507812 6.21289062 C-89.81411816 6.19442685 -98.71094568 7.94832108 -108.7421875 12.578125 C-113.38290431 14.58910228 -113.38290431 14.58910228 -116.1953125 13.8203125 C-118.04213438 12.35444939 -119.45265483 10.89535576 -120.9375 9.0625 C-125.90733814 3.16829371 -131.45023149 -2.15632413 -136.9375 -7.5625 C-135.57316184 -11.65551448 -132.94280298 -12.55311612 -129.3125 -14.4375 C-128.64532959 -14.78828613 -127.97815918 -15.13907227 -127.29077148 -15.50048828 C-120.40624425 -19.00929829 -113.35124133 -21.40927643 -105.9375 -23.5625 C-105.14472656 -23.79710937 -104.35195312 -24.03171875 -103.53515625 -24.2734375 C-68.05905675 -33.96789637 -27.7056455 -23.41135094 0 0 Z " fill="#C4E7FB" transform="translate(201.9375,37.5625)"/>
<path d="M0 0 C4.24580034 2.09521017 6.13806876 4.89072627 8.08105469 8.98669434 C9.56166079 13.55228352 9.0512442 18.10695964 8.765625 22.83984375 C8.68695245 25.08269518 8.61541942 27.32580616 8.55029297 29.5690918 C8.51562927 30.72645844 8.48096558 31.88382507 8.44525146 33.07626343 C7.09367472 53.07095105 7.09367472 53.07095105 14.2578125 70.9453125 C18.3147979 75.19075333 22.8661695 78.40476738 27.75097656 81.62524414 C31.1983448 84.50536941 32.35099158 88.00080124 32.859375 92.38671875 C32.46062416 98.67309091 30.65525272 103.10104079 25.859375 107.38671875 C21.5314324 109.75658246 17.339795 110.79824427 12.421875 110.13671875 C6.98167004 108.5344666 3.46258067 105.02283217 -0.46484375 101.06835938 C-2.51343557 99.01260465 -4.59342251 96.99039639 -6.671875 94.96484375 C-8.30873168 93.35693338 -9.944136 91.74754324 -11.578125 90.13671875 C-12.37210693 89.35619141 -13.16608887 88.57566406 -13.98413086 87.77148438 C-14.73573486 87.02060547 -15.48733887 86.26972656 -16.26171875 85.49609375 C-16.9364624 84.82545898 -17.61120605 84.15482422 -18.30639648 83.46386719 C-23.0178801 78.1284083 -24.25485561 73.61648769 -24.30175781 66.64355469 C-24.31136536 65.48845398 -24.3209729 64.33335327 -24.33087158 63.14324951 C-24.33512146 61.89843811 -24.33937134 60.65362671 -24.34375 59.37109375 C-24.34945007 58.08616028 -24.35515015 56.80122681 -24.36102295 55.47735596 C-24.37151405 52.75719815 -24.37736864 50.03706971 -24.38085938 47.31689453 C-24.38633126 43.84924192 -24.41033871 40.38198449 -24.43883133 36.91445541 C-24.46205949 33.58750988 -24.46391429 30.26061609 -24.46875 26.93359375 C-24.4810968 25.69687927 -24.4934436 24.46016479 -24.50616455 23.18597412 C-24.46954219 8.93643504 -24.46954219 8.93643504 -19.6885376 3.83831787 C-13.8329021 -1.21259774 -7.48435212 -2.14423957 0 0 Z " fill="#000000" transform="translate(134.140625,64.61328125)"/>
<path d="M0 0 C3.63347829 2.54826812 6.62545158 5.5482013 9.73974609 8.69799805 C10.40414703 9.36285721 11.06854797 10.02771637 11.75308228 10.71272278 C13.15563505 12.11828965 14.55576361 13.5262792 15.95361328 14.93652344 C18.07197239 17.07302747 20.19811153 19.20153183 22.32568359 21.32885742 C23.69334146 22.70143578 25.06054353 24.07446848 26.42724609 25.44799805 C27.05351898 26.07538376 27.67979187 26.70276947 28.32504272 27.34916687 C43.71630859 42.90301202 43.71630859 42.90301202 43.71630859 49.8425293 C42.90165119 54.16836013 41.38086913 57.35996763 37.71630859 59.9050293 C27.80515906 63.81729895 16.99014296 65.95321326 6.65795898 68.47924805 C3.88917417 69.15862012 1.12411468 69.85196581 -1.64111328 70.5456543 C-3.4241057 70.98401224 -5.20730202 71.42154182 -6.99072266 71.8581543 C-8.2128521 72.16743866 -8.2128521 72.16743866 -9.45967102 72.48297119 C-21.49990252 75.38048516 -21.49990252 75.38048516 -26.56103516 72.69799805 C-27.10888672 72.16819336 -27.65673828 71.63838867 -28.22119141 71.0925293 C-28.78708984 70.57045898 -29.35298828 70.04838867 -29.93603516 69.51049805 C-32.88079901 66.00238806 -32.5397568 62.26682113 -32.28369141 57.9050293 C-31.56378846 54.57900535 -30.5902909 51.34572739 -29.59619141 48.0925293 C-29.04208741 46.22164822 -28.48871464 44.35055044 -27.93603516 42.47924805 C-27.65743652 41.54516113 -27.37883789 40.61107422 -27.09179688 39.64868164 C-25.89398676 35.58191726 -24.77735135 31.49410721 -23.65869141 27.4050293 C-23.05839519 25.24491199 -22.45493599 23.08571459 -21.84960938 20.92700195 C-21.30379787 18.97686782 -20.76432545 17.02496288 -20.22509766 15.07299805 C-19.89380859 13.92444336 -19.56251953 12.77588867 -19.22119141 11.5925293 C-18.94146484 10.60639648 -18.66173828 9.62026367 -18.37353516 8.60424805 C-16.8631597 4.86349737 -14.74987549 1.96674881 -11.47119141 -0.4074707 C-7.47746295 -1.6626425 -3.81361153 -1.82852766 0 0 Z " fill="#4FA3D9" transform="translate(44.28369140625,24.094970703125)"/>
<path d="M0 0 C5.60443165 1.90620951 7.77895622 8.43514822 10.2890625 13.40625 C22.35220777 38.86681701 24.71022224 69.79438989 15.28173828 96.44946289 C11.51891097 106.68728525 11.51891097 106.68728525 8.4921875 109.84765625 C5.4296875 110.22265625 5.4296875 110.22265625 2.4921875 109.84765625 C1.8321875 109.18765625 1.1721875 108.52765625 0.4921875 107.84765625 C0.65936938 103.16656349 1.50771231 99.56910101 3.3671875 95.28515625 C12.54445706 72.91137498 11.08212055 45.45766894 1.90258789 23.40551758 C-0.0740143 18.8019268 -2.16876556 14.36750123 -4.73046875 10.05859375 C-6.5078125 6.84765625 -6.5078125 6.84765625 -6.4453125 4.03515625 C-5.06194761 0.80730484 -3.50422733 -0.21287362 0 0 Z " fill="#060707" transform="translate(216.5078125,67.15234375)"/>
<path d="M0 0 C1.670625 0.4021875 1.670625 0.4021875 3.375 0.8125 C4.63636401 3.33522803 4.48612916 5.04677494 4.46923828 7.86962891 C4.46658966 8.92477692 4.46394104 9.97992493 4.46121216 11.06704712 C4.45596527 12.21281219 4.45071838 13.35857727 4.4453125 14.5390625 C4.45390002 16.95703844 4.46437716 19.37500827 4.4765625 21.79296875 C4.49323573 25.6116287 4.50005711 29.42893071 4.47460938 33.24755859 C4.45359765 36.92890852 4.47693203 40.60782777 4.5078125 44.2890625 C4.49042023 45.42268219 4.47302795 46.55630188 4.45510864 47.72427368 C4.55975981 54.63520361 5.60856565 58.34850667 10.59912109 63.23049927 C11.47818115 64.01358963 11.47818115 64.01358963 12.375 64.8125 C13.09163818 65.53518066 13.80827637 66.25786133 14.54663086 67.00244141 C15.13839111 67.55077637 15.73015137 68.09911133 16.33984375 68.6640625 C16.99404297 69.28796875 17.64824219 69.911875 18.32226562 70.5546875 C19.66745222 71.82726834 21.0219264 73.09009205 22.38476562 74.34375 C27.24043105 79.01993528 27.24043105 79.01993528 27.94140625 83.1484375 C27.375 85.8125 27.375 85.8125 25.375 87.8125 C22.6262207 88.27490234 22.6262207 88.27490234 19.375 87.8125 C17.09525619 86.0695536 15.3061362 84.47060893 13.35546875 82.4140625 C12.81142899 81.86390472 12.26738922 81.31374695 11.7068634 80.74691772 C9.97753528 78.99070611 8.27045144 77.21448144 6.5625 75.4375 C5.39521618 74.24868675 4.22660957 73.06117078 3.05664062 71.875 C-6.74199086 61.88276577 -6.74199086 61.88276577 -6.78613281 55.30883789 C-6.79574036 54.15746841 -6.8053479 53.00609894 -6.81524658 51.81983948 C-6.81949646 50.57089401 -6.82374634 49.32194855 -6.828125 48.03515625 C-6.83382507 46.75773056 -6.83952515 45.48030487 -6.84539795 44.16416931 C-6.85485795 41.45812412 -6.86174984 38.75219012 -6.86523438 36.04614258 C-6.87072284 32.57794098 -6.89475888 29.11013125 -6.92320633 25.64205265 C-6.94630165 22.33561671 -6.94828009 19.02916158 -6.953125 15.72265625 C-6.9654718 14.47573502 -6.9778186 13.22881378 -6.99053955 11.94410706 C-6.98753845 10.78958542 -6.98453735 9.63506378 -6.98144531 8.44555664 C-6.98509094 7.42788712 -6.98873657 6.41021759 -6.99249268 5.36170959 C-6.625 2.8125 -6.625 2.8125 -5.32928467 0.94871521 C-3.625 -0.1875 -3.625 -0.1875 0 0 Z " fill="#4D9FD4" transform="translate(127.625,75.1875)"/>
<path d="M0 0 C4.13011532 0.45674216 7.00297923 2.06659336 10.4453125 4.2421875 C11.09258301 4.64348877 11.73985352 5.04479004 12.40673828 5.45825195 C29.45739612 16.28263991 29.45739612 16.28263991 31.2109375 22.55078125 C31.3203125 25.3671875 31.3203125 25.3671875 30.1953125 27.2421875 C27.6396199 28.77560306 26.27962837 28.74560577 23.3203125 28.3671875 C20.734375 26.49609375 20.734375 26.49609375 17.9453125 23.9296875 C12.19829619 18.82041173 6.03131299 14.99021103 -0.625 11.1796875 C-3.6796875 9.3671875 -3.6796875 9.3671875 -5.6796875 7.3671875 C-5.25156878 3.08600025 -4.61761229 0.63273405 0 0 Z " fill="#060708" transform="translate(172.6796875,28.6328125)"/>
</svg>
