<?xml version="1.0" encoding="UTF-8"?>
<svg version="1.1" xmlns="http://www.w3.org/2000/svg" width="512" height="512">
<path d="M0 0 C1.01823853 0.00215515 2.03647705 0.0043103 3.08557129 0.00653076 C17.7097884 0.05623391 32.00304638 0.37042012 46.375 3.3125 C47.37160645 3.50585938 48.36821289 3.69921875 49.39501953 3.8984375 C97.79648057 13.46213524 141.99059771 35.87987765 177.375 70.3125 C178.37877686 71.27760498 178.37877686 71.27760498 179.40283203 72.26220703 C188.8806517 81.39778993 197.60906957 90.68060785 205.375 101.3125 C206.23306152 102.46355017 207.09113451 103.61459177 207.94921875 104.765625 C213.98736829 112.95680614 219.34595521 121.47054105 224.375 130.3125 C224.73948242 130.94430176 225.10396484 131.57610352 225.47949219 132.22705078 C244.54650596 165.53963133 256.37622098 205.6225157 256.578125 244.10546875 C256.58513931 245.00600983 256.59215363 245.9065509 256.59938049 246.8343811 C256.61677902 249.72297226 256.6232324 252.61135837 256.625 255.5 C256.62601212 256.98105728 256.62601212 256.98105728 256.62704468 258.49203491 C256.61129657 272.98338264 256.15841075 287.05270251 253.375 301.3125 C253.21402832 302.20952637 253.05305664 303.10655273 252.88720703 304.03076172 C246.51834782 339.22773292 232.43138882 373.05644955 211.9375 402.375 C211.536521 402.95330566 211.13554199 403.53161133 210.72241211 404.12744141 C208.59052639 407.06930863 206.86619884 409.13922826 203.375 410.3125 C199.94911097 410.52224831 197.6427722 410.4017574 194.375 409.3125 C192.50805812 411.40646201 190.65673824 413.51120197 188.8125 415.625 C188.01295898 416.51735352 188.01295898 416.51735352 187.19726562 417.42773438 C185.84386798 418.99069037 184.6005136 420.64737746 183.375 422.3125 C183.705 423.3025 184.035 424.2925 184.375 425.3125 C184.96573995 430.29159384 185.12154547 434.06825756 182.5 438.4375 C178.06579824 441.09802106 174.40612632 440.68063119 169.375 440.3125 C163.48500883 440.3125 160.05613714 443.7462073 155.82421875 447.51171875 C153.20555047 450.01387038 153.20555047 450.01387038 152.95703125 452.76953125 C153.30650753 455.05519126 153.30650753 455.05519126 154.125 457.109375 C154.375 459.3125 154.375 459.3125 152.9140625 462.25 C149.88403324 465.90468145 146.76176434 468.0943541 142.75 470.5625 C142.00145752 471.03284668 141.25291504 471.50319336 140.48168945 471.98779297 C111.02245593 490.29821714 79.61533184 503.16806107 45.375 509.3125 C44.54371582 509.47476074 43.71243164 509.63702148 42.85595703 509.80419922 C15.23848528 515.07944663 -17.07902542 514.87006833 -44.625 509.3125 C-45.52686035 509.13557617 -46.4287207 508.95865234 -47.35791016 508.77636719 C-53.83099895 507.47748713 -60.23388488 505.96592874 -66.625 504.3125 C-67.44500488 504.10286621 -68.26500977 503.89323242 -69.10986328 503.67724609 C-109.44828193 493.12769791 -146.68153189 471.15233743 -176.625 442.3125 C-177.28435547 441.68037598 -177.94371094 441.04825195 -178.62304688 440.39697266 C-187.57047315 431.77375804 -195.98417251 423.0500903 -203.35107422 413.03076172 C-204.64750666 411.28214318 -205.97788718 409.56421197 -207.31640625 407.84765625 C-230.04216568 378.32684615 -244.43532221 342.37851684 -251.875 306.0625 C-252.10159302 304.96723999 -252.10159302 304.96723999 -252.33276367 303.84985352 C-255.36488317 288.1556851 -255.9982107 272.63266136 -255.9375 256.6875 C-255.93534485 255.66926147 -255.9331897 254.65102295 -255.93096924 253.60192871 C-255.88126609 238.9777116 -255.56707988 224.68445362 -252.625 210.3125 C-252.33496094 208.81759033 -252.33496094 208.81759033 -252.0390625 207.29248047 C-244.41040781 168.68418872 -228.69757683 132.53083121 -204.625 101.3125 C-203.66013672 100.05953125 -203.66013672 100.05953125 -202.67578125 98.78125 C-188.57295377 80.82715922 -172.21896589 63.63892592 -153.625 50.3125 C-153.08327148 49.920625 -152.54154297 49.52875 -151.98339844 49.125 C-121.06865283 26.84146078 -86.69401468 11.73961685 -49.375 4.0625 C-48.64442383 3.91127686 -47.91384766 3.76005371 -47.16113281 3.60424805 C-31.46684491 0.57387475 -15.9450952 -0.06071045 0 0 Z " fill="#FE6876" transform="translate(255.625,-0.3125)"/>
<path d="M0 0 C1.01823853 0.00215515 2.03647705 0.0043103 3.08557129 0.00653076 C17.7097884 0.05623391 32.00304638 0.37042012 46.375 3.3125 C47.37160645 3.50585938 48.36821289 3.69921875 49.39501953 3.8984375 C97.79648057 13.46213524 141.99059771 35.87987765 177.375 70.3125 C178.37877686 71.27760498 178.37877686 71.27760498 179.40283203 72.26220703 C188.8806517 81.39778993 197.60906957 90.68060785 205.375 101.3125 C206.23306152 102.46355017 207.09113451 103.61459177 207.94921875 104.765625 C213.98736829 112.95680614 219.34595521 121.47054105 224.375 130.3125 C224.73948242 130.94430176 225.10396484 131.57610352 225.47949219 132.22705078 C244.54650596 165.53963133 256.37622098 205.6225157 256.578125 244.10546875 C256.58513931 245.00600983 256.59215363 245.9065509 256.59938049 246.8343811 C256.61677902 249.72297226 256.6232324 252.61135837 256.625 255.5 C256.62601212 256.98105728 256.62601212 256.98105728 256.62704468 258.49203491 C256.61129657 272.98338264 256.15841075 287.05270251 253.375 301.3125 C253.21402832 302.20952637 253.05305664 303.10655273 252.88720703 304.03076172 C246.51834782 339.22773292 232.43138882 373.05644955 211.9375 402.375 C211.536521 402.95330566 211.13554199 403.53161133 210.72241211 404.12744141 C208.58548 407.07627233 206.85747045 409.10620096 203.375 410.3125 C199.28852215 410.93435533 197.66853861 410.48419239 194.0625 408.375 C191.02726197 405.51299019 190.44865935 402.92772766 190.11401367 398.85229492 C190.63538922 393.77851588 193.81130186 390.00317176 196.6875 385.9375 C197.99497699 383.98406809 199.29699778 382.02697403 200.59375 380.06640625 C201.23957031 379.09590332 201.88539063 378.12540039 202.55078125 377.12548828 C216.35549437 355.83829549 224.10892495 331.70171329 230.375 307.3125 C230.55788574 306.61914551 230.74077148 305.92579102 230.92919922 305.21142578 C235.12155295 289.25106158 235.78315834 273.2796042 235.75 256.875 C235.74968277 255.42225174 235.74968277 255.42225174 235.74935913 253.94015503 C235.71615455 238.67690742 234.73281296 224.24469699 231.375 209.3125 C231.00780759 207.51589163 230.6419197 205.71901614 230.27734375 203.921875 C222.97684266 169.44517957 206.75313305 136.48292336 184.375 109.3125 C183.92721191 108.76319824 183.47942383 108.21389648 183.01806641 107.64794922 C172.09279328 94.3150907 160.12550722 81.75687434 146.375 71.3125 C145.81876953 70.88517578 145.26253906 70.45785156 144.68945312 70.01757812 C135.63263722 63.08483631 126.30306075 56.92052624 116.375 51.3125 C115.73401367 50.94415039 115.09302734 50.57580078 114.43261719 50.19628906 C67.93517729 23.64277336 10.94539884 14.81717835 -41.625 24.3125 C-42.388125 24.44640137 -43.15125 24.58030273 -43.9375 24.71826172 C-99.83111338 34.86619989 -154.26119137 68.09233654 -187.625 114.3125 C-188.07681641 114.93592285 -188.52863281 115.5593457 -188.99414062 116.20166016 C-214.19492399 151.2624703 -228.38353721 189.49287485 -233.625 232.3125 C-233.72143799 233.0250293 -233.81787598 233.73755859 -233.91723633 234.47167969 C-237.72188299 264.40743918 -233.83471976 296.67363724 -224.625 325.3125 C-224.27961182 326.39337891 -224.27961182 326.39337891 -223.92724609 327.49609375 C-214.93905968 355.28721933 -201.88616945 380.49069823 -183.625 403.3125 C-183.18365723 403.86953613 -182.74231445 404.42657227 -182.28759766 405.00048828 C-171.57867344 418.42185703 -159.31592492 430.93943154 -145.625 441.3125 C-145.09680664 441.72242188 -144.56861328 442.13234375 -144.02441406 442.5546875 C-114.80278182 465.19517276 -80.47677961 481.4046261 -43.99716187 487.88783264 C-42.49055456 488.15754735 -40.98503548 488.43347207 -39.48110962 488.71775818 C-27.29703995 491.01554642 -15.45454654 491.7857871 -3.06420898 491.70361328 C-0.19271232 491.6875292 2.67737354 491.70357031 5.54882812 491.72265625 C18.07337508 491.73616651 30.05768947 490.53581871 42.375 488.3125 C43.08706604 488.18791916 43.79913208 488.06333832 44.53277588 487.9349823 C77.68662582 482.13303397 110.42415179 467.48991497 137.6953125 447.93359375 C141.27843903 445.76595889 143.24572803 445.90458543 147.25 446.57421875 C151.09926583 447.91155559 152.32332712 449.8048012 154.375 453.3125 C155.08961399 457.12377459 154.67024063 458.77085553 152.81640625 462.171875 C149.86948152 465.96279898 146.80040683 468.0705802 142.75 470.5625 C142.00145752 471.03284668 141.25291504 471.50319336 140.48168945 471.98779297 C111.02245593 490.29821714 79.61533184 503.16806107 45.375 509.3125 C44.54371582 509.47476074 43.71243164 509.63702148 42.85595703 509.80419922 C15.23848528 515.07944663 -17.07902542 514.87006833 -44.625 509.3125 C-45.52686035 509.13557617 -46.4287207 508.95865234 -47.35791016 508.77636719 C-53.83099895 507.47748713 -60.23388488 505.96592874 -66.625 504.3125 C-67.44500488 504.10286621 -68.26500977 503.89323242 -69.10986328 503.67724609 C-109.44828193 493.12769791 -146.68153189 471.15233743 -176.625 442.3125 C-177.28435547 441.68037598 -177.94371094 441.04825195 -178.62304688 440.39697266 C-187.57047315 431.77375804 -195.98417251 423.0500903 -203.35107422 413.03076172 C-204.64750666 411.28214318 -205.97788718 409.56421197 -207.31640625 407.84765625 C-230.04216568 378.32684615 -244.43532221 342.37851684 -251.875 306.0625 C-252.10159302 304.96723999 -252.10159302 304.96723999 -252.33276367 303.84985352 C-255.36488317 288.1556851 -255.9982107 272.63266136 -255.9375 256.6875 C-255.93534485 255.66926147 -255.9331897 254.65102295 -255.93096924 253.60192871 C-255.88126609 238.9777116 -255.56707988 224.68445362 -252.625 210.3125 C-252.33496094 208.81759033 -252.33496094 208.81759033 -252.0390625 207.29248047 C-244.41040781 168.68418872 -228.69757683 132.53083121 -204.625 101.3125 C-203.66013672 100.05953125 -203.66013672 100.05953125 -202.67578125 98.78125 C-188.57295377 80.82715922 -172.21896589 63.63892592 -153.625 50.3125 C-153.08327148 49.920625 -152.54154297 49.52875 -151.98339844 49.125 C-121.06865283 26.84146078 -86.69401468 11.73961685 -49.375 4.0625 C-48.64442383 3.91127686 -47.91384766 3.76005371 -47.16113281 3.60424805 C-31.46684491 0.57387475 -15.9450952 -0.06071045 0 0 Z " fill="#010000" transform="translate(255.625,-0.3125)"/>
<path d="M0 0 C3.76365776 3.18963301 7.49618133 6.3777665 11.0234375 9.83056641 C12.07857544 10.86160995 12.07857544 10.86160995 13.1550293 11.91348267 C16.2866231 15.00008973 19.41586306 18.08895642 22.53662109 21.18652344 C24.18790686 22.82111633 25.84455712 24.45030655 27.50634766 26.07421875 C29.91215691 28.42559793 32.30140505 30.79270082 34.6875 33.1640625 C35.81067627 34.25323471 35.81067627 34.25323471 36.95654297 35.3644104 C37.63475098 36.04546844 38.31295898 36.72652649 39.01171875 37.42822266 C39.61459717 38.02301422 40.21747559 38.61780579 40.83862305 39.23062134 C42 41 42 41 41.74102783 42.92001724 C40.9164717 45.23445466 40.04020504 46.32795599 38.30493164 48.04910278 C37.73283966 48.6238736 37.16074768 49.19864441 36.57131958 49.79083252 C35.94063568 50.40915955 35.30995178 51.02748657 34.66015625 51.66455078 C33.66748245 52.65547226 33.66748245 52.65547226 32.65475464 53.66641235 C30.46422022 55.84975514 28.26336836 58.02239124 26.0625 60.1953125 C24.54102429 61.7086538 23.02028169 63.22273249 21.50024414 64.73751831 C17.49570157 68.72493043 13.48267727 72.70369175 9.46740723 76.68029785 C3.03778439 83.05075531 -3.37921561 89.43392214 -9.79568481 95.81762314 C-12.04265622 98.05059238 -14.29337738 100.27972757 -16.54467773 102.5083313 C-17.91658502 103.87021858 -19.28841542 105.23218333 -20.66015625 106.59423828 C-21.29084015 107.21661377 -21.92152405 107.83898926 -22.57131958 108.48022461 C-26.96110104 112.81697888 -26.96110104 112.81697888 -28.5 118.625 C-28.24790233 128.65669599 -13.06747511 139.05624919 -6.31640625 145.78125 C-4.89129587 147.20449244 -3.46640824 148.62795794 -2.04173279 150.05163574 C1.68617009 153.77574302 5.41706756 157.49683584 9.14862061 161.21728516 C12.9648443 165.02323076 16.77819517 168.83205245 20.59179688 172.640625 C28.05840678 180.09654981 35.528187 187.54928963 43 195 C39.77736442 198.81296792 36.55310331 202.57297152 33.01416016 206.09936523 C32.29386627 206.81958359 31.57357239 207.53980194 30.83145142 208.28184509 C30.07496307 209.03317215 29.31847473 209.78449921 28.5390625 210.55859375 C27.3532106 211.74232323 27.3532106 211.74232323 26.1434021 212.94996643 C23.63962374 215.44818661 21.13237525 217.94289044 18.625 220.4375 C16.91773752 222.13974208 15.21070391 223.84221373 13.50390625 225.54492188 C9.33858075 229.69927389 5.17020328 233.85054509 1 238 C-3.76915308 234.02204082 -8.2674729 229.86978643 -12.63793945 225.4597168 C-13.25997757 224.83621841 -13.88201569 224.21272003 -14.52290344 223.57032776 C-15.86023255 222.2292203 -17.19640624 220.88695984 -18.53151894 219.54364586 C-20.64314216 217.41917618 -22.75794638 215.29791906 -24.87358093 213.17744446 C-29.35604367 208.68360505 -33.83454444 204.18583006 -38.3125 199.6875 C-43.52024739 194.45615862 -48.72960229 189.2264392 -53.94316673 184.00089455 C-56.02920693 181.90836023 -58.11222087 179.81284464 -60.19514465 177.71720886 C-61.46629377 176.44242942 -62.73758225 175.16778894 -64.0090332 173.89331055 C-64.8794223 173.01517197 -64.8794223 173.01517197 -65.76739502 172.11929321 C-69.19350718 168.69272632 -70.77003712 167.16965005 -75.625 166.5 C-85.12626696 166.73582745 -94.08144358 180.02620715 -100.39092255 186.4380188 C-103.16617279 189.25566912 -105.95104544 192.06372809 -108.73532486 194.87245178 C-113.90539719 200.08814794 -119.07134499 205.30778218 -124.22119141 210.54345703 C-127.81823488 214.19970955 -131.42721705 217.84378763 -135.04453278 221.47998047 C-136.41902434 222.86623919 -137.78896176 224.25702856 -139.15425873 225.65234375 C-141.05476141 227.59362207 -142.97006034 229.51902532 -144.88964844 231.44140625 C-145.73286903 232.31394798 -145.73286903 232.31394798 -146.59312439 233.20411682 C-148.18109131 234.77563477 -148.18109131 234.77563477 -151 237 C-154.77787871 236.52380434 -156.4795258 234.8861749 -159.12597656 232.21459961 C-160.32676849 231.01346779 -160.32676849 231.01346779 -161.55181885 229.78807068 C-162.40612488 228.91828079 -163.26043091 228.04849091 -164.140625 227.15234375 C-165.02280701 226.2659169 -165.90498901 225.37949005 -166.81390381 224.46620178 C-169.15378577 222.11236944 -171.48695398 219.75226246 -173.81713867 217.38885498 C-176.19814663 214.97711583 -178.58770853 212.57388521 -180.9765625 210.16992188 C-185.6589678 205.45441941 -190.33270728 200.73045844 -195 196 C-191.02204082 191.23084692 -186.86978643 186.7325271 -182.4597168 182.36206055 C-181.83621841 181.74002243 -181.21272003 181.11798431 -180.57032776 180.47709656 C-179.2292203 179.13976745 -177.88695984 177.80359376 -176.54364586 176.46848106 C-174.41917618 174.35685784 -172.29791906 172.24205362 -170.17744446 170.12641907 C-165.68360505 165.64395633 -161.18583006 161.16545556 -156.6875 156.6875 C-151.45615862 151.47975261 -146.2264392 146.27039771 -141.00089455 141.05683327 C-138.90836023 138.97079307 -136.81284464 136.88777913 -134.71720886 134.80485535 C-133.44242942 133.53370623 -132.16778894 132.26241775 -130.89331055 130.9909668 C-130.30788483 130.4107074 -129.72245911 129.830448 -129.11929321 129.23260498 C-125.69272632 125.80649282 -124.16965005 124.22996288 -123.5 119.375 C-123.75209767 109.34330401 -138.93252489 98.94375081 -145.68359375 92.21875 C-147.10870413 90.79550756 -148.53359176 89.37204206 -149.95826721 87.94836426 C-153.68617009 84.22425698 -157.41706756 80.50316416 -161.14862061 76.78271484 C-164.9648443 72.97676924 -168.77819517 69.16794755 -172.59179688 65.359375 C-180.05840678 57.90345019 -187.528187 50.45071037 -195 43 C-191.81036699 39.23634224 -188.6222335 35.50381867 -185.16943359 31.9765625 C-184.48207123 31.27313721 -183.79470886 30.56971191 -183.08651733 29.8449707 C-179.99991027 26.7133769 -176.91104358 23.58413694 -173.81347656 20.46337891 C-172.17888367 18.81209314 -170.54969345 17.15544288 -168.92578125 15.49365234 C-166.57440207 13.08784309 -164.20729918 10.69859495 -161.8359375 8.3125 C-161.10982269 7.56371582 -160.38370789 6.81493164 -159.6355896 6.04345703 C-158.95453156 5.36524902 -158.27347351 4.68704102 -157.57177734 3.98828125 C-156.97698578 3.38540283 -156.38219421 2.78252441 -155.76937866 2.16137695 C-154 1 -154 1 -152.07998276 1.25897217 C-149.76554534 2.0835283 -148.67204401 2.95979496 -146.95089722 4.69506836 C-146.3761264 5.26716034 -145.80135559 5.83925232 -145.20916748 6.42868042 C-144.59084045 7.05936432 -143.97251343 7.69004822 -143.33544922 8.33984375 C-142.6748349 9.00162628 -142.01422058 9.66340881 -141.33358765 10.34524536 C-139.15024486 12.53577978 -136.97760876 14.73663164 -134.8046875 16.9375 C-133.2913462 18.45897571 -131.77726751 19.97971831 -130.26248169 21.49975586 C-126.27506957 25.50429843 -122.29630825 29.51732273 -118.31970215 33.53259277 C-111.94924469 39.96221561 -105.56607786 46.37921561 -99.18237686 52.79568481 C-96.94940762 55.04265622 -94.72027243 57.29337738 -92.4916687 59.54467773 C-91.12978142 60.91658502 -89.76781667 62.28841542 -88.40576172 63.66015625 C-87.47219849 64.6061821 -87.47219849 64.6061821 -86.51977539 65.57131958 C-82.18302112 69.96110104 -82.18302112 69.96110104 -76.375 71.5 C-66.34330401 71.24790233 -55.94375081 56.06747511 -49.21875 49.31640625 C-47.79550756 47.89129587 -46.37204206 46.46640824 -44.94836426 45.04173279 C-41.22425698 41.31382991 -37.50316416 37.58293244 -33.78271484 33.85137939 C-29.97676924 30.0351557 -26.16794755 26.22180483 -22.359375 22.40820312 C-14.90345019 14.94159322 -7.45071037 7.471813 0 0 Z " fill="#FDFDFD" transform="translate(332,137)"/>
<path d="M0 0 C2.88365734 1.80457688 5.10478961 4.08828942 7.44750977 6.53930664 C8.13157394 7.22220261 8.81563812 7.90509857 9.52043152 8.60868835 C11.76359219 10.85739649 13.97712326 13.13303761 16.19140625 15.41015625 C17.74620499 16.97988499 19.30278642 18.54784984 20.86106873 20.11412048 C24.94778751 24.23131159 29.00990772 28.37195921 33.06732178 32.51800537 C37.21580137 36.74847834 41.38716262 40.95625509 45.55664062 45.16601562 C53.72694642 53.42199148 61.87143802 61.70293577 70 70 C72.82005427 68.71570457 74.86799815 67.37962327 77.04910278 65.18467712 C77.6238736 64.61121048 78.19864441 64.03774384 78.79083252 63.44689941 C79.40915955 62.81981079 80.02748657 62.19272217 80.66455078 61.54663086 C81.3251651 60.8847023 81.98577942 60.22277374 82.66641235 59.54078674 C84.84734561 57.353366 87.02122052 55.15906234 89.1953125 52.96484375 C90.70887216 51.44501403 92.2229479 49.92569809 93.73751831 48.40687561 C97.72270429 44.40838592 101.70228536 40.4043678 105.68029785 36.39874268 C112.05383994 29.98207805 118.43412005 23.57213027 124.81762314 17.16537666 C127.05024709 14.9225013 129.27944313 12.67625936 131.5083313 10.42967224 C132.87018578 9.06099241 134.23214882 7.69242059 135.59423828 6.32397461 C136.21661377 5.69486176 136.83898926 5.0657489 137.48022461 4.41757202 C142.74068331 -0.85689583 142.74068331 -0.85689583 146.75 -1.3125 C153.19518622 -0.69277056 157.52035356 4.22918692 161.89770508 8.65478516 C162.45292847 9.2081102 163.00815186 9.76143524 163.5802002 10.33152771 C165.39822092 12.14586953 167.20898505 13.96726421 169.01953125 15.7890625 C170.28614904 17.05687339 171.55313781 18.32431374 172.82048035 19.59140015 C175.46701036 22.23948981 178.1101596 24.89089214 180.75073242 27.54492188 C184.1396851 30.95092448 187.5352444 34.35024617 190.93311024 37.74735451 C193.54556814 40.36008384 196.15541574 42.97540716 198.7643795 45.59162521 C200.01613958 46.84657139 201.26850971 48.10090936 202.52149391 49.35463333 C204.26662043 51.10192057 206.00841896 52.85245585 207.74926758 54.60400391 C208.5292234 55.38327995 208.5292234 55.38327995 209.32493591 56.17829895 C213.93296039 60.82793408 213.93296039 60.82793408 214.10880375 63.90223598 C213.6940697 70.70599166 211.28608623 73.83532463 206.46069336 78.44750977 C205.77779739 79.13157394 205.09490143 79.81563812 204.39131165 80.52043152 C202.14260351 82.76359219 199.86696239 84.97712326 197.58984375 87.19140625 C196.02011501 88.74620499 194.45215016 90.30278642 192.88587952 91.86106873 C188.76868841 95.94778751 184.62804079 100.00990772 180.48199463 104.06732178 C176.25152166 108.21580137 172.04374491 112.38716262 167.83398438 116.55664062 C159.57800852 124.72694642 151.29706423 132.87143802 143 141 C144.28429543 143.82005427 145.62037673 145.86799815 147.81532288 148.04910278 C148.38878952 148.6238736 148.96225616 149.19864441 149.55310059 149.79083252 C150.18018921 150.40915955 150.80727783 151.02748657 151.45336914 151.66455078 C152.1152977 152.3251651 152.77722626 152.98577942 153.45921326 153.66641235 C155.646634 155.84734561 157.84093766 158.02122052 160.03515625 160.1953125 C161.55498597 161.70887216 163.07430191 163.2229479 164.59312439 164.73751831 C168.59161408 168.72270429 172.5956322 172.70228536 176.60125732 176.68029785 C183.01792195 183.05383994 189.42786973 189.43412005 195.83462334 195.81762314 C198.0774987 198.05024709 200.32374064 200.27944313 202.57032776 202.5083313 C203.93900759 203.87018578 205.30757941 205.23214882 206.67602539 206.59423828 C207.61969467 207.52780151 207.61969467 207.52780151 208.58242798 208.48022461 C213.85689583 213.74068331 213.85689583 213.74068331 214.3125 217.75 C213.69820914 224.13862498 208.85273517 228.44134065 204.46875 232.79003906 C203.65821167 233.60583435 203.65821167 233.60583435 202.83129883 234.43811035 C201.05916712 236.21898324 199.27989364 237.99251232 197.5 239.765625 C196.25947326 241.00750018 195.01924345 242.24967202 193.77929688 243.49212646 C191.18683138 246.08753256 188.59080302 248.67930668 185.9921875 251.26855469 C182.66311645 254.58620805 179.34313686 257.91279174 176.02575684 261.24213028 C173.46947021 263.80564386 170.90843934 266.36437498 168.34594727 268.92168427 C167.11968204 270.14661655 165.8948974 271.37303289 164.67163086 272.60095978 C162.96296476 274.31470736 161.24801437 276.02190921 159.53125 277.72753906 C159.02827393 278.2345636 158.52529785 278.74158813 158.00708008 279.26397705 C154.59428561 282.63589973 151.9458245 284.60199044 147.25 285.5625 C137.58469955 283.88965954 127.98354066 270.10741919 121.21875 263.31640625 C119.79550756 261.89129587 118.37204206 260.46640824 116.94836426 259.04173279 C113.22425698 255.31382991 109.50316416 251.58293244 105.78271484 247.85137939 C101.97676924 244.0351557 98.16794755 240.22180483 94.359375 236.40820312 C86.90345019 228.94159322 79.45071037 221.471813 72 214 C69.18165654 215.28143138 67.15676604 216.60222391 64.9980011 218.81532288 C64.43334641 219.38878952 63.86869171 219.96225616 63.28692627 220.55310059 C62.3759317 221.49373352 62.3759317 221.49373352 61.4465332 222.45336914 C60.79716293 223.1152977 60.14779266 223.77722626 59.47874451 224.45921326 C58.07007902 225.8955579 56.66352636 227.33397702 55.25884438 228.77421761 C53.03236075 231.05401786 50.79717448 233.32491851 48.55888367 235.59312439 C42.19551939 242.0419509 35.83727555 248.49550775 29.51196289 254.98168945 C25.64080687 258.95 21.75030194 262.8984174 17.84651756 266.83462334 C16.36444765 268.33646753 14.88971473 269.84558964 13.42263222 271.36207771 C11.36677119 273.48560116 9.28713113 275.58285177 7.20043945 277.67602539 C6.30462662 278.61969467 6.30462662 278.61969467 5.39071655 279.58242798 C1.51789364 283.40100165 -1.52546901 284.9269064 -7.01375675 285.16069126 C-9.72386869 284.9414375 -10.91697811 284.28553029 -12.79345703 282.32104492 C-13.77430267 281.34184586 -13.77430267 281.34184586 -14.77496338 280.34286499 C-15.50922546 279.56971954 -16.24348755 278.7965741 -17 278 C-18.39964474 276.63327387 -19.799514 275.26676981 -21.2032299 273.90422535 C-23.92702755 271.24736598 -26.61331104 268.55290803 -29.3046875 265.86328125 C-30.47666423 264.69452393 -31.64871344 263.52583929 -32.8208313 262.35722351 C-35.26155579 259.92244988 -37.70024246 257.48565607 -40.13769531 255.04760742 C-43.25970983 251.92549067 -46.38858609 248.81034779 -49.51920891 245.69686604 C-51.93496282 243.29222172 -54.34616716 240.88305523 -56.75610733 238.47258568 C-57.90833345 237.32153811 -59.06217804 236.17210827 -60.21767807 235.02434731 C-61.82812955 233.4236891 -63.4321269 231.81682452 -65.03466797 230.20825195 C-66.40412064 228.84093681 -66.40412064 228.84093681 -67.80123901 227.44599915 C-70.51904782 224.42258821 -71.75380448 222.20362255 -72.5625 218.25 C-70.88965954 208.58469955 -57.10741919 198.98354066 -50.31640625 192.21875 C-48.89129587 190.79550756 -47.46640824 189.37204206 -46.04173279 187.94836426 C-42.31382991 184.22425698 -38.58293244 180.50316416 -34.85137939 176.78271484 C-31.0351557 172.97676924 -27.22180483 169.16794755 -23.40820312 165.359375 C-15.94159322 157.90345019 -8.471813 150.45071037 -1 143 C-2.28143138 140.18165654 -3.60222391 138.15676604 -5.81532288 135.9980011 C-6.38878952 135.43334641 -6.96225616 134.86869171 -7.55310059 134.28692627 C-8.18018921 133.67959656 -8.80727783 133.07226685 -9.45336914 132.4465332 C-10.1152977 131.79716293 -10.77722626 131.14779266 -11.45921326 130.47874451 C-12.8955579 129.07007902 -14.33397702 127.66352636 -15.77421761 126.25884438 C-18.05401786 124.03236075 -20.32491851 121.79717448 -22.59312439 119.55888367 C-29.0419509 113.19551939 -35.49550775 106.83727555 -41.98168945 100.51196289 C-45.95 96.64080687 -49.8984174 92.75030194 -53.83462334 88.84651756 C-55.33646753 87.36444765 -56.84558964 85.88971473 -58.36207771 84.42263222 C-60.48560116 82.36677119 -62.58285177 80.28713113 -64.67602539 78.20043945 C-65.30513824 77.6032309 -65.9342511 77.00602234 -66.58242798 76.39071655 C-70.4017403 72.5171445 -71.92594617 69.4743367 -72.15942097 63.98512745 C-71.94239584 61.28270659 -71.29816022 60.09441292 -69.33911133 58.22241211 C-68.35982162 57.24146072 -68.35982162 57.24146072 -67.36074829 56.24069214 C-66.58170135 55.50126373 -65.80265442 54.76183533 -65 54 C-63.60462354 52.57519893 -62.20945956 51.15018344 -60.8179121 49.72164249 C-58.09330466 46.93834891 -55.33103943 44.19272848 -52.57421875 41.44140625 C-51.37817547 40.2446882 -50.18228057 39.04782184 -48.98652649 37.85081482 C-46.49613645 35.35895937 -44.00396881 32.86889957 -41.51049805 30.38012695 C-38.31144734 27.18681023 -35.11695746 23.98897432 -31.92375469 20.78981113 C-29.46266317 18.32511436 -26.9992053 15.86279391 -24.5350132 13.40119743 C-23.3552895 12.22214118 -22.17630919 11.04234063 -20.99808311 9.8617878 C-19.35879085 8.21996561 -17.71634447 6.58136639 -16.07299805 4.94360352 C-15.1392485 4.01064957 -14.20549896 3.07769562 -13.24345398 2.11647034 C-9.05108067 -1.8386069 -5.38940275 -1.47997372 0 0 Z M144.23573303 25.65074158 C142.98539327 26.90123138 141.73787037 28.154541 140.49243164 29.40991211 C139.47290657 30.43162758 139.47290657 30.43162758 138.43278503 31.47398376 C136.9513144 32.9592717 135.47100042 34.44571398 133.99168587 35.93314934 C131.65363707 38.28389834 129.3125336 40.63156459 126.9705658 42.97840881 C121.15296984 48.80941762 115.34077555 54.64580151 109.52838135 60.48199463 C104.62235554 65.40770478 99.71432322 70.33139856 94.80355644 75.25238228 C92.49151498 77.57093194 90.18249433 79.89246225 87.87355042 82.21409607 C86.46150212 83.62977568 85.04931392 85.04531577 83.63696289 86.46069336 C82.99117279 87.11164978 82.34538269 87.7626062 81.68002319 88.43328857 C81.08972824 89.02365402 80.49943329 89.61401947 79.89125061 90.22227478 C79.37818894 90.73755706 78.86512728 91.25283934 78.33651829 91.78373623 C75.604684 94.26977111 72.80811033 94.5355707 69.17169189 94.4453125 C60.89759815 92.74868261 52.41624744 80.46333698 46.60907745 74.5619812 C43.83382721 71.74433088 41.04895456 68.93627191 38.26467514 66.12754822 C33.09460281 60.91185206 27.92865501 55.69221782 22.77880859 50.45654297 C19.18176512 46.80029045 15.57278295 43.15621237 11.95546722 39.52001953 C10.58097566 38.13376081 9.21103824 36.74297144 7.84574127 35.34765625 C5.94523859 33.40637793 4.02993966 31.48097468 2.11035156 29.55859375 C1.5482045 28.97689926 0.98605743 28.39520477 0.40687561 27.79588318 C-1.31416281 26.03404837 -1.31416281 26.03404837 -4 24 C-7.77787871 24.47619566 -9.4795258 26.1138251 -12.12597656 28.78540039 C-12.92650452 29.58615494 -13.72703247 30.38690948 -14.55181885 31.21192932 C-15.40612488 32.08171921 -16.26043091 32.95150909 -17.140625 33.84765625 C-18.02280701 34.7340831 -18.90498901 35.62050995 -19.81390381 36.53379822 C-22.15378577 38.88763056 -24.48695398 41.24773754 -26.81713867 43.61114502 C-29.19814663 46.02288417 -31.58770853 48.42611479 -33.9765625 50.83007812 C-38.6589678 55.54558059 -43.33270728 60.26954156 -48 65 C-44.02204082 69.76915308 -39.86978643 74.2674729 -35.4597168 78.63793945 C-34.83621841 79.25997757 -34.21272003 79.88201569 -33.57032776 80.52290344 C-32.2292203 81.86023255 -30.88695984 83.19640624 -29.54364586 84.53151894 C-27.41917618 86.64314216 -25.29791906 88.75794638 -23.17744446 90.87358093 C-18.68360505 95.35604367 -14.18583006 99.83454444 -9.6875 104.3125 C-4.45615862 109.52024739 0.7735608 114.72960229 5.99910545 119.94316673 C8.09163977 122.02920693 10.18715536 124.11222087 12.28279114 126.19514465 C13.55757058 127.46629377 14.83221106 128.73758225 16.10668945 130.0090332 C16.69211517 130.5892926 17.27754089 131.169552 17.88070679 131.76739502 C21.30727368 135.19350718 22.83034995 136.77003712 23.5 141.625 C23.24790233 151.65669599 8.06747511 162.05624919 1.31640625 168.78125 C-0.10870413 170.20449244 -1.53359176 171.62795794 -2.95826721 173.05163574 C-6.68617009 176.77574302 -10.41706756 180.49683584 -14.14862061 184.21728516 C-17.9648443 188.02323076 -21.77819517 191.83205245 -25.59179688 195.640625 C-33.05840678 203.09654981 -40.528187 210.54928963 -48 218 C-44.81036699 221.76365776 -41.6222335 225.49618133 -38.16943359 229.0234375 C-37.48207123 229.72686279 -36.79470886 230.43028809 -36.08651733 231.1550293 C-32.99991027 234.2866231 -29.91104358 237.41586306 -26.81347656 240.53662109 C-25.17888367 242.18790686 -23.54969345 243.84455712 -21.92578125 245.50634766 C-19.57440207 247.91215691 -17.20729918 250.30140505 -14.8359375 252.6875 C-13.74676529 253.81067627 -13.74676529 253.81067627 -12.6355896 254.95654297 C-11.95453156 255.63475098 -11.27347351 256.31295898 -10.57177734 257.01171875 C-9.97698578 257.61459717 -9.38219421 258.21747559 -8.76937866 258.83862305 C-7.07963665 260.22433678 -7.07963665 260.22433678 -5.07998276 259.74102783 C-2.76554534 258.9164717 -1.67204401 258.04020504 0.04910278 256.30493164 C0.6238736 255.73283966 1.19864441 255.16074768 1.79083252 254.57131958 C2.40915955 253.94063568 3.02748657 253.30995178 3.66455078 252.66015625 C4.3251651 251.99837372 4.98577942 251.33659119 5.66641235 250.65475464 C7.84975514 248.46422022 10.02239124 246.26336836 12.1953125 244.0625 C13.7086538 242.54102429 15.22273249 241.02028169 16.73751831 239.50024414 C20.72493043 235.49570157 24.70369175 231.48267727 28.68029785 227.46740723 C35.05075531 221.03778439 41.43392214 214.62078439 47.81762314 208.20431519 C50.05059238 205.95734378 52.27972757 203.70662262 54.5083313 201.45532227 C55.87021858 200.08341498 57.23218333 198.71158458 58.59423828 197.33984375 C59.21661377 196.70915985 59.83898926 196.07847595 60.48022461 195.42868042 C65.70281299 190.17892235 65.70281299 190.17892235 70.625 189.5 C80.65669599 189.75209767 91.05624919 204.93252489 97.78125 211.68359375 C99.20449244 213.10870413 100.62795794 214.53359176 102.05163574 215.95826721 C105.77574302 219.68617009 109.49683584 223.41706756 113.21728516 227.14862061 C117.02323076 230.9648443 120.83205245 234.77819517 124.640625 238.59179688 C132.09654981 246.05840678 139.54928963 253.528187 147 261 C150.81296792 257.77736442 154.57297152 254.55310331 158.09936523 251.01416016 C159.17969276 249.93371933 159.17969276 249.93371933 160.28184509 248.83145142 C161.40883568 247.6967189 161.40883568 247.6967189 162.55859375 246.5390625 C163.34774673 245.74849457 164.13689972 244.95792664 164.94996643 244.1434021 C167.44818661 241.63962374 169.94289044 239.13237525 172.4375 236.625 C174.13974208 234.91773752 175.84221373 233.21070391 177.54492188 231.50390625 C181.69927389 227.33858075 185.85054509 223.17020328 190 219 C186.02204082 214.23084692 181.86978643 209.7325271 177.4597168 205.36206055 C176.83621841 204.74002243 176.21272003 204.11798431 175.57032776 203.47709656 C174.2292203 202.13976745 172.88695984 200.80359376 171.54364586 199.46848106 C169.41917618 197.35685784 167.29791906 195.24205362 165.17744446 193.12641907 C160.68360505 188.64395633 156.18583006 184.16545556 151.6875 179.6875 C146.45615862 174.47975261 141.2264392 169.27039771 136.00089455 164.05683327 C133.90836023 161.97079307 131.81284464 159.88777913 129.71720886 157.80485535 C128.44242942 156.53370623 127.16778894 155.26241775 125.89331055 153.9909668 C125.30788483 153.4107074 124.72245911 152.830448 124.11929321 152.23260498 C120.69272632 148.80649282 119.16965005 147.22996288 118.5 142.375 C118.73582745 132.87373304 132.02620715 123.91855642 138.4380188 117.60907745 C141.25566912 114.83382721 144.06372809 112.04895456 146.87245178 109.26467514 C152.08814794 104.09460281 157.30778218 98.92865501 162.54345703 93.77880859 C166.19970955 90.18176512 169.84378763 86.57278295 173.47998047 82.95546722 C174.86623919 81.58097566 176.25702856 80.21103824 177.65234375 78.84574127 C179.59362207 76.94523859 181.51902532 75.02993966 183.44140625 73.11035156 C184.02310074 72.5482045 184.60479523 71.98605743 185.20411682 71.40687561 C186.96595163 69.68583719 186.96595163 69.68583719 189 67 C188.52389432 63.2289692 186.8919007 61.52169984 184.23046875 58.87402344 C183.43294189 58.07349548 182.63541504 57.27296753 181.8137207 56.44818115 C180.94706787 55.59387512 180.08041504 54.73956909 179.1875 53.859375 C178.30344482 52.97719299 177.41938965 52.09501099 176.50854492 51.18609619 C174.63897444 49.3232493 172.7668999 47.46345196 170.88964844 45.60839844 C168.47830714 43.22542106 166.07580452 40.83377488 163.67637634 38.43880844 C161.39157614 36.15915086 159.10209898 33.88421146 156.8125 31.609375 C155.94584717 30.74697205 155.07919434 29.88456909 154.1862793 28.99603271 C153.38875244 28.2081134 152.59122559 27.42019409 151.76953125 26.60839844 C151.06417236 25.90986755 150.35881348 25.21133667 149.63208008 24.49163818 C146.88493582 21.98088805 147.22229095 22.78683829 144.23573303 25.65074158 Z " fill="#010101" transform="translate(185,114)"/>
<path d="M0 0 C3.77666377 0.08165759 6.41259926 0.90762942 9.23828125 3.6171875 C11.49777888 7.31454726 11.18290408 11.25913577 10.3125 15.375 C8.4375 18.5 8.4375 18.5 5.3125 20.375 C1.19663577 21.24540408 -2.74795274 21.56027888 -6.4453125 19.30078125 C-9.00420498 16.63222194 -10.0398582 13.90455572 -10.3125 10.3125 C-9.57360658 5.65747148 -8.29753331 4.28063656 -4.6875 1.375 C-3.6875 0.375 -3.6875 0.375 0 0 Z " fill="#040102" transform="translate(429.6875,419.625)"/>
</svg>
