<?xml version="1.0" encoding="UTF-8"?>
<svg version="1.1" xmlns="http://www.w3.org/2000/svg" width="512" height="512">
<path d="M0 0 C4.96286442 2.91497493 8.81850844 6.53506748 12.85821533 10.60424805 C13.85609168 11.59744442 13.85609168 11.59744442 14.87412715 12.61070538 C17.09436001 14.82298282 19.30740147 17.04231385 21.52050781 19.26171875 C23.11377244 20.85227248 24.70746205 22.44240061 26.30154419 24.03213501 C30.62405799 28.34553578 34.94022713 32.66523339 39.25501347 36.98636246 C43.77010405 41.50651685 48.29007258 46.02178922 52.80926514 50.5378418 C60.88116674 58.60587265 68.94801322 66.67893214 77.012889 74.75398433 C84.3254358 82.07547228 91.643219 89.39169212 98.96484375 96.70410156 C107.47128937 105.19984559 115.97436557 113.6989351 124.47250628 122.20298862 C128.96966611 126.70326934 133.46817311 131.20218103 137.97019196 135.69760132 C142.2001578 139.92179992 146.42522031 144.15084178 150.64651108 148.38370895 C152.19843515 149.93828259 153.75207307 151.49114741 155.30752182 153.04219437 C157.42623779 155.15546551 159.53872897 157.27476754 161.64971924 159.39575195 C162.58034207 160.31968262 162.58034207 160.31968262 163.52976537 161.26227856 C164.09435735 161.83208604 164.65894934 162.40189352 165.24065018 162.9889679 C165.72875585 163.47739827 166.21686152 163.96582865 166.71975827 164.46905994 C169.7439212 168.08541775 170.31578622 171.22079685 170.375 175.875 C170.40335937 176.88304687 170.43171875 177.89109375 170.4609375 178.9296875 C169.45366615 185.63913907 164.0212423 190.26622808 159.39575195 194.85821533 C158.73362103 195.52346623 158.07149012 196.18871713 157.38929462 196.87412715 C155.17701718 199.09436001 152.95768615 201.30740147 150.73828125 203.52050781 C149.14772752 205.11377244 147.55759939 206.70746205 145.96786499 208.30154419 C141.65446422 212.62405799 137.33476661 216.94022713 133.01363754 221.25501347 C128.49348315 225.77010405 123.97821078 230.29007258 119.4621582 234.80926514 C111.39412735 242.88116674 103.32106786 250.94801322 95.24601567 259.012889 C87.92452772 266.3254358 80.60830788 273.643219 73.29589844 280.96484375 C64.80015441 289.47128937 56.3010649 297.97436557 47.79701138 306.47250628 C43.29673066 310.96966611 38.79781897 315.46817311 34.30239868 319.97019196 C30.07820008 324.2001578 25.84915822 328.42522031 21.61629105 332.64651108 C20.06171741 334.19843515 18.50885259 335.75207307 16.95780563 337.30752182 C14.84453449 339.42623779 12.72523246 341.53872897 10.60424805 343.64971924 C9.68031738 344.58034207 9.68031738 344.58034207 8.73772144 345.52976537 C8.16791396 346.09435735 7.59810648 346.65894934 7.0110321 347.24065018 C6.52260173 347.72875585 6.03417135 348.21686152 5.53094006 348.71975827 C1.00266609 352.50650698 -3.38341237 352.42349806 -9.0859375 352.3125 C-14.38740101 351.74397844 -16.83972495 349.22134216 -20.375 345.5 C-22.72325726 340.44221514 -22.97097307 335.48314207 -22 330 C-19.34837496 325.56329825 -16.20323552 321.91994564 -12.54571533 318.3052063 C-12.00735227 317.76513439 -11.46898921 317.22506248 -10.91431212 316.66862476 C-9.12108737 314.87212314 -7.32084105 313.08283276 -5.52050781 311.29345703 C-4.22886409 310.00237781 -2.93766132 308.71085733 -1.64686584 307.41893005 C1.85038804 303.92110318 5.35376683 300.42947003 8.85828686 296.93892527 C12.52273294 293.28699552 16.18150279 289.62938791 19.84088135 285.97238159 C26.76765008 279.05182496 33.69950055 272.13638169 40.63319612 265.2227658 C48.52826133 257.35006795 56.41763722 249.47167925 64.30654287 241.59280992 C80.53137742 225.38887125 96.76333538 209.19208407 113 193 C111.89570737 192.99910437 111.89570737 192.99910437 110.76910579 192.99819064 C67.15428596 192.96231127 23.53953543 192.90569476 -20.07522035 192.82207905 C-25.30991225 192.81206137 -30.54460445 192.80221727 -35.77929688 192.79248047 C-37.34252291 192.78956841 -37.34252291 192.78956841 -38.93732928 192.78659752 C-55.82060654 192.75556061 -72.7038702 192.73859215 -89.58717062 192.72680578 C-106.9058085 192.71440298 -124.22437491 192.68692129 -141.54296768 192.64538693 C-152.23294463 192.62022659 -162.92280308 192.60688457 -173.61281006 192.60857043 C-180.93934566 192.60860014 -188.26576037 192.5940079 -195.59224887 192.56783572 C-199.82182427 192.55316089 -204.05115177 192.54501143 -208.28074837 192.55419731 C-212.15233804 192.56246356 -216.02342887 192.55238692 -219.89494441 192.52766338 C-221.2961076 192.5219636 -222.69731781 192.52302018 -224.09846701 192.53148755 C-237.06860774 192.60315751 -237.06860774 192.60315751 -242 188 C-245.62833663 184.18069828 -246.31000458 181.11720994 -246.5 176 C-246.25786196 169.47841558 -244.47711001 166.31223293 -239.7247448 161.87618637 C-234.52433248 158.53598072 -227.97648806 159.44507694 -222.02908325 159.48101807 C-220.58434168 159.47514101 -219.13960634 159.46751302 -217.69488227 159.458287 C-213.7291793 159.43802231 -209.76383395 159.44258171 -205.79810286 159.45119452 C-201.52000866 159.45613681 -197.24200458 159.43805765 -192.96394348 159.42277527 C-185.55335557 159.39945315 -178.14286554 159.39071517 -170.73224258 159.39188385 C-160.01775108 159.39355248 -149.30339014 159.37322451 -138.58893345 159.34752855 C-121.20545419 159.30643591 -103.82199838 159.28313168 -86.43847656 159.27099609 C-69.55206038 159.25916949 -52.66568839 159.23897639 -35.77929688 159.20751953 C-34.73841176 159.20558343 -33.69752664 159.20364733 -32.62509955 159.20165256 C-27.40328223 159.19188805 -22.18146523 159.18195892 -16.95964837 159.17194796 C26.36021285 159.08911058 69.68007559 159.03513447 113 159 C112.31639719 158.31824078 111.63279438 157.63648155 110.92847633 156.93406296 C94.30663709 140.35659332 77.69054393 123.77338144 61.08048439 107.18410873 C53.04790355 99.16184704 45.01345579 91.14147184 36.97460938 83.12548828 C29.96918539 76.13997859 22.96726635 69.15097814 15.96956003 62.15773702 C12.26311222 58.45389991 8.55491524 54.75185252 4.84251785 51.05397797 C1.34988954 47.57490255 -2.13804078 44.09118648 -5.62239265 40.60382271 C-6.90339277 39.32337378 -8.18611373 38.04464384 -9.47065926 36.76775169 C-11.22185342 35.02648275 -12.96679692 33.27918066 -14.71029663 31.5302124 C-15.22196707 31.02436764 -15.73363751 30.51852289 -16.26081312 29.9973495 C-20.74915846 25.47075457 -22.29401952 22.49006543 -22.375 16.125 C-22.27363418 10.91733093 -21.69948398 7.89419367 -18 4 C-12.87322962 -0.87043186 -6.74482111 -1.1943954 0 0 Z " fill="#000000" transform="translate(294,80)"/>
</svg>
