<?xml version="1.0" encoding="UTF-8"?>
<svg version="1.1" xmlns="http://www.w3.org/2000/svg" width="512" height="512">
<path d="M0 0 C6.21726991 4.6753498 11.64277454 10.49010255 17.13531494 15.97468567 C18.02137539 16.85565829 18.90743583 17.73663092 19.82034659 18.64429969 C22.25951418 21.06969073 24.69562765 23.4981285 27.13117456 25.92715466 C29.22532656 28.01489475 31.3212984 30.10080309 33.41728333 32.18670277 C40.31338285 39.04964456 47.20373016 45.91834577 54.09246218 52.78868178 C55.88668012 54.57809693 57.68098766 56.3674222 59.47531414 58.15672851 C70.63278484 69.28324333 81.78811124 80.41190517 92.93851089 91.54550648 C95.51529274 94.11833933 98.09210161 96.69114511 100.66894531 99.26391602 C101.30934485 99.90330719 101.94974439 100.54269837 102.60954997 101.20146503 C112.99489421 111.56978468 123.39223679 121.92598714 133.79444101 132.27738873 C144.48679401 142.91795194 155.16777421 153.56982673 165.83789039 164.23268908 C171.82410231 170.21424308 177.81524176 176.19067418 183.81928253 182.15433693 C188.92904242 187.22977213 194.02847662 192.31530225 199.11477497 197.41425351 C201.70825749 200.01355517 204.30630802 202.60780081 206.91775513 205.18906403 C209.75253218 207.99134194 212.56337168 210.81649364 215.37261963 213.6443634 C216.19595614 214.45090498 217.01929265 215.25744656 217.86757874 216.0884288 C224.15291807 222.47829294 227.92692678 228.92497875 228.5 238 C228.01931951 247.91897195 223.13422067 254.76769884 216.3125 261.5625 C215.59642578 262.29774902 214.88035156 263.03299805 214.14257812 263.79052734 C212.1079473 265.8735798 210.05578611 267.93786397 208 270 C207.08605469 270.93972656 206.17210937 271.87945312 205.23046875 272.84765625 C202.05337028 276.09152386 198.81189626 279.16908645 195.36933327 282.12862015 C191.03553235 285.91597628 186.95742588 289.9141086 182.90316772 293.99676514 C181.74157762 295.16024865 181.74157762 295.16024865 180.55652106 296.34723687 C177.98109141 298.92801293 175.40926987 301.51235418 172.83740234 304.09667969 C170.98415097 305.95512812 169.13065439 307.81333205 167.27693176 309.67131042 C163.29500858 313.66290838 159.31476787 317.65617745 155.3355217 321.65044403 C149.04448774 327.96493045 142.74819847 334.27416243 136.45108032 340.58258057 C134.29347456 342.74418682 132.13590297 344.90582717 129.97834206 347.06747818 C129.43930223 347.60753724 128.90026239 348.1475963 128.34488802 348.70402078 C122.22123184 354.83939923 116.09865863 360.97585787 109.9765625 367.11279297 C109.41743418 367.67327372 108.85830587 368.23375447 108.28223427 368.81121948 C99.20814908 377.90751744 90.13790523 387.00763837 81.06861059 396.10871229 C71.74668843 405.46301834 62.41901433 414.81156282 53.08639681 424.15519834 C47.33493148 429.9138845 41.58824752 435.67726047 35.84763254 441.44676337 C31.45198624 445.86364531 27.04855566 450.27268924 22.64217186 454.6788578 C20.83597546 456.48747976 19.03236338 458.29868676 17.2315197 460.11263847 C14.7755012 462.58578833 12.31043003 465.04954783 9.84286499 467.51116943 C9.13040977 468.2330453 8.41795455 468.95492116 7.68390977 469.69867206 C1.3729407 475.9588361 -4.3466573 478.8495879 -13.25 479.3125 C-20.62106513 479.20230135 -27.14569823 475.78597839 -32.4921875 470.8125 C-37.49008095 464.80466953 -38.44569083 457.83727393 -38.62890625 450.25 C-36.86005162 441.10908663 -31.35437577 434.62838591 -24.88188171 428.28060913 C-24.06906622 427.46352152 -23.25625073 426.6464339 -22.41880447 425.80458605 C-19.70978611 423.08737445 -16.98336733 420.3883473 -14.2565918 417.68896484 C-12.3026683 415.73924267 -10.35253519 413.78574506 -8.40223694 411.83239746 C-4.21047439 407.63802155 -0.00970328 403.45284971 4.19744301 399.27390671 C10.28013315 393.23196627 16.3488611 387.17615755 22.41434243 381.11694725 C32.25710674 371.28510816 42.11096944 361.46447148 51.97192383 351.65087891 C61.54713805 342.12160621 71.11705205 332.58706162 80.67993164 323.04541016 C81.27004315 322.45661227 81.86015465 321.86781438 82.46814833 321.26117413 C85.42872734 318.30712062 88.38920293 315.35296349 91.34962714 312.39875484 C115.88374106 287.91641872 140.43591411 263.45226256 165 239 C163.62895814 235.92517228 162.07076862 233.82475876 159.68845558 231.45632648 C159.00071135 230.76768365 158.31296712 230.07904082 157.60438216 229.36953002 C156.8464195 228.62080365 156.08845685 227.87207728 155.30752563 227.10066223 C154.10250603 225.8983711 154.10250603 225.8983711 152.8731426 224.67179126 C150.17093277 221.97801776 147.46165954 219.29145987 144.75244141 216.60473633 C142.81673983 214.67892501 140.8825924 212.75155583 138.94844055 210.82418823 C134.77761403 206.6693736 130.60342198 202.51796543 126.42720413 198.36857033 C119.82395862 191.80724637 113.23050762 185.23612875 106.63851929 178.66349792 C104.38247898 176.41433765 102.12636277 174.16525353 99.87021446 171.91620159 C99.30636976 171.35412854 98.74252506 170.7920555 98.16159416 170.21294994 C91.74333796 163.81518866 85.32275721 157.41976222 78.90136719 151.02514648 C78.31439632 150.44061817 77.72742546 149.85608986 77.1226676 149.25384858 C67.61437984 139.78555126 58.10018385 130.32320685 48.58467479 120.86216775 C38.81216348 111.14511765 29.04931424 101.41842848 19.29450548 91.68360728 C13.27942844 85.68159497 7.25649022 79.68769398 1.22315703 73.70403238 C-2.91316718 69.60046384 -7.04033199 65.48783033 -11.16046976 61.36801074 C-13.53642516 58.9928207 -15.91747623 56.62341703 -18.30713844 54.26197243 C-20.9009972 51.69750812 -23.47893611 49.11801187 -26.05355835 46.53425598 C-26.80705956 45.79668322 -27.56056077 45.05911046 -28.33689535 44.299187 C-34.47416417 38.08467227 -38.57393056 31.53548663 -38.5625 22.5625 C-38.27953407 14.48853872 -35.63209159 8.15665704 -29.75 2.5625 C-20.80167694 -4.28946972 -9.98087883 -4.78157645 0 0 Z " fill="#000000" transform="translate(161,18)"/>
</svg>
