<?xml version="1.0" encoding="UTF-8"?>
<svg version="1.1" xmlns="http://www.w3.org/2000/svg" width="512" height="512">
<path d="M0 0 C0.82927002 0.00757324 1.65854004 0.01514648 2.51293945 0.02294922 C15.30488646 0.36540095 24.05924801 5.53162621 32.8125 14.5625 C39.30730608 22.10568029 42.69749776 31.65195806 42.875 41.5625 C42.91367187 42.83480469 42.91367187 42.83480469 42.953125 44.1328125 C42.63689398 47.31771063 41.96423517 50.06797907 41.10449219 53.14404297 C40.8290155 54.13516083 40.55353882 55.12627869 40.26971436 56.14743042 C39.95058075 57.28101486 39.95058075 57.28101486 39.625 58.4375 C40.4516085 58.43473462 41.27821699 58.43196924 42.12987423 58.42912006 C62.26163429 58.36280938 82.39337547 58.31319466 102.52522182 58.28206348 C112.26091374 58.26660776 121.99653267 58.24554299 131.73217773 58.21118164 C140.2197406 58.18123965 148.70725059 58.16191559 157.19486481 58.15523452 C161.68720647 58.15133039 166.17939689 58.14218215 170.67168999 58.12030983 C174.90451504 58.0998688 179.13712729 58.09368153 183.36999702 58.09817696 C184.91912113 58.09735515 186.46825273 58.09143497 188.01733398 58.07988358 C200.21762534 57.99340918 209.97567897 59.36914117 219.625 67.4375 C224.2027351 72.34435331 228.625 78.52064563 228.625 85.4375 C229.36105469 85.56125 230.09710938 85.685 230.85546875 85.8125 C239.21116968 87.69813067 246.07587706 93.28748664 250.625 100.4375 C253.72072421 107.79425068 255.68726012 115.29250842 257.32861328 123.08276367 C257.57081982 124.20105183 257.81302635 125.31933998 258.06257248 126.47151566 C258.86415681 130.18129499 259.65470925 133.89333506 260.4453125 137.60546875 C261.01730912 140.26719223 261.59170846 142.92839569 262.16604614 145.58961487 C263.39463474 151.28806379 264.61774313 156.98766553 265.83703613 162.68811035 C267.76352255 171.69445424 269.70080743 180.69845736 271.63964844 189.70214844 C272.29964442 192.76771266 272.95954288 195.83329787 273.61938477 198.89889526 C273.78363339 199.66197443 273.94788201 200.4250536 274.11710787 201.21125638 C275.29089842 206.66538561 276.46308585 212.11985795 277.63452148 217.57449341 C282.07130137 238.23261808 286.52900383 258.8861034 291.0078125 279.53515625 C291.30398212 280.9007485 291.6001514 282.26634082 291.89632034 283.63193321 C293.33555376 290.26770292 294.77527689 296.90336628 296.215271 303.53897095 C297.83044037 310.9818313 299.4449957 318.42482462 301.05908203 325.86791992 C301.31347738 327.0406461 301.56787273 328.21337229 301.82997704 329.42163563 C303.06130929 335.09959437 304.2903648 340.77802726 305.51425171 346.45759583 C307.5402159 355.85413731 309.57304985 365.24814167 311.68359756 374.62611008 C312.54931729 378.47879084 313.40364964 382.33395225 314.25667572 386.18946075 C314.64950878 387.95005124 315.04784913 389.70942473 315.45249176 391.46733856 C322.04765397 420.13152104 322.04765397 420.13152104 314.625 432.4375 C305.86955032 444.36731888 295.16275943 448.1871263 281.09326172 451.14111328 C279.97511959 451.38331982 278.85697746 451.62552635 277.70495224 451.87507248 C273.98993427 452.67763814 270.27236967 453.46768812 266.5546875 454.2578125 C263.89148979 454.82960028 261.22888076 455.40410792 258.56625366 455.97854614 C252.86196628 457.20779319 247.15637564 458.43082161 241.4498291 459.64953613 C232.43439523 461.57500084 223.42161328 463.51269649 214.40917969 465.45214844 C211.34145152 466.11215751 208.27369917 466.7720541 205.20593262 467.43188477 C204.44230062 467.59613339 203.67866861 467.76038201 202.89189625 467.92960787 C197.43285045 469.10357964 191.97341561 470.27573095 186.51379395 471.44702148 C165.84525578 475.88144799 145.18187202 480.33905483 124.5234375 484.8203125 C123.15796281 485.11648185 121.79248811 485.41265113 120.4270134 485.70882034 C113.79208229 487.14800697 107.15727023 488.58774166 100.52252197 490.027771 C93.08010867 491.64307869 85.63752344 493.25759229 78.19482422 494.87158203 C77.02212793 495.12597738 75.84943165 495.38037273 74.64119911 495.64247704 C68.96243185 496.87400103 63.28316294 498.10311006 57.60269165 499.32675171 C48.2148767 501.35024237 38.82987501 503.38110355 29.46217728 505.49609756 C25.61932812 506.36233024 21.77383027 507.21642059 17.92797089 508.06917572 C16.17412074 508.46160438 14.42157254 508.85991292 12.67060089 509.26499176 C-16.80255036 516.08046399 -16.80255036 516.08046399 -29.375 508.4375 C-40.27376286 500.87109269 -44.23591559 491.27214715 -46.875 478.625 C-47.16257064 477.31158489 -47.45174266 475.99851948 -47.74243164 474.68579102 C-48.33950875 471.9731223 -48.9248049 469.25830338 -49.50048828 466.54101562 C-50.21892698 463.15375977 -50.96090788 459.77229721 -51.71359253 456.39250183 C-52.41962326 453.22140388 -53.11612605 450.04823044 -53.8125 446.875 C-54.07160156 445.69897217 -54.33070312 444.52294434 -54.59765625 443.3112793 C-54.83226563 442.21726807 -55.066875 441.12325684 -55.30859375 439.99609375 C-55.6188147 438.56221313 -55.6188147 438.56221313 -55.93530273 437.09936523 C-56.36683056 434.48695664 -56.40610323 432.07871877 -56.375 429.4375 C-57.07720169 429.44638245 -57.77940338 429.45526489 -58.50288391 429.4644165 C-65.16579184 429.54503017 -71.82856091 429.60569949 -78.49184895 429.64474869 C-81.91641087 429.66550031 -85.34056517 429.69358503 -88.76489258 429.73925781 C-92.71430343 429.79159597 -96.66355729 429.81054794 -100.61328125 429.828125 C-101.82518631 429.84877014 -103.03709137 429.86941528 -104.28572083 429.89068604 C-116.00064173 429.89373623 -124.70065395 427.12141099 -133.20703125 418.953125 C-138.34578887 412.99031436 -141.49458127 405.99249444 -141.50922108 398.11434841 C-141.51367892 397.00333907 -141.51813676 395.89232972 -141.52272969 394.74765342 C-141.52254533 393.52200064 -141.52236097 392.29634786 -141.52217102 391.03355408 C-141.52768605 389.08631285 -141.52768605 389.08631285 -141.5333125 387.09973341 C-141.54333712 383.48871401 -141.54705004 379.87771123 -141.54970181 376.26667988 C-141.55360357 372.37488226 -141.5631821 368.48309781 -141.57191467 364.59130859 C-141.59168422 355.18790804 -141.60174659 345.7845064 -141.61064246 336.38109025 C-141.61502516 331.95279056 -141.62039207 327.52449206 -141.62563133 323.09619331 C-141.64264522 308.37477205 -141.65713883 293.65335154 -141.66438007 278.93192196 C-141.66628997 275.11094601 -141.6682103 271.28997007 -141.67016602 267.46899414 C-141.67064976 266.51930764 -141.6711335 265.56962113 -141.6716319 264.59115625 C-141.67993005 249.21096566 -141.70526262 233.8308529 -141.73774669 218.45069628 C-141.77082635 202.65975817 -141.78882971 186.86885959 -141.79202431 171.07788664 C-141.79418873 162.21207674 -141.80292721 153.34638029 -141.82848549 144.48060417 C-141.85020499 136.92896861 -141.85823683 129.37747404 -141.84851871 121.82581078 C-141.8439774 117.97440905 -141.84584999 114.12329816 -141.86528015 110.27193642 C-141.88618929 106.0911974 -141.87591554 101.91110187 -141.86274719 97.73033142 C-141.87371644 96.52029369 -141.88468568 95.31025596 -141.89598733 94.06355041 C-141.80970283 82.70832756 -138.7197601 74.8750288 -130.88671875 66.640625 C-123.76940683 60.39775732 -116.29399914 58.27552009 -107.03613281 58.32397461 C-105.93797997 58.32375557 -105.93797997 58.32375557 -104.81764221 58.3235321 C-102.40443938 58.32422724 -99.9913143 58.33200092 -97.578125 58.33984375 C-95.90232383 58.34170935 -94.22652212 58.34313258 -92.55072021 58.34413147 C-88.14486174 58.34794548 -83.73903634 58.35776624 -79.33319092 58.36883545 C-74.83541308 58.37907357 -70.33762989 58.38363424 -65.83984375 58.38867188 C-57.01821465 58.3993895 -48.19661008 58.41645253 -39.375 58.4375 C-39.69500977 57.33752686 -40.01501953 56.23755371 -40.34472656 55.10424805 C-43.60996481 43.48324964 -42.83129657 31.56594902 -36.984375 20.88671875 C-28.11015988 7.38154185 -16.25883914 -0.20961974 0 0 Z " fill="#D8BA5D" transform="translate(167.375,-0.4375)"/>
<path d="M0 0 C2.13889873 0.0091876 4.27781548 0.01480468 6.41673279 0.01702881 C10.88651919 0.03079184 15.35467002 0.07387912 19.82397461 0.140625 C25.53566854 0.22552168 31.2460794 0.25827012 36.95834446 0.2716713 C42.43072586 0.28718176 47.90278967 0.33076999 53.375 0.375 C54.40993654 0.38064217 55.44487309 0.38628433 56.51117134 0.39209747 C59.45913202 0.41286316 62.40611674 0.45383595 65.35375977 0.50097656 C66.21271347 0.50433014 67.07166718 0.50768372 67.95664978 0.51113892 C77.5729258 0.71348791 85.72779803 3.80241022 93.12109375 9.984375 C99.72587778 17.06401278 102.58196103 24.12342393 102.5087738 33.68658447 C102.51685211 34.96410776 102.51685211 34.96410776 102.52509362 36.2674396 C102.53934943 39.10845501 102.53227527 41.94900292 102.52514648 44.79003906 C102.53085141 46.83231479 102.53781614 48.87458733 102.54594421 50.91685486 C102.56388028 56.45630448 102.56270597 61.99559572 102.55700183 67.53506565 C102.55390966 72.16455815 102.56000298 76.79402024 102.56604058 81.42350841 C102.5800866 92.34991027 102.57852474 103.27623395 102.56713867 114.20263672 C102.55566605 125.46058377 102.56971867 136.71829236 102.59653515 147.97620797 C102.61871893 157.6528911 102.62532322 167.32949953 102.61945873 177.00620627 C102.61609333 182.78064669 102.61847625 188.55493438 102.63570976 194.32935333 C102.65121865 199.76313825 102.64717942 205.19657127 102.62840462 210.63034248 C102.62472921 212.61884813 102.62779644 214.60738008 102.63829041 216.59586143 C102.70178697 229.62806732 102.73661931 240.93610664 93.21332359 250.90113258 C92.52288774 251.58860258 91.8324519 252.27607258 91.12109375 252.984375 C90.32873636 253.80474432 89.53637897 254.62511364 88.72001076 255.47034264 C85.88196707 258.39671687 83.01597394 261.29350289 80.14379883 264.1862793 C79.04879668 265.29248112 77.95395249 266.39883931 76.85925293 267.50534058 C73.29040986 271.11043453 69.71617038 274.71014839 66.140625 278.30859375 C65.22448571 279.23065184 65.22448571 279.23065184 64.28983855 280.17133737 C58.51917435 285.97838134 52.74601594 291.78293765 46.96780872 297.58247662 C39.60841622 304.96945589 32.26090117 312.36783267 24.92882806 319.78193158 C19.75357119 325.01309656 14.56485988 330.23067719 9.36618727 335.43857127 C6.2695675 338.54142424 3.17906932 341.6498327 0.10303688 344.77310753 C-2.79147241 347.71152769 -5.70241716 350.63264112 -8.62630463 353.54182053 C-9.69010903 354.6059514 -10.74804435 355.67599102 -11.79922676 356.75259209 C-19.84154511 364.97884862 -27.91057309 370.83493247 -39.73925781 371.55200195 C-41.74952281 371.55122736 -43.75992214 371.52400972 -45.76953125 371.47265625 C-46.84015808 371.46558151 -47.91078491 371.45850677 -49.01385498 371.45121765 C-52.38629263 371.42354313 -55.75698249 371.36085608 -59.12890625 371.296875 C-61.43487162 371.27175732 -63.74086338 371.24895029 -66.046875 371.22851562 C-71.65813423 371.17380567 -77.26839534 371.09045609 -82.87890625 370.984375 C-88.18709167 361.01395301 -92.33294013 350.98693564 -95.94140625 340.296875 C-96.19936981 339.54102112 -96.45733337 338.78516724 -96.72311401 338.00640869 C-101.52836034 323.86250375 -105.13003583 309.67747439 -107.87890625 294.984375 C-108.05244629 294.08380371 -108.22598633 293.18323242 -108.40478516 292.25537109 C-110.87890625 279.36595883 -110.87890625 279.36595883 -110.87890625 273.984375 C-109.68652344 273.94699219 -108.49414062 273.90960938 -107.265625 273.87109375 C-105.69918725 273.80543468 -104.13278241 273.73898732 -102.56640625 273.671875 C-101.78072266 273.64931641 -100.99503906 273.62675781 -100.18554688 273.60351562 C-99.04956055 273.5503418 -99.04956055 273.5503418 -97.890625 273.49609375 C-97.19412842 273.46990967 -96.49763184 273.44372559 -95.7800293 273.41674805 C-93.32302682 272.85795116 -92.40213889 271.96577544 -90.87890625 269.984375 C-90.33898059 265.87893197 -90.33898059 265.87893197 -92.14013672 262.32666016 C-94.26385661 260.68720327 -95.41452976 260.57982257 -98.07421875 260.5078125 C-98.87214844 260.476875 -99.67007813 260.4459375 -100.4921875 260.4140625 C-101.32105469 260.39601563 -102.14992187 260.37796875 -103.00390625 260.359375 C-111.77417652 260.08910473 -111.77417652 260.08910473 -112.87890625 258.984375 C-114.13801401 248.86487933 -114.06521377 238.58852122 -114.06420898 228.40698242 C-114.06640655 225.92154062 -114.08467784 223.43653644 -114.10351562 220.95117188 C-114.10644934 219.32552231 -114.10843428 217.69987069 -114.109375 216.07421875 C-114.11656052 215.35403061 -114.12374603 214.63384247 -114.13114929 213.89183044 C-114.11110812 209.23680185 -113.59390815 204.78763011 -112.86372375 200.18800354 C-112.58857421 198.44234273 -112.58857421 198.44234273 -112.3078661 196.66141605 C-112.16630935 195.77799251 -112.0247526 194.89456896 -111.87890625 193.984375 C-111.07861118 193.98290844 -110.27831612 193.98144188 -109.45376968 193.97993088 C-89.99124978 193.94289796 -70.52890989 193.88393009 -51.06653214 193.80047226 C-41.65470336 193.76064317 -32.24295867 193.72827038 -22.83105469 193.71337891 C-14.62874063 193.7003824 -6.42661128 193.67346914 1.77559876 193.62976193 C6.11965698 193.6071019 10.463487 193.59146703 14.80760956 193.59249115 C18.89529765 193.5932351 22.98248044 193.57539195 27.07003784 193.54320717 C28.57123766 193.53467877 30.07249396 193.53297814 31.57370758 193.53857231 C33.62173214 193.54518837 35.66979123 193.52497304 37.7177124 193.50335693 C38.86442287 193.49966976 40.01113335 193.49598259 41.19259262 193.49218369 C44.77637039 192.87074856 45.99830489 191.90292743 48.12109375 188.984375 C48.21025529 185.35787549 48.21025529 185.35787549 47.12109375 181.984375 C43.58584037 179.62753941 42.10416192 179.72635906 37.91389465 179.7059021 C36.61399094 179.69473862 35.31408722 179.68357513 33.97479248 179.67207336 C32.53112822 179.66970831 31.08746364 179.66753268 29.64379883 179.66552734 C28.12612879 179.6562309 26.60846387 179.64606265 25.09080505 179.63508606 C20.96715816 179.60773995 16.84354552 179.59262304 12.71983171 179.57965803 C8.4116257 179.56404762 4.10348985 179.53725077 -0.20466614 179.5116272 C-8.36437876 179.46480233 -16.52410452 179.42807619 -24.68388301 179.39495432 C-33.97281551 179.3567591 -43.26167761 179.30734216 -52.55055082 179.25697017 C-71.65995114 179.15359518 -90.7693944 179.06435291 -109.87890625 178.984375 C-109.92553614 173.68285455 -109.68185815 169.01779127 -108.59375 163.79296875 C-108.45724533 163.13325577 -108.32074066 162.47354279 -108.18009949 161.7938385 C-107.73556453 159.66758164 -107.27726238 157.54464978 -106.81640625 155.421875 C-106.66161804 154.69726074 -106.50682983 153.97264648 -106.34735107 153.22607422 C-98.76698035 117.8724491 -98.76698035 117.8724491 -94.87890625 113.984375 C-93.1038564 113.88017843 -91.32464707 113.84639105 -89.54655457 113.83961487 C-88.38980728 113.83271637 -87.23306 113.82581787 -86.04125977 113.81871033 C-84.7607373 113.81609695 -83.48021484 113.81348358 -82.16088867 113.81079102 C-80.80764043 113.80448919 -79.45439429 113.79772381 -78.10115051 113.79052734 C-75.18023803 113.77583041 -72.25933371 113.7641166 -69.33839989 113.75457954 C-64.72070404 113.73916069 -60.10307744 113.71521122 -55.48542786 113.68968201 C-42.35222749 113.61839167 -29.21898711 113.55870389 -16.08569336 113.50756836 C-8.83746135 113.47927114 -1.58929787 113.44389139 5.65886229 113.40091461 C10.249818 113.37412388 14.84069612 113.35622973 19.43171465 113.34487736 C22.28904527 113.33575377 25.14628173 113.31839276 28.00355721 113.29869843 C29.96129908 113.28765581 31.91908877 113.28647326 33.87686157 113.28556824 C35.04206833 113.27584991 36.20727509 113.26613159 37.40779114 113.25611877 C38.4204646 113.25188684 39.43313807 113.2476549 40.4764986 113.24329472 C43.20146454 112.97650628 44.83587677 112.46908792 47.12109375 110.984375 C48.52044388 108.18567473 48.3737478 106.07938708 48.12109375 102.984375 C47.00327976 101.21055169 47.00327976 101.21055169 45.12109375 99.984375 C42.58279929 99.52470796 42.58279929 99.52470796 39.673172 99.58564758 C37.97574104 99.56684036 37.97574104 99.56684036 36.24401855 99.5476532 C35.00180542 99.54908829 33.75959229 99.55052338 32.47973633 99.55200195 C31.17231979 99.5418103 29.86490326 99.53161865 28.51786804 99.52111816 C24.93136123 99.49349787 21.34501296 99.48425691 17.75841355 99.47826409 C14.0107278 99.46889342 10.26316108 99.44269116 6.51554871 99.41825867 C-0.58168768 99.37455385 -7.67890101 99.34603142 -14.77623111 99.32293528 C-22.8560218 99.29590489 -30.93569296 99.25199211 -39.01539838 99.20664656 C-55.63650713 99.11374329 -72.25763728 99.04208866 -88.87890625 98.984375 C-88.4183719 97.56371717 -87.95439592 96.14417479 -87.48901367 94.72509766 C-87.23101486 93.9344693 -86.97301605 93.14384094 -86.7071991 92.32925415 C-85.48026605 88.8558332 -83.88148418 85.62669183 -82.19140625 82.359375 C-81.84110352 81.67407715 -81.49080078 80.9887793 -81.12988281 80.28271484 C-80.4037469 78.86717236 -79.67442321 77.45326051 -78.94189453 76.04101562 C-77.94758205 74.11724707 -76.97215273 72.18503214 -76 70.25 C-66.76133423 52.11763047 -54.74620401 35.19630614 -40.95703125 20.25 C-39.06072294 18.1825962 -37.24861019 16.06687407 -35.44140625 13.921875 C-34.89862534 13.32787903 -34.35584442 12.73388306 -33.7966156 12.12188721 C-31.84451641 10.00351584 -31.84451641 10.00351584 -30.11268616 7.66571045 C-21.83350283 -1.71089328 -11.54412935 -0.21701766 0 0 Z " fill="#FEDB6D" transform="translate(293.87890625,57.015625)"/>
<path d="M0 0 C8.58715407 1.617574 14.28530734 5.78542552 20.17578125 12.1328125 C25.02138878 19.74882091 26.86407212 28.91436072 28.70361328 37.64526367 C28.94581982 38.76355183 29.18802635 39.88183998 29.43757248 41.03401566 C30.23915681 44.74379499 31.02970925 48.45583506 31.8203125 52.16796875 C32.39230912 54.82969223 32.96670846 57.49089569 33.54104614 60.15211487 C34.76963474 65.85056379 35.99274313 71.55016553 37.21203613 77.25061035 C39.13852255 86.25695424 41.07580743 95.26095736 43.01464844 104.26464844 C43.67464442 107.33021266 44.33454288 110.39579787 44.99438477 113.46139526 C45.15863339 114.22447443 45.32288201 114.9875536 45.49210787 115.77375638 C46.66589842 121.22788561 47.83808585 126.68235795 49.00952148 132.13699341 C53.44630137 152.79511808 57.90400383 173.4486034 62.3828125 194.09765625 C62.67898212 195.4632485 62.9751514 196.82884082 63.27132034 198.19443321 C64.71055376 204.83020292 66.15027689 211.46586628 67.590271 218.10147095 C69.20544037 225.5443313 70.8199957 232.98732462 72.43408203 240.43041992 C72.68847738 241.6031461 72.94287273 242.77587229 73.20497704 243.98413563 C74.43630929 249.66209437 75.6653648 255.34052726 76.88925171 261.02009583 C78.9152159 270.41663731 80.94804985 279.81064167 83.05859756 289.18861008 C83.92431729 293.04129084 84.77864964 296.89645225 85.63167572 300.75196075 C86.02450878 302.51255124 86.42284913 304.27192473 86.82749176 306.02983856 C93.42265397 334.69402104 93.42265397 334.69402104 86 347 C77.24455032 358.92981888 66.53775943 362.7496263 52.46826172 365.70361328 C51.35011959 365.94581982 50.23197746 366.18802635 49.07995224 366.43757248 C45.36493427 367.24013814 41.64736967 368.03018812 37.9296875 368.8203125 C35.26648979 369.39210028 32.60388076 369.96660792 29.94125366 370.54104614 C24.23696628 371.77029319 18.53137564 372.99332161 12.8248291 374.21203613 C3.80939523 376.13750084 -5.20338672 378.07519649 -14.21582031 380.01464844 C-17.28354848 380.67465751 -20.35130083 381.3345541 -23.41906738 381.99438477 C-24.18269938 382.15863339 -24.94633139 382.32288201 -25.73310375 382.49210787 C-31.19214955 383.66607964 -36.65158439 384.83823095 -42.11120605 386.00952148 C-62.77974422 390.44394799 -83.44312798 394.90155483 -104.1015625 399.3828125 C-105.46703719 399.67898185 -106.83251189 399.97515113 -108.1979866 400.27132034 C-114.83291771 401.71050697 -121.46772977 403.15024166 -128.10247803 404.590271 C-135.54489133 406.20557869 -142.98747656 407.82009229 -150.43017578 409.43408203 C-151.60287207 409.68847738 -152.77556835 409.94287273 -153.98380089 410.20497704 C-159.66256815 411.43650103 -165.34183706 412.66561006 -171.02230835 413.88925171 C-180.4101233 415.91274237 -189.79512499 417.94360355 -199.16282272 420.05859756 C-203.00567188 420.92483024 -206.85116973 421.77892059 -210.69702911 422.63167572 C-212.45087926 423.02410438 -214.20342746 423.42241292 -215.95439911 423.82749176 C-245.42755036 430.64296399 -245.42755036 430.64296399 -258 423 C-268.89876286 415.43359269 -272.86091559 405.83464715 -275.5 393.1875 C-275.78757064 391.87408489 -276.07674266 390.56101948 -276.36743164 389.24829102 C-276.96450875 386.5356223 -277.5498049 383.82080338 -278.12548828 381.10351562 C-278.84392698 377.71625977 -279.58590788 374.33479721 -280.33859253 370.95500183 C-281.04462326 367.78390388 -281.74112605 364.61073044 -282.4375 361.4375 C-282.69660156 360.26147217 -282.95570313 359.08544434 -283.22265625 357.8737793 C-283.45726562 356.77976807 -283.691875 355.68575684 -283.93359375 354.55859375 C-284.14040771 353.60267334 -284.34722168 352.64675293 -284.56030273 351.66186523 C-284.99183056 349.04945664 -285.03110323 346.64121877 -285 344 C-284.26377033 343.99853344 -283.52754066 343.99706688 -282.76900101 343.99555588 C-264.81414818 343.95842473 -246.85948889 343.89932672 -228.90478897 343.81609726 C-220.22184204 343.77637112 -211.5389849 343.74394611 -202.85595703 343.72900391 C-195.2834816 343.71595395 -187.71120427 343.68890449 -180.13884044 343.64538693 C-176.13322525 343.62284689 -172.12785372 343.60708481 -168.12216949 343.60811615 C-164.34305476 343.60886721 -160.56447708 343.59073981 -156.78550148 343.55883217 C-154.75534923 343.54640349 -152.72510642 343.55336226 -150.69493103 343.56114197 C-137.01470409 343.40722124 -126.70378795 339.9239763 -116.90158081 330.17573547 C-116.42558445 329.70497579 -115.94958809 329.23421611 -115.4591676 328.74919099 C-113.87933238 327.18425284 -112.30662489 325.61235114 -110.73388672 324.0402832 C-109.59703744 322.91106222 -108.45978927 321.7822427 -107.32217407 320.65379333 C-104.24300576 317.59650795 -101.17037763 314.5327322 -98.09958792 311.46703362 C-96.17852335 309.54961931 -94.25616864 307.63350807 -92.33337784 305.71782494 C-85.61904291 299.02796082 -78.91042722 292.33241605 -72.20654297 285.63208008 C-65.96764782 279.39682058 -59.71574157 273.17481815 -53.45776927 266.95871097 C-48.07633184 261.61201069 -42.70460005 256.25568618 -37.34015477 250.89193791 C-34.14007407 247.6926487 -30.93617419 244.49742958 -27.72225571 241.31203651 C-24.69878282 238.31480339 -21.68760246 235.30573573 -18.68523788 232.28736305 C-17.58506815 231.18538369 -16.48065947 230.08761657 -15.37162018 228.99456406 C-6.61539761 220.35686206 -0.94000549 212.71708122 -0.84474558 200.09201312 C-0.84376747 199.30212914 -0.84278936 198.51224515 -0.84178162 197.69842529 C-0.83437465 196.43148106 -0.83437465 196.43148106 -0.82681805 195.138942 C-0.81144179 192.30454405 -0.80308206 189.47016876 -0.79467773 186.63574219 C-0.78509931 184.60561931 -0.77508925 182.57549842 -0.76467896 180.54537964 C-0.73761994 175.02927626 -0.71661574 169.51316431 -0.69667697 163.99703121 C-0.67482359 158.23410922 -0.64743172 152.47121366 -0.62062073 146.70831299 C-0.57068509 135.79325953 -0.52574948 124.87819141 -0.48259836 113.96310925 C-0.43323345 101.53760062 -0.37831255 89.11211849 -0.32291877 76.68663549 C-0.20908535 51.1244484 -0.10224925 25.56223587 0 0 Z " fill="#53C495" transform="translate(396,85)"/>
<path d="M0 0 C33 0 66 0 100 0 C104.29 7.59 108.58 15.18 113 23 C120.72806547 36.52411457 129.46721656 48.9765431 139.90942383 60.5546875 C141 62 141 62 141 64 C129.80689937 66.49716951 118.60987913 68.97587471 107.40766907 71.43187714 C102.20466664 72.57318671 97.00315544 73.72052049 91.8046875 74.88232422 C86.77632021 76.00586796 81.74451974 77.11266837 76.71005249 78.20854187 C74.80170752 78.62689365 72.89461294 79.05099706 70.98892212 79.48127747 C39.47528587 86.58389681 39.47528587 86.58389681 27 79 C16.10123714 71.43359269 12.13908441 61.83464715 9.5 49.1875 C9.21242936 47.87408489 8.92325734 46.56101948 8.63256836 45.24829102 C8.03549125 42.5356223 7.4501951 39.82080338 6.87451172 37.10351562 C6.15607302 33.71625977 5.41409212 30.33479721 4.66140747 26.95500183 C3.95537674 23.78390388 3.25887395 20.61073044 2.5625 17.4375 C2.30339844 16.26147217 2.04429688 15.08544434 1.77734375 13.8737793 C1.54273437 12.77976807 1.308125 11.68575684 1.06640625 10.55859375 C0.85959229 9.60267334 0.65277832 8.64675293 0.43969727 7.66186523 C0 5 0 5 0 0 Z " fill="#46A780" transform="translate(111,429)"/>
<path d="M0 0 C1.04465424 -0.00043808 2.08930847 -0.00087616 3.1656189 -0.00132751 C6.60157277 0.00075426 10.03703226 0.02405705 13.47290039 0.04760742 C15.86185947 0.05320553 18.25082201 0.05747462 20.63978577 0.06047058 C26.91490252 0.07190232 33.1898096 0.10135541 39.46484375 0.13458252 C45.87309941 0.16531926 52.28138908 0.17898364 58.68969727 0.1940918 C71.25423963 0.22622647 83.81863696 0.2768228 96.38305664 0.34057617 C95.08155961 5.27495996 93.25419776 7.97113333 89.66522217 11.56634521 C89.18180398 12.05600336 88.6983858 12.54566151 88.20031857 13.05015779 C86.58537759 14.68099547 84.95658632 16.29722845 83.32739258 17.91381836 C82.16360282 19.08303069 81.0006652 20.25309172 79.83851624 21.42393494 C76.68442947 24.59624167 73.51783889 27.75578337 70.34829617 30.91263866 C67.03123594 34.21956448 63.72395469 37.53624706 60.4151001 40.85137939 C54.85707173 46.41668285 49.29066753 51.97350419 43.71948242 57.52563477 C37.28064174 63.9427071 30.85633784 70.37406245 24.43939567 76.81302714 C18.92734697 82.34323368 13.40753381 87.8655994 7.8811686 93.38149953 C4.58149097 96.6749444 1.28456753 99.97102424 -2.00537872 103.27419281 C-5.09897243 106.37934982 -8.20220431 109.47454182 -11.31311226 112.56234932 C-12.45254041 113.69649303 -13.58858684 114.834046 -14.72095299 115.97524071 C-16.2686172 117.533854 -17.82810925 119.07959556 -19.39117432 120.6227417 C-20.26059284 121.49065212 -21.13001137 122.35856255 -22.02577591 123.25277328 C-24.82003066 125.50421139 -27.16933888 126.43123324 -30.61694336 127.34057617 C-30.73405364 113.43193724 -30.82173328 99.52337543 -30.87600422 85.61434364 C-30.90205649 79.15523764 -30.93737581 72.69646373 -30.99414062 66.23754883 C-31.04861456 60.00000129 -31.07839675 53.76277246 -31.09132957 47.52500534 C-31.10054172 45.14963136 -31.1185309 42.77427409 -31.14559364 40.39903641 C-31.18208695 37.06227682 -31.18688004 33.7268208 -31.18457031 30.38989258 C-31.20254669 29.41596558 -31.22052307 28.44203857 -31.23904419 27.43859863 C-31.1873513 20.50084455 -29.5430016 15.11185123 -25.61694336 9.34057617 C-17.95022891 1.94447758 -10.38060928 -0.11479169 0 0 Z " fill="#FEECAC" transform="translate(296.616943359375,297.659423828125)"/>
<path d="M0 0 C0.82927002 0.00757324 1.65854004 0.01514648 2.51293945 0.02294922 C15.30488646 0.36540095 24.05924801 5.53162621 32.8125 14.5625 C40.87760369 23.92945113 43.45411384 35.36751584 42.625 47.4375 C41.09001194 58.19776632 35.17851408 68.5002488 26.54296875 75.19921875 C15.03861633 82.62667235 4.11483636 84.84831956 -9.375 83.4375 C-21.40264503 80.66602922 -29.69932166 72.18276271 -36.7890625 62.5078125 C-42.5729364 53.21629894 -43.45069538 41.77332469 -41.1875 31.20703125 C-38.10306008 20.69324326 -31.54701398 11.61467599 -22.375 5.5 C-15.13504242 1.56249586 -8.21857285 -0.10595929 0 0 Z " fill="#F6524B" transform="translate(167.375,-0.4375)"/>
<path d="M0 0 C1.03711217 -0.00694553 2.07422434 -0.01389106 3.14276415 -0.02104706 C6.62904863 -0.03938992 10.11465821 -0.02903213 13.60096741 -0.01878357 C16.09588126 -0.02583833 18.59079083 -0.03458146 21.08569336 -0.04489136 C27.16560905 -0.06510069 33.24525818 -0.0664003 39.32518023 -0.05826581 C44.26642234 -0.05196895 49.20760986 -0.05309995 54.14885139 -0.05953789 C54.85180758 -0.06043954 55.55476376 -0.0613412 56.27902164 -0.06227018 C57.70702486 -0.06412136 59.13502807 -0.06598392 60.56303126 -0.06785773 C73.95820834 -0.08444205 87.35328013 -0.07571181 100.74845088 -0.05887216 C113.00544516 -0.04417601 125.26219429 -0.05880115 137.51915698 -0.08764232 C150.10202262 -0.11703004 162.68477509 -0.12801036 175.26767355 -0.11846012 C176.69076349 -0.11743756 178.11385346 -0.11644295 179.53694344 -0.11547661 C180.23714393 -0.11500022 180.93734443 -0.11452383 181.65876312 -0.114033 C186.59376956 -0.11186796 191.52866896 -0.12167774 196.46365166 -0.13624763 C203.10638452 -0.15558565 209.74873438 -0.14870162 216.39147377 -0.12404823 C218.83239894 -0.11902587 221.27335863 -0.12256676 223.71425629 -0.13519669 C227.04091005 -0.15105074 230.36604581 -0.13624676 233.69262695 -0.11352539 C234.66363513 -0.12536112 235.63464332 -0.13719685 236.63507599 -0.14939123 C241.20310759 -0.08579591 243.27456114 0.04599237 247.04447269 2.82736301 C248.9098053 5.5146637 248.9098053 5.5146637 248.9723053 9.1396637 C247.79370832 12.88344233 247.18118659 13.5727177 243.9098053 15.5146637 C241.78895855 15.89186186 241.78895855 15.89186186 239.4619751 15.89498043 C238.57169522 15.90342037 237.68141535 15.91186031 236.7641573 15.92055601 C235.30327576 15.91154094 235.30327576 15.91154094 233.81288147 15.90234375 C232.77506373 15.90772929 231.737246 15.91311483 230.66797924 15.91866356 C227.17945799 15.93300714 223.69131278 15.92582353 220.20277405 15.91871643 C217.70623976 15.9244166 215.20970808 15.93137948 212.71318054 15.93951416 C206.62962932 15.95562955 200.54622667 15.95753856 194.46266866 15.95230126 C189.519042 15.948262 184.57544587 15.94970019 179.63182068 15.95504951 C178.57695332 15.95617215 178.57695332 15.95617215 177.50077552 15.95731746 C176.07220657 15.95884891 174.64363763 15.96038726 173.2150687 15.96193243 C159.8151703 15.97566373 146.41533027 15.97021515 133.01543319 15.95874722 C120.75133104 15.94881202 108.4873797 15.96175927 96.22330081 15.98568141 C83.634801 16.01005167 71.04637149 16.01968553 58.45784855 16.01302868 C51.38859738 16.00953211 44.31946225 16.0117974 37.25022888 16.02927971 C30.60508447 16.04550924 23.960182 16.04085244 17.31502914 16.02197456 C14.87206962 16.01827406 12.42908893 16.02143934 9.98614883 16.03186035 C6.65933777 16.04497154 3.33349753 16.03360988 0.00672913 16.01586914 C-0.9671919 16.02547415 -1.94111292 16.03507915 -2.9445467 16.04497522 C-9.43213945 15.97345713 -9.43213945 15.97345713 -12.69000244 13.70208836 C-14.75757448 10.47206189 -14.6256603 8.26292291 -14.0901947 4.5146637 C-10.65496171 -0.84829149 -5.74371573 -0.04863413 0 0 Z " fill="#ECA03A" transform="translate(94.09019470214844,235.48533630371094)"/>
<path d="M0 0 C0.89376327 -0.00843994 1.78752654 -0.01687988 2.70837355 -0.02557558 C3.68618552 -0.01956553 4.66399749 -0.01355549 5.67144012 -0.00736332 C6.71334141 -0.01274886 7.7552427 -0.01813439 8.82871675 -0.02368313 C12.33105706 -0.03802701 15.83302283 -0.03084303 19.33538055 -0.023736 C21.84176692 -0.02943615 24.34815069 -0.03639902 26.85453033 -0.04453373 C32.96213917 -0.06064925 39.06960894 -0.06255809 45.17723262 -0.05732083 C50.14040539 -0.0532816 55.10354774 -0.05471973 60.06671906 -0.06006908 C60.77273932 -0.06081751 61.47875959 -0.06156593 62.2061744 -0.06233703 C63.64038035 -0.06386848 65.07458629 -0.06540683 66.50879222 -0.066952 C79.96162567 -0.08068336 93.41440097 -0.07523468 106.8672331 -0.06376678 C119.17983397 -0.05383159 131.49228462 -0.06677883 143.80486232 -0.09070098 C156.44308262 -0.11507113 169.08123289 -0.12470513 181.71947622 -0.11804825 C188.81667289 -0.11455165 195.91375398 -0.11681713 203.01093292 -0.13429928 C209.682373 -0.15052872 216.35347952 -0.14587226 223.02492714 -0.12699413 C225.47756201 -0.12329359 227.93021796 -0.12645903 230.38283348 -0.13687992 C233.72278041 -0.14999081 237.0617603 -0.1386297 240.40166473 -0.12088871 C241.3794767 -0.13049372 242.35728868 -0.14009872 243.36473131 -0.14999479 C249.88923849 -0.07835008 249.88923849 -0.07835008 253.13873291 2.22414207 C255.05957965 5.18710046 255.11388069 6.91634715 254.53655243 10.38031673 C253.14152622 12.53649139 253.14152622 12.53649139 250.53655243 14.38031673 C247.14845866 14.98506285 243.79065464 14.91509409 240.35697174 14.88152218 C239.31028133 14.88705658 238.26359093 14.89259097 237.18518263 14.89829308 C233.66656866 14.91194141 230.14865887 14.89690715 226.63005829 14.88202572 C224.11219734 14.88580733 221.59433848 14.89130607 219.07648468 14.8983984 C212.94108689 14.91093594 206.80595166 14.90476793 200.67056697 14.88972282 C193.52879836 14.87287536 186.38708115 14.87607133 179.24529881 14.8798169 C166.50502078 14.88569714 153.76484154 14.87151693 141.02458954 14.84686947 C128.65573677 14.82294314 116.28701598 14.81586694 103.91814423 14.82636166 C90.45493324 14.8377644 76.99178333 14.83970931 63.5285731 14.82526356 C62.09372334 14.82373769 60.65887358 14.82221733 59.22402382 14.82070255 C58.16500861 14.81956583 58.16500861 14.81956583 57.08459915 14.81840615 C52.10360282 14.81365872 47.12263372 14.81551796 42.1416378 14.81976795 C35.44150402 14.8252017 28.74158071 14.81447897 22.04147148 14.7928133 C19.57713439 14.78723137 17.11277971 14.78679293 14.64844131 14.79176617 C11.29513785 14.79768656 7.94240168 14.78527603 4.58914948 14.76799679 C3.11222583 14.77701186 3.11222583 14.77701186 1.60546535 14.78620905 C0.71020974 14.77776911 -0.18504588 14.76932917 -1.10743046 14.76063347 C-1.88179024 14.75960434 -2.65615003 14.75857521 -3.45397526 14.75751489 C-5.9964294 14.28027068 -6.88438406 13.39034096 -8.46344757 11.38031673 C-8.89704132 9.44281673 -8.89704132 9.44281673 -8.90094757 7.38031673 C-8.92028351 6.69969173 -8.93961945 6.01906673 -8.95954132 5.31781673 C-7.85169821 0.99112239 -4.03969685 0.00539258 0 0 Z " fill="#EB9F39" transform="translate(88.46344757080078,155.61968326568604)"/>
<path d="M0 0 C0.98279938 -0.00990463 1.96559875 -0.01980927 2.97817993 -0.03001404 C4.59362953 -0.02326157 4.59362953 -0.02326157 6.24171448 -0.01637268 C7.37689514 -0.02323593 8.51207581 -0.03009918 9.68165588 -0.03717041 C13.44472156 -0.05551421 17.20737333 -0.05158994 20.97047424 -0.0459137 C23.57977434 -0.05047187 26.18907323 -0.05577635 28.79837036 -0.0617981 C34.27187579 -0.07183371 39.74526311 -0.06852187 45.21876526 -0.05836487 C51.54513887 -0.04688461 57.87108851 -0.06095564 64.19740623 -0.08776134 C70.28378549 -0.11258461 76.36996905 -0.11509731 82.45639229 -0.10864449 C85.04601306 -0.10849081 87.63564181 -0.11457305 90.22523308 -0.12693596 C93.84302908 -0.14177276 97.45988586 -0.13122144 101.07765198 -0.11402893 C102.15259415 -0.1236969 103.22753632 -0.13336487 104.33505249 -0.14332581 C111.56099759 -0.07122805 111.56099759 -0.07122805 114.88980103 2.23153687 C116.72849397 5.2021245 116.79615171 6.95705275 116.22438049 10.38768005 C114.8830719 12.54283142 114.8830719 12.54283142 112.22438049 14.38768005 C108.55088445 15.0008176 104.90214282 14.93354227 101.18531799 14.90525818 C100.05974487 14.91226746 98.93417175 14.91927673 97.77449036 14.92649841 C94.04920371 14.94412165 90.32467503 14.93243951 86.59938049 14.91893005 C84.01392979 14.9216237 81.42848007 14.92550505 78.84303284 14.93052673 C73.42251517 14.9364277 68.00228303 14.92822018 62.58180237 14.90916443 C56.31730612 14.88739568 50.0533306 14.8944472 43.78884697 14.91647005 C37.75957423 14.93681667 31.73055603 14.93465376 25.70124817 14.92294312 C23.13675361 14.9202713 20.57224581 14.92356147 18.00776672 14.93286133 C14.42596534 14.94299927 10.84516934 14.92756265 7.26344299 14.90525818 C5.66741241 14.91740356 5.66741241 14.91740356 4.03913879 14.92979431 C-3.09941643 14.84727618 -3.09941643 14.84727618 -6.43821716 12.57798767 C-8.39318361 9.37627509 -8.24260828 7.05687753 -7.77561951 3.38768005 C-5.51698656 0.28036717 -3.74096495 0.01063378 0 0 Z " fill="#C98731" transform="translate(87.77561950683594,316.61231994628906)"/>
<path d="M0 0 C1.01519714 -0.00412399 2.03039429 -0.00824799 3.07635498 -0.01249695 C4.73791626 0.00368179 4.73791626 0.00368179 6.43304443 0.02018738 C7.60405701 0.0197493 8.77506958 0.01931122 9.98156738 0.01885986 C13.85586158 0.02095147 17.72972417 0.04430093 21.60394287 0.0677948 C24.28865315 0.07505492 26.97336295 0.07780771 29.65808105 0.08065796 C36.00456367 0.08997963 42.35089113 0.11459494 48.69730544 0.14470643 C55.92335729 0.17824674 63.14941658 0.1947355 70.37552691 0.20979273 C85.2382078 0.24114447 100.10075259 0.29390725 114.96331787 0.36076355 C114.34471036 3.74208423 113.51659325 6.92296137 112.40081787 10.17326355 C112.13140381 10.96345886 111.86198975 11.75365417 111.58441162 12.5677948 C111.37945068 13.15947449 111.17448975 13.75115417 110.96331787 14.36076355 C95.76026355 14.43080806 80.55721666 14.48372934 65.35403728 14.51620007 C58.29511309 14.53167675 51.23628909 14.55278143 44.1774292 14.58708191 C37.3693579 14.62014801 30.56139092 14.63760089 23.7532444 14.64539528 C21.15162324 14.65095219 18.55000798 14.66180296 15.94843102 14.67795372 C12.31353658 14.69962847 8.67907673 14.7027346 5.04412842 14.70133972 C3.96087784 14.71212555 2.87762726 14.72291138 1.7615509 14.73402405 C0.77297089 14.72990005 -0.21560913 14.72577606 -1.23414612 14.7215271 C-2.09417897 14.72429248 -2.95421183 14.72705786 -3.84030628 14.72990704 C-6.52285521 14.27905275 -7.3997912 13.49342132 -9.03668213 11.36076355 C-9.47027588 9.42326355 -9.47027588 9.42326355 -9.47418213 7.36076355 C-9.49351807 6.68013855 -9.512854 5.99951355 -9.53277588 5.29826355 C-8.34688168 0.66673976 -4.23018114 -0.01327463 0 0 Z " fill="#C98731" transform="translate(89.03668212890625,155.6392364501953)"/>
<path d="M0 0 C0.96618759 -0.00058411 1.93237518 -0.00116821 2.92784119 -0.00177002 C6.1205542 0.00101609 9.31233295 0.03213372 12.50488281 0.06347656 C14.71876516 0.07093706 16.9326541 0.07663089 19.14654541 0.08062744 C24.97298419 0.09589873 30.79902401 0.13519388 36.62530518 0.17944336 C42.57078657 0.22036355 48.51633244 0.23863153 54.46191406 0.25878906 C66.12745392 0.30168631 77.79269769 0.36995609 89.45800781 0.45410156 C89.64251806 11.01218812 89.64251806 11.01218812 88.45800781 15.45410156 C75.7495402 15.54671388 63.04115266 15.61782218 50.33241653 15.66135025 C44.43145086 15.68223981 38.53071577 15.71058288 32.62988281 15.75585938 C26.93701659 15.79926764 21.24437238 15.82322835 15.55135345 15.83361053 C13.37757623 15.84101088 11.20381138 15.85546175 9.03012848 15.87702179 C5.98921794 15.90598854 2.94922905 15.91006032 -0.09179688 15.90820312 C-0.99378815 15.92258423 -1.89577942 15.93696533 -2.82510376 15.95178223 C-8.89498229 15.91157411 -8.89498229 15.91157411 -12.10137939 13.64447021 C-14.22243018 10.41953484 -14.08059698 8.22433514 -13.54199219 4.45410156 C-10.12230539 -0.76612474 -5.6549099 -0.08923526 0 0 Z " fill="#C98832" transform="translate(93.5419921875,235.5458984375)"/>
<path d="M0 0 C2.99145181 1.34300914 5.07701552 2.82940954 7.3828125 5.15234375 C7.99253906 5.76400391 8.60226563 6.37566406 9.23046875 7.00585938 C9.85566406 7.64330078 10.48085937 8.28074219 11.125 8.9375 C11.75792969 9.57107422 12.39085937 10.20464844 13.04296875 10.85742188 C20.28835689 18.17203347 20.28835689 18.17203347 20.375 23.8125 C20.27694001 28.61043504 19.2801618 31.35537578 16 35 C11.48454804 37.71498694 7.11447824 38.19215176 2 37 C-1.82634874 34.46467885 -4.84279196 31.31182644 -8 28 C-8.86753906 27.1646875 -9.73507813 26.329375 -10.62890625 25.46875 C-15.16826282 21.09278185 -15.16826282 21.09278185 -17 19 C-17 18.34 -17 17.68 -17 17 C-15.514657 15.94800656 -13.98446823 14.9590742 -12.4375 14 C-6.81479948 10.21687433 -3.48752016 5.73939576 0 0 Z " fill="#EFEEF8" transform="translate(204,61)"/>
<path d="M0 0 C2.91765891 -0.10806144 5.83131125 -0.18732877 8.75 -0.25 C9.9875 -0.30027344 9.9875 -0.30027344 11.25 -0.3515625 C17.37263845 -0.45031473 17.37263845 -0.45031473 20.546875 1.828125 C22.53179475 4.79483301 22.5833135 6.50011898 22 10 C20.515625 12.171875 20.515625 12.171875 18 14 C15.06686789 14.48587453 12.21267355 14.3777438 9.25 14.25 C8.06083984 14.22292969 8.06083984 14.22292969 6.84765625 14.1953125 C4.89791652 14.14833082 2.94880122 14.07659044 1 14 C0.14459248 10.81516094 -0.10600229 8.05617396 -0.0625 4.75 C-0.05347656 3.85796875 -0.04445312 2.9659375 -0.03515625 2.046875 C-0.02355469 1.37140625 -0.01195312 0.6959375 0 0 Z " fill="#EB9F39" transform="translate(182,317)"/>
</svg>
